<?xml version="1.0" encoding="UTF-8" standalone="no"?>
<!-- Created with Inkscape (http://www.inkscape.org/) -->

<svg
   version="1.1"
   id="svg1"
   width="529.05334"
   height="400.51868"
   viewBox="0 0 529.05334 400.51868"
   xmlns="http://www.w3.org/2000/svg"
   xmlns:svg="http://www.w3.org/2000/svg">
  <defs
     id="defs1" />
  <g
     id="g1">
    <path
       id="path1"
       d="M 11.90561,-34.01616 V -289.13744"
       style="fill:none;stroke:#000000;stroke-width:0.3985;stroke-linecap:butt;stroke-linejoin:miter;stroke-miterlimit:10;stroke-dasharray:0.3985, 1.99255;stroke-dashoffset:0;stroke-opacity:1"
       transform="matrix(1.3333333,0,0,-1.3333333,122.12,7.568)" />
    <path
       id="path2"
       d="M 25.79549,-34.01616 V -289.13744"
       style="fill:none;stroke:#000000;stroke-width:0.3985;stroke-linecap:butt;stroke-linejoin:miter;stroke-miterlimit:10;stroke-dasharray:0.3985, 1.99255;stroke-dashoffset:0;stroke-opacity:1"
       transform="matrix(1.3333333,0,0,-1.3333333,122.12,7.568)" />
    <path
       id="path3"
       d="M 39.68536,-34.01616 V -289.13744"
       style="fill:none;stroke:#000000;stroke-width:0.3985;stroke-linecap:butt;stroke-linejoin:miter;stroke-miterlimit:10;stroke-dasharray:0.3985, 1.99255;stroke-dashoffset:0;stroke-opacity:1"
       transform="matrix(1.3333333,0,0,-1.3333333,122.12,7.568)" />
    <path
       id="path4"
       d="M 53.57524,-34.01616 V -289.13744"
       style="fill:none;stroke:#000000;stroke-width:0.3985;stroke-linecap:butt;stroke-linejoin:miter;stroke-miterlimit:10;stroke-dasharray:0.3985, 1.99255;stroke-dashoffset:0;stroke-opacity:1"
       transform="matrix(1.3333333,0,0,-1.3333333,122.12,7.568)" />
    <path
       id="path5"
       d="M 67.46512,-34.01616 V -289.13744"
       style="fill:none;stroke:#000000;stroke-width:0.3985;stroke-linecap:butt;stroke-linejoin:miter;stroke-miterlimit:10;stroke-dasharray:0.3985, 1.99255;stroke-dashoffset:0;stroke-opacity:1"
       transform="matrix(1.3333333,0,0,-1.3333333,122.12,7.568)" />
    <path
       id="path6"
       d="M 81.35501,-34.01616 V -289.13744"
       style="fill:none;stroke:#000000;stroke-width:0.3985;stroke-linecap:butt;stroke-linejoin:miter;stroke-miterlimit:10;stroke-dasharray:0.3985, 1.99255;stroke-dashoffset:0;stroke-opacity:1"
       transform="matrix(1.3333333,0,0,-1.3333333,122.12,7.568)" />
    <path
       id="path7"
       d="M 95.24489,-34.01616 V -289.13744"
       style="fill:none;stroke:#000000;stroke-width:0.3985;stroke-linecap:butt;stroke-linejoin:miter;stroke-miterlimit:10;stroke-dasharray:0.3985, 1.99255;stroke-dashoffset:0;stroke-opacity:1"
       transform="matrix(1.3333333,0,0,-1.3333333,122.12,7.568)" />
    <path
       id="path8"
       d="M 109.13477,-34.01616 V -289.13744"
       style="fill:none;stroke:#000000;stroke-width:0.3985;stroke-linecap:butt;stroke-linejoin:miter;stroke-miterlimit:10;stroke-dasharray:0.3985, 1.99255;stroke-dashoffset:0;stroke-opacity:1"
       transform="matrix(1.3333333,0,0,-1.3333333,122.12,7.568)" />
    <path
       id="path9"
       d="M 123.02464,-34.01616 V -289.13744"
       style="fill:none;stroke:#000000;stroke-width:0.3985;stroke-linecap:butt;stroke-linejoin:miter;stroke-miterlimit:10;stroke-dasharray:0.3985, 1.99255;stroke-dashoffset:0;stroke-opacity:1"
       transform="matrix(1.3333333,0,0,-1.3333333,122.12,7.568)" />
    <path
       id="path10"
       d="M 136.91454,-34.01616 V -289.13744"
       style="fill:none;stroke:#000000;stroke-width:0.3985;stroke-linecap:butt;stroke-linejoin:miter;stroke-miterlimit:10;stroke-dasharray:0.3985, 1.99255;stroke-dashoffset:0;stroke-opacity:1"
       transform="matrix(1.3333333,0,0,-1.3333333,122.12,7.568)" />
    <path
       id="path11"
       d="M 150.80441,-34.01616 V -289.13744"
       style="fill:none;stroke:#000000;stroke-width:0.3985;stroke-linecap:butt;stroke-linejoin:miter;stroke-miterlimit:10;stroke-dasharray:0.3985, 1.99255;stroke-dashoffset:0;stroke-opacity:1"
       transform="matrix(1.3333333,0,0,-1.3333333,122.12,7.568)" />
    <path
       id="path12"
       d="M 164.69429,-34.01616 V -289.13744"
       style="fill:none;stroke:#000000;stroke-width:0.3985;stroke-linecap:butt;stroke-linejoin:miter;stroke-miterlimit:10;stroke-dasharray:0.3985, 1.99255;stroke-dashoffset:0;stroke-opacity:1"
       transform="matrix(1.3333333,0,0,-1.3333333,122.12,7.568)" />
    <path
       id="path13"
       d="M 178.58417,-34.01616 V -289.13744"
       style="fill:none;stroke:#000000;stroke-width:0.3985;stroke-linecap:butt;stroke-linejoin:miter;stroke-miterlimit:10;stroke-dasharray:0.3985, 1.99255;stroke-dashoffset:0;stroke-opacity:1"
       transform="matrix(1.3333333,0,0,-1.3333333,122.12,7.568)" />
    <path
       id="path14"
       d="M 192.47404,-34.01616 V -289.13744"
       style="fill:none;stroke:#000000;stroke-width:0.3985;stroke-linecap:butt;stroke-linejoin:miter;stroke-miterlimit:10;stroke-dasharray:0.3985, 1.99255;stroke-dashoffset:0;stroke-opacity:1"
       transform="matrix(1.3333333,0,0,-1.3333333,122.12,7.568)" />
    <path
       id="path15"
       d="M 206.36394,-34.01616 V -289.13744"
       style="fill:none;stroke:#000000;stroke-width:0.3985;stroke-linecap:butt;stroke-linejoin:miter;stroke-miterlimit:10;stroke-dasharray:0.3985, 1.99255;stroke-dashoffset:0;stroke-opacity:1"
       transform="matrix(1.3333333,0,0,-1.3333333,122.12,7.568)" />
    <path
       id="path16"
       d="M 220.25381,-34.01616 V -289.13744"
       style="fill:none;stroke:#000000;stroke-width:0.3985;stroke-linecap:butt;stroke-linejoin:miter;stroke-miterlimit:10;stroke-dasharray:0.3985, 1.99255;stroke-dashoffset:0;stroke-opacity:1"
       transform="matrix(1.3333333,0,0,-1.3333333,122.12,7.568)" />
    <path
       id="path17"
       d="M 234.14369,-34.01616 V -289.13744"
       style="fill:none;stroke:#000000;stroke-width:0.3985;stroke-linecap:butt;stroke-linejoin:miter;stroke-miterlimit:10;stroke-dasharray:0.3985, 1.99255;stroke-dashoffset:0;stroke-opacity:1"
       transform="matrix(1.3333333,0,0,-1.3333333,122.12,7.568)" />
    <path
       id="path18"
       d="M 248.03357,-34.01616 V -289.13744"
       style="fill:none;stroke:#000000;stroke-width:0.3985;stroke-linecap:butt;stroke-linejoin:miter;stroke-miterlimit:10;stroke-dasharray:0.3985, 1.99255;stroke-dashoffset:0;stroke-opacity:1"
       transform="matrix(1.3333333,0,0,-1.3333333,122.12,7.568)" />
    <path
       id="path19"
       d="M 261.92345,-34.01616 V -289.13744"
       style="fill:none;stroke:#000000;stroke-width:0.3985;stroke-linecap:butt;stroke-linejoin:miter;stroke-miterlimit:10;stroke-dasharray:0.3985, 1.99255;stroke-dashoffset:0;stroke-opacity:1"
       transform="matrix(1.3333333,0,0,-1.3333333,122.12,7.568)" />
    <path
       id="path20"
       d="M 275.81334,-34.01616 V -289.13744"
       style="fill:none;stroke:#000000;stroke-width:0.3985;stroke-linecap:butt;stroke-linejoin:miter;stroke-miterlimit:10;stroke-dasharray:0.3985, 1.99255;stroke-dashoffset:0;stroke-opacity:1"
       transform="matrix(1.3333333,0,0,-1.3333333,122.12,7.568)" />
    <path
       id="path21"
       d="M 289.70322,-34.01616 V -289.13744"
       style="fill:none;stroke:#000000;stroke-width:0.3985;stroke-linecap:butt;stroke-linejoin:miter;stroke-miterlimit:10;stroke-dasharray:0.3985, 1.99255;stroke-dashoffset:0;stroke-opacity:1"
       transform="matrix(1.3333333,0,0,-1.3333333,122.12,7.568)" />
    <path
       id="path22"
       d="M -91.19293,5.27744 H 304.80519"
       style="fill:none;stroke:#000000;stroke-width:0.79703;stroke-linecap:butt;stroke-linejoin:miter;stroke-miterlimit:10;stroke-dasharray:none;stroke-opacity:1"
       transform="matrix(1.3333333,0,0,-1.3333333,122.12,7.568)" />
    <path
       id="path23"
       d="M -91.19293,-294.31808 H 304.80519"
       style="fill:none;stroke:#000000;stroke-width:0.79703;stroke-linecap:butt;stroke-linejoin:miter;stroke-miterlimit:10;stroke-dasharray:none;stroke-opacity:1"
       transform="matrix(1.3333333,0,0,-1.3333333,122.12,7.568)" />
    <text
       id="text23"
       xml:space="preserve"
       transform="matrix(1.3333333,0,0,1.3333333,189.924,21.829333)"><tspan
         id="tspan23"
         style="font-variant:normal;font-weight:normal;font-size:8.96638px;font-family:'Segoe UI';writing-mode:lr-tb;fill:#000000;fill-opacity:1;fill-rule:nonzero;stroke:none"
         x="0"
         y="0">2024</tspan></text>
    <text
       id="text24"
       xml:space="preserve"
       transform="matrix(1.3333333,0,0,1.3333333,389.67067,21.829333)"><tspan
         id="tspan24"
         style="font-variant:normal;font-weight:normal;font-size:8.96638px;font-family:'Segoe UI';writing-mode:lr-tb;fill:#000000;fill-opacity:1;fill-rule:nonzero;stroke:none"
         x="0"
         y="0">2025</tspan></text>
    <path
       id="path24"
       d="M 0,-28.3468 H 299.62456"
       style="fill:none;stroke:#000000;stroke-width:0.3985;stroke-linecap:butt;stroke-linejoin:miter;stroke-miterlimit:10;stroke-dasharray:none;stroke-opacity:1"
       transform="matrix(1.3333333,0,0,-1.3333333,122.12,7.568)" />
    <text
       id="text25"
       xml:space="preserve"
       transform="matrix(1.3333333,0,0,1.3333333,150.968,44.506667)"><tspan
         id="tspan25"
         style="font-variant:normal;font-weight:normal;font-size:8.96638px;font-family:'Segoe UI';writing-mode:lr-tb;fill:#000000;fill-opacity:1;fill-rule:nonzero;stroke:none"
         x="0"
         y="0">Nov</tspan></text>
    <text
       id="text26"
       xml:space="preserve"
       transform="matrix(1.3333333,0,0,1.3333333,232.42,44.506667)"><tspan
         id="tspan26"
         style="font-variant:normal;font-weight:normal;font-size:8.96638px;font-family:'Segoe UI';writing-mode:lr-tb;fill:#000000;fill-opacity:1;fill-rule:nonzero;stroke:none"
         x="0"
         y="0">Dec</tspan></text>
    <text
       id="text27"
       xml:space="preserve"
       transform="matrix(1.3333333,0,0,1.3333333,315.956,44.506667)"><tspan
         id="tspan27"
         style="font-variant:normal;font-weight:normal;font-size:8.96638px;font-family:'Segoe UI';writing-mode:lr-tb;fill:#000000;fill-opacity:1;fill-rule:nonzero;stroke:none"
         x="0"
         y="0">Jan</tspan></text>
    <text
       id="text28"
       xml:space="preserve"
       transform="matrix(1.3333333,0,0,1.3333333,393.00133,44.506667)"><tspan
         id="tspan28"
         style="font-variant:normal;font-weight:normal;font-size:8.96638px;font-family:'Segoe UI';writing-mode:lr-tb;fill:#000000;fill-opacity:1;fill-rule:nonzero;stroke:none"
         x="0"
         y="0">Feb</tspan></text>
    <text
       id="text29"
       xml:space="preserve"
       transform="matrix(1.3333333,0,0,1.3333333,470.12,44.506667)"><tspan
         id="tspan29"
         style="font-variant:normal;font-weight:normal;font-size:8.96638px;font-family:'Segoe UI';writing-mode:lr-tb;fill:#000000;fill-opacity:1;fill-rule:nonzero;stroke:none"
         x="0"
         y="0">Mar</tspan></text>
    <path
       id="path29"
       d="m 27.58131,-45.3547 h 204.77654 v -5.66927 l -1.98427,-2.83486 -1.98427,2.83486 H 31.54985 l -1.98427,-2.83486 -1.98427,2.83486 z"
       style="fill:#ffffff;fill-opacity:1;fill-rule:nonzero;stroke:#000000;stroke-width:0.3985;stroke-linecap:butt;stroke-linejoin:miter;stroke-miterlimit:10;stroke-dasharray:none;stroke-opacity:1"
       transform="matrix(1.3333333,0,0,-1.3333333,122.12,7.568)" />
    <text
       id="text30"
       xml:space="preserve"
       transform="matrix(1.3333333,0,0,1.3333333,11.6,75.008)"><tspan
         id="tspan30"
         style="font-variant:normal;font-weight:700;font-size:9.96264px;font-family:'Segoe UI';writing-mode:lr-tb;fill:#000000;fill-opacity:1;fill-rule:nonzero;stroke:none"
         x="0"
         dx="0 0 0 0.0498132 0.0099626398 3.317559 0 0 -0.02988792"
         y="0">Firstattempt</tspan></text>
    <path
       id="path30"
       d="m 27.77975,-82.20563 h 33.73254 v 11.33855 H 27.77975 Z"
       style="fill:#ffffff;fill-opacity:1;fill-rule:nonzero;stroke:#000000;stroke-width:0.3985;stroke-linecap:butt;stroke-linejoin:miter;stroke-miterlimit:10;stroke-dasharray:none;stroke-opacity:1"
       transform="matrix(1.3333333,0,0,-1.3333333,122.12,7.568)" />
    <text
       id="text31"
       xml:space="preserve"
       transform="matrix(1.3333333,0,0,1.3333333,24.884,112.804)"><tspan
         id="tspan31"
         style="font-variant:normal;font-weight:normal;font-size:9.96264px;font-family:'Segoe UI';writing-mode:lr-tb;fill:#000000;fill-opacity:1;fill-rule:nonzero;stroke:none"
         x="0"
         y="0">Quiz</tspan></text>
    <path
       id="path31"
       d="m 77.38647,-110.55244 h 59.52805 v 11.33855 H 77.38647 Z"
       style="fill:#ffffff;fill-opacity:1;fill-rule:nonzero;stroke:#000000;stroke-width:0.3985;stroke-linecap:butt;stroke-linejoin:miter;stroke-miterlimit:10;stroke-dasharray:none;stroke-opacity:1"
       transform="matrix(1.3333333,0,0,-1.3333333,122.12,7.568)" />
    <text
       id="text32"
       xml:space="preserve"
       transform="matrix(1.3333333,0,0,1.3333333,24.884,150.59867)"><tspan
         id="tspan32"
         style="font-variant:normal;font-weight:normal;font-size:9.96264px;font-family:'Segoe UI';writing-mode:lr-tb;fill:#000000;fill-opacity:1;fill-rule:nonzero;stroke:none"
         x="0"
         dx="0 0 0 3.317559"
         y="0">Labreport</tspan></text>
    <path
       id="path32"
       d="m 61.71156,-76.53636 h 6.74155 c 0.55023,0 0.99628,-0.44604 0.99628,-0.99628 v -26.35423 c 0,-0.55025 0.44603,-0.99628 0.99627,-0.99628 l 3.15502,-1e-5"
       style="fill:none;stroke:#000000;stroke-width:0.3985;stroke-linecap:butt;stroke-linejoin:miter;stroke-miterlimit:10;stroke-dasharray:none;stroke-opacity:1"
       transform="matrix(1.3333333,0,0,-1.3333333,122.12,7.568)" />
    <path
       id="path33"
       d="M 3.58653,0 C 2.52383,0.19925 0.797,0.797 -0.3985,1.49438 V -1.49438 C 0.797,-0.797 2.52383,-0.19925 3.58653,0"
       style="fill:#000000;fill-opacity:1;fill-rule:nonzero;stroke:none"
       transform="matrix(1.3333333,0,0,-1.3333333,220.25424,147.41221)" />
    <path
       id="path34"
       d="m 232.87057,-133.22998 -0.71116,5.58675 -0.71117,-5.58675 0.71117,-5.58675 z"
       style="fill:#000000;fill-opacity:1;fill-rule:nonzero;stroke:#000000;stroke-width:0.3985;stroke-linecap:butt;stroke-linejoin:miter;stroke-miterlimit:10;stroke-dasharray:none;stroke-opacity:1"
       transform="matrix(1.3333333,0,0,-1.3333333,122.12,7.568)" />
    <text
       id="text34"
       xml:space="preserve"
       transform="matrix(1.3333333,0,0,1.3333333,24.884,188.39333)"><tspan
         id="tspan34"
         style="font-style:italic;font-variant:normal;font-weight:normal;font-size:9.96264px;font-family:'Segoe UI';writing-mode:lr-tb;fill:#000000;fill-opacity:1;fill-rule:nonzero;stroke:none"
         x="0"
         dx="0 0 0 0 3.317559"
         y="0">ExamA</tspan></text>
    <path
       id="path35"
       d="m 137.11378,-104.88316 46.03005,1e-5 c 0.55025,0 0.99627,-0.44605 0.99627,-0.99628 v -26.35427 c 0,-0.55024 0.44605,-0.99628 0.99628,-0.99628 h 42.44353"
       style="fill:none;stroke:#000000;stroke-width:0.3985;stroke-linecap:butt;stroke-linejoin:miter;stroke-miterlimit:10;stroke-dasharray:none;stroke-opacity:1"
       transform="matrix(1.3333333,0,0,-1.3333333,122.12,7.568)" />
    <path
       id="path36"
       d="M 3.58653,0 C 2.52383,0.19925 0.797,0.797 -0.3985,1.49438 V -1.49438 C 0.797,-0.797 2.52383,-0.19925 3.58653,0"
       style="fill:#000000;fill-opacity:1;fill-rule:nonzero;stroke:none"
       transform="matrix(1.3333333,0,0,-1.3333333,425.55988,185.20797)" />
    <path
       id="path37"
       d="m 284.46155,-161.57678 -0.71115,5.58673 -0.71117,-5.58673 0.71117,-5.58675 z"
       style="fill:#000000;fill-opacity:1;fill-rule:nonzero;stroke:#000000;stroke-width:0.3985;stroke-linecap:butt;stroke-linejoin:miter;stroke-miterlimit:10;stroke-dasharray:none;stroke-opacity:1"
       transform="matrix(1.3333333,0,0,-1.3333333,122.12,7.568)" />
    <text
       id="text37"
       xml:space="preserve"
       transform="matrix(1.3333333,0,0,1.3333333,24.884,226.18933)"><tspan
         id="tspan37"
         style="font-style:italic;font-variant:normal;font-weight:normal;font-size:9.96264px;font-family:'Segoe UI';writing-mode:lr-tb;fill:#000000;fill-opacity:1;fill-rule:nonzero;stroke:none"
         x="0"
         dx="0 0 0 0 3.317559"
         y="0">ExamB</tspan></text>
    <path
       id="path38"
       d="m 137.11378,-104.88316 45.61074,1e-5 c 0.55023,0 0.99628,-0.44605 0.99628,-0.99628 v -54.70106 c 0,-0.55025 0.44604,-0.99628 0.99627,-0.99628 l 94.45383,-1e-5"
       style="fill:none;stroke:#000000;stroke-width:0.3985;stroke-linecap:butt;stroke-linejoin:miter;stroke-miterlimit:10;stroke-dasharray:none;stroke-opacity:1"
       transform="matrix(1.3333333,0,0,-1.3333333,122.12,7.568)" />
    <path
       id="path39"
       d="M 3.58653,0 C 2.52383,0.19925 0.797,0.797 -0.3985,1.49438 V -1.49438 C 0.797,-0.797 2.52383,-0.19925 3.58653,0"
       style="fill:#000000;fill-opacity:1;fill-rule:nonzero;stroke:none"
       transform="matrix(1.3333333,0,0,-1.3333333,494.34787,223.00371)" />
    <path
       id="path40"
       d="M 0,-175.7502 H 299.62456"
       style="fill:none;stroke:#000000;stroke-width:0.3985;stroke-linecap:butt;stroke-linejoin:miter;stroke-miterlimit:10;stroke-dasharray:0.3985, 1.99255;stroke-dashoffset:0;stroke-opacity:1"
       transform="matrix(1.3333333,0,0,-1.3333333,122.12,7.568)" />
    <path
       id="path41"
       d="m 255.7722,-187.08875 h 28.17662 v -5.66928 l -1.98427,-2.83483 -1.98426,2.83483 h -20.23955 l -1.98427,-2.83483 -1.98427,2.83483 z"
       style="fill:#ffffff;fill-opacity:1;fill-rule:nonzero;stroke:#000000;stroke-width:0.3985;stroke-linecap:butt;stroke-linejoin:miter;stroke-miterlimit:10;stroke-dasharray:none;stroke-opacity:1"
       transform="matrix(1.3333333,0,0,-1.3333333,122.12,7.568)" />
    <text
       id="text41"
       xml:space="preserve"
       transform="matrix(1.3333333,0,0,1.3333333,11.6,263.984)"><tspan
         id="tspan41"
         style="font-variant:normal;font-weight:700;font-size:9.96264px;font-family:'Segoe UI';writing-mode:lr-tb;fill:#000000;fill-opacity:1;fill-rule:nonzero;stroke:none"
         x="0"
         dx="0 0 0 0 0 0 3.317559 0 0 -0.02988792"
         y="0">Secondattempt</tspan></text>
    <path
       id="path42"
       d="m 255.97064,-223.93968 h 9.92133 v 11.33855 h -9.92133 z"
       style="fill:#ffffff;fill-opacity:1;fill-rule:nonzero;stroke:#000000;stroke-width:0.3985;stroke-linecap:butt;stroke-linejoin:miter;stroke-miterlimit:10;stroke-dasharray:none;stroke-opacity:1"
       transform="matrix(1.3333333,0,0,-1.3333333,122.12,7.568)" />
    <text
       id="text42"
       xml:space="preserve"
       transform="matrix(1.3333333,0,0,1.3333333,24.884,301.78)"><tspan
         id="tspan42"
         style="font-variant:normal;font-weight:normal;font-size:9.96264px;font-family:'Segoe UI';writing-mode:lr-tb;fill:#000000;fill-opacity:1;fill-rule:nonzero;stroke:none"
         x="0"
         y="0">Quiz</tspan></text>
    <text
       id="text43"
       xml:space="preserve"
       transform="matrix(1.3333333,0,0,1.3333333,51.638667,304.088)"><tspan
         id="tspan43"
         style="font-variant:normal;font-weight:normal;font-size:6.97385px;font-family:'Segoe UI';writing-mode:lr-tb;fill:#000000;fill-opacity:1;fill-rule:nonzero;stroke:none"
         x="0"
         y="0">2nd</tspan></text>
    <path
       id="path43"
       d="m 233.15236,-133.22998 h 10.31323 c 0.55023,0 0.99628,-0.44605 0.99628,-0.99628 v -83.04785 c 0,-0.55025 0.44604,-0.99628 0.99628,-0.99628 l 6.72669,-1e-5"
       style="fill:none;stroke:#000000;stroke-width:0.3985;stroke-linecap:butt;stroke-linejoin:miter;stroke-miterlimit:10;stroke-dasharray:2.98883, 2.98883;stroke-dashoffset:0;stroke-opacity:1"
       transform="matrix(1.3333333,0,0,-1.3333333,122.12,7.568)" />
    <path
       id="path44"
       d="M 3.58653,0 C 2.52383,0.19925 0.797,0.797 -0.3985,1.49438 V -1.49438 C 0.797,-0.797 2.52383,-0.19925 3.58653,0"
       style="fill:#000000;fill-opacity:1;fill-rule:nonzero;stroke:none"
       transform="matrix(1.3333333,0,0,-1.3333333,458.36645,298.5952)" />
    <path
       id="path45"
       d="m 265.89198,-252.2865 h 9.92133 v 11.33855 h -9.92133 z"
       style="fill:#ffffff;fill-opacity:1;fill-rule:nonzero;stroke:#000000;stroke-width:0.3985;stroke-linecap:butt;stroke-linejoin:miter;stroke-miterlimit:10;stroke-dasharray:none;stroke-opacity:1"
       transform="matrix(1.3333333,0,0,-1.3333333,122.12,7.568)" />
    <text
       id="text45"
       xml:space="preserve"
       transform="matrix(1.3333333,0,0,1.3333333,24.884,339.57467)"><tspan
         id="tspan45"
         style="font-variant:normal;font-weight:normal;font-size:9.96264px;font-family:'Segoe UI';writing-mode:lr-tb;fill:#000000;fill-opacity:1;fill-rule:nonzero;stroke:none"
         x="0"
         dx="0 0 0 3.317559"
         y="0">Labreport</tspan></text>
    <text
       id="text46"
       xml:space="preserve"
       transform="matrix(1.3333333,0,0,1.3333333,86.408,341.88267)"><tspan
         id="tspan46"
         style="font-variant:normal;font-weight:normal;font-size:6.97385px;font-family:'Segoe UI';writing-mode:lr-tb;fill:#000000;fill-opacity:1;fill-rule:nonzero;stroke:none"
         x="0"
         y="0">2nd</tspan></text>
    <path
       id="path46"
       d="m 260.9313,-224.13893 v -21.48201 c 0,-0.55023 0.44605,-0.99628 0.99628,-0.99628 h 0.17862"
       style="fill:none;stroke:#000000;stroke-width:0.3985;stroke-linecap:butt;stroke-linejoin:miter;stroke-miterlimit:10;stroke-dasharray:none;stroke-opacity:1"
       transform="matrix(1.3333333,0,0,-1.3333333,122.12,7.568)" />
    <path
       id="path47"
       d="M 3.58653,0 C 2.52383,0.19925 0.797,0.797 -0.3985,1.49438 V -1.49438 C 0.797,-0.797 2.52383,-0.19925 3.58653,0"
       style="fill:#000000;fill-opacity:1;fill-rule:nonzero;stroke:none"
       transform="matrix(1.3333333,0,0,-1.3333333,471.59493,336.39096)" />
    <path
       id="path48"
       d="m 284.46155,-274.96404 -0.71115,5.58675 -0.71117,-5.58675 0.71117,-5.58673 z"
       style="fill:#000000;fill-opacity:1;fill-rule:nonzero;stroke:#000000;stroke-width:0.3985;stroke-linecap:butt;stroke-linejoin:miter;stroke-miterlimit:10;stroke-dasharray:none;stroke-opacity:1"
       transform="matrix(1.3333333,0,0,-1.3333333,122.12,7.568)" />
    <text
       id="text48"
       xml:space="preserve"
       transform="matrix(1.3333333,0,0,1.3333333,24.884,377.37067)"><tspan
         id="tspan48"
         style="font-style:italic;font-variant:normal;font-weight:normal;font-size:9.96264px;font-family:'Segoe UI';writing-mode:lr-tb;fill:#000000;fill-opacity:1;fill-rule:nonzero;stroke:none"
         x="0"
         dx="0 0 0 0 3.317559"
         y="0">ExamB</tspan></text>
    <path
       id="path49"
       d="m 276.01257,-246.61722 h 2.37615 c 0.55023,0 0.99628,-0.44604 0.99628,-0.99628 v -26.35424 c 0,-0.55023 0.44604,-0.99628 0.99627,-0.99628 l -1.21037,-2e-5"
       style="fill:none;stroke:#000000;stroke-width:0.3985;stroke-linecap:butt;stroke-linejoin:miter;stroke-miterlimit:10;stroke-dasharray:none;stroke-opacity:1"
       transform="matrix(1.3333333,0,0,-1.3333333,122.12,7.568)" />
    <path
       id="path50"
       d="M 3.58653,0 C 2.52383,0.19925 0.797,0.797 -0.3985,1.49438 V -1.49438 C 0.797,-0.797 2.52383,-0.19925 3.58653,0"
       style="fill:#000000;fill-opacity:1;fill-rule:nonzero;stroke:none"
       transform="matrix(1.3333333,0,0,-1.3333333,494.34787,374.18672)" />
  </g>
</svg>
