<?xml version="1.0" encoding="UTF-8" standalone="no"?>
<!-- Created with Inkscape (http://www.inkscape.org/) -->

<svg
   version="1.1"
   id="svg1"
   width="456"
   height="212"
   viewBox="0 0 456 212"
   xmlns="http://www.w3.org/2000/svg"
   xmlns:svg="http://www.w3.org/2000/svg">
  <defs
     id="defs1">
    <clipPath
       clipPathUnits="userSpaceOnUse"
       id="clipPath1">
      <path
         d="M 0,0 H 612 V 792 H 0 Z"
         transform="matrix(1,0,0,-1,-149.705,658.82902)"
         id="path1" />
    </clipPath>
    <clipPath
       clipPathUnits="userSpaceOnUse"
       id="clipPath2">
      <path
         d="M 0,0 H 122.485 V 78.65 H 0 Z"
         transform="matrix(1,0,0,-1,-25.778,67.491002)"
         id="path2" />
    </clipPath>
    <clipPath
       clipPathUnits="userSpaceOnUse"
       id="clipPath3">
      <path
         d="M 0,0 H 122.485 V 78.65 H 0 Z"
         transform="matrix(1,0,0,-1,-91.797162,67.491002)"
         id="path3" />
    </clipPath>
    <clipPath
       clipPathUnits="userSpaceOnUse"
       id="clipPath4">
      <path
         d="M 0,0 H 122.485 V 78.65 H 0 Z"
         transform="translate(-2.5000003e-7,-78.251002)"
         id="path4" />
    </clipPath>
    <clipPath
       clipPathUnits="userSpaceOnUse"
       id="clipPath5">
      <path
         d="M 0,0 H 122.485 V 78.65 H 0 Z"
         transform="translate(-76.740004,-78.251002)"
         id="path5" />
    </clipPath>
    <clipPath
       clipPathUnits="userSpaceOnUse"
       id="clipPath6">
      <path
         d="M 0,0 H 122.485 V 78.65 H 0 Z"
         transform="translate(-2.5000003e-7,-61.713002)"
         id="path6" />
    </clipPath>
    <clipPath
       clipPathUnits="userSpaceOnUse"
       id="clipPath7">
      <path
         d="M 0,0 H 122.485 V 78.65 H 0 Z"
         transform="translate(-76.740004,-61.713002)"
         id="path7" />
    </clipPath>
    <clipPath
       clipPathUnits="userSpaceOnUse"
       id="clipPath8">
      <path
         d="M 0,0 H 122.485 V 78.65 H 0 Z"
         transform="translate(-2.5000003e-7,-13.295003)"
         id="path8" />
    </clipPath>
    <clipPath
       clipPathUnits="userSpaceOnUse"
       id="clipPath9">
      <path
         d="M 0,0 H 122.485 V 78.65 H 0 Z"
         transform="translate(-76.740004,-13.295003)"
         id="path9" />
    </clipPath>
    <clipPath
       clipPathUnits="userSpaceOnUse"
       id="clipPath10">
      <path
         d="M 0,0 H 122.485 V 78.65 H 0 Z"
         transform="matrix(1,0,0,-1,-6.9739999,0)"
         id="path10" />
    </clipPath>
    <clipPath
       clipPathUnits="userSpaceOnUse"
       id="clipPath11">
      <path
         d="M 0,0 H 612 V 792 H 0 Z"
         transform="matrix(1.3333333,0,0,-1.3333333,-178.66667,890.66667)"
         id="path11" />
    </clipPath>
    <clipPath
       clipPathUnits="userSpaceOnUse"
       id="clipPath12">
      <path
         d="M 0,0 H 612 V 792 H 0 Z"
         transform="matrix(1,0,0,-1,-300.76901,659.86102)"
         id="path12" />
    </clipPath>
    <clipPath
       clipPathUnits="userSpaceOnUse"
       id="clipPath13">
      <path
         d="M 0,0 H 612 V 792 H 0 Z"
         transform="matrix(1,0,0,-1,-314.60001,642.59802)"
         id="path13" />
    </clipPath>
    <clipPath
       clipPathUnits="userSpaceOnUse"
       id="clipPath14">
      <path
         d="M 0,0 H 612 V 792 H 0 Z"
         transform="matrix(1,0,0,-1,-294.94001,626.26002)"
         id="path14" />
    </clipPath>
    <clipPath
       clipPathUnits="userSpaceOnUse"
       id="clipPath15">
      <path
         d="M 0,0 H 612 V 792 H 0 Z"
         transform="matrix(1,0,0,-1,-294.94001,610.31902)"
         id="path15" />
    </clipPath>
    <clipPath
       clipPathUnits="userSpaceOnUse"
       id="clipPath16">
      <path
         d="M 0,0 H 612 V 792 H 0 Z"
         transform="matrix(1,0,0,-1,-294.94001,594.37902)"
         id="path16" />
    </clipPath>
    <clipPath
       clipPathUnits="userSpaceOnUse"
       id="clipPath17">
      <path
         d="M 0,0 H 612 V 792 H 0 Z"
         transform="translate(-288.963,-653.35802)"
         id="path17" />
    </clipPath>
    <clipPath
       clipPathUnits="userSpaceOnUse"
       id="clipPath18">
      <path
         d="M 0,0 H 612 V 792 H 0 Z"
         transform="translate(-366.81301,-653.35802)"
         id="path18" />
    </clipPath>
    <clipPath
       clipPathUnits="userSpaceOnUse"
       id="clipPath19">
      <path
         d="M 0,0 H 612 V 792 H 0 Z"
         transform="translate(-288.963,-636.82002)"
         id="path19" />
    </clipPath>
    <clipPath
       clipPathUnits="userSpaceOnUse"
       id="clipPath20">
      <path
         d="M 0,0 H 612 V 792 H 0 Z"
         transform="translate(-366.81301,-636.82002)"
         id="path20" />
    </clipPath>
    <clipPath
       clipPathUnits="userSpaceOnUse"
       id="clipPath21">
      <path
         d="M 0,0 H 612 V 792 H 0 Z"
         transform="translate(-288.963,-588.40201)"
         id="path21" />
    </clipPath>
    <clipPath
       clipPathUnits="userSpaceOnUse"
       id="clipPath22">
      <path
         d="M 0,0 H 612 V 792 H 0 Z"
         transform="translate(-366.81301,-588.40201)"
         id="path22" />
    </clipPath>
    <clipPath
       clipPathUnits="userSpaceOnUse"
       id="clipPath23">
      <path
         d="M 0,0 H 612 V 792 H 0 Z"
         transform="matrix(1,0,0,-1,-295.93601,574.89402)"
         id="path23" />
    </clipPath>
    <clipPath
       clipPathUnits="userSpaceOnUse"
       id="clipPath24">
      <path
         d="M 0,0 H 612 V 792 H 0 Z"
         transform="matrix(1,0,0,-1,-133.768,545.07801)"
         id="path24" />
    </clipPath>
    <clipPath
       clipPathUnits="userSpaceOnUse"
       id="clipPath25">
      <path
         d="M 0,0 H 612 V 792 H 0 Z"
         transform="matrix(1,0,0,-1,-148.712,521.24101)"
         id="path25" />
    </clipPath>
    <clipPath
       clipPathUnits="userSpaceOnUse"
       id="clipPath26">
      <path
         d="M 0,0 H 612 V 792 H 0 Z"
         transform="matrix(1,0,0,-1,-148.712,509.28601)"
         id="path26" />
    </clipPath>
  </defs>
  <g
     id="g1">
    <g
       id="g47">
      <text
         xml:space="preserve"
         transform="matrix(1.3333333,0,0,1.3333333,20.94,12.228)"
         clip-path="url(#clipPath1)"
         id="text26"><tspan
           style="font-variant:normal;font-weight:normal;font-size:9.96264px;font-family:Arial;writing-mode:lr-tb;fill:#000000;fill-opacity:1;fill-rule:nonzero;stroke:none"
           x="0"
           dx="0 -1.0958904 0 0 0 2.7496886 0 0 0 0 3.6961393 0 0 0 0 0 0 0 0 0 0 0 2.7596512"
           y="0"
           id="tspan26">Table4.3a:Pre-compiledtable</tspan></text>
      <g
         clip-path="url(#clipPath11)"
         id="g35">
        <path
           d="M 2.307875,-6.6804609 C 2.2258438,-6.7976484 2.214125,-6.8093672 2.026625,-6.8093672 H 0.32740625 v 0.3164063 H 0.620375 c 0.140625,0 0.33984375,0.011719 0.4921875,0.011719 0.234375,0.035156 0.2460938,0.046875 0.2460938,0.234375 v 5.203125 c 0,0.26953126 0,0.73828126 -1.03125005,0.73828126 V -7.734375e-4 C 0.67896875,-0.01249219 1.1594375,-0.03592969 1.4992813,-0.03592969 c 0.328125,0 0.8085937,0.0234375 1.1601562,0.0351562525 V -0.30546094 c -1.03125,0 -1.03125,-0.46875 -1.03125,-0.73828126 v -5.1796875 c 0.058594,0.046875 0.070312,0.058594 0.1054688,0.1171875 l 4.0664062,5.97656251 c 0.082031,0.1171875 0.09375,0.1289062525 0.1640625,0.1289062525 0.140625,0 0.140625,-0.0703125025 0.140625,-0.2578125025 V -5.7546797 c 0,-0.2695312 0,-0.7382812 1.03125,-0.7382812 v -0.3164063 c -0.3515625,0.011719 -0.84375,0.035156 -1.171875,0.035156 -0.328125,0 -0.8203125,-0.023437 -1.1601562,-0.035156 v 0.3164063 c 1.0195312,0 1.0195312,0.46875 1.0195312,0.7382812 v 4.2539063 z m 8.481445,5.91796871 c 0.03516,0.3984375 0.304688,0.8203125 0.773438,0.8203125 0.210937,0 0.820312,-0.140625 0.820312,-0.94921875 V -1.4421797 h -0.246093 v 0.55078126 c 0,0.5859375 -0.246094,0.64453125 -0.363282,0.64453125 -0.328125,0 -0.363281,-0.45703125 -0.363281,-0.50390625 V -2.7429609 c 0,-0.4101563 0,-0.8085938 -0.363281,-1.171875 -0.386719,-0.3867188 -0.878906,-0.5507813 -1.3593752,-0.5507813 -0.8203125,0 -1.5117187,0.46875 -1.5117187,1.125 0,0.3046875 0.1992187,0.46875 0.4570312,0.46875 0.28125,0 0.46875,-0.1992187 0.46875,-0.4570312 0,-0.1171875 -0.058594,-0.4453125 -0.515625,-0.4570313 0.2695313,-0.3515625 0.7617188,-0.4570312 1.078125,-0.4570312 0.4921877,0 1.0546877,0.3867187 1.0546877,1.2773437 v 0.3632813 c -0.503906,0.035156 -1.2070314,0.058594 -1.8281252,0.3632812 -0.75,0.3398438 -0.9960937,0.8554688 -0.9960937,1.28906251 0,0.80859375 0.9609375,1.0546875 1.59375,1.0546875 0.6562499,0 1.1132809,-0.3984375 1.3007809,-0.8671875 z M 10.71901,-2.3913984 v 0.9960937 c 0,0.94921876 -0.714844,1.28906251 -1.1601564,1.28906251 -0.4921875,0 -0.9023438,-0.3515625 -0.9023438,-0.85546875 0,-0.53906246 0.421875,-1.37109376 2.0625002,-1.42968746 z m 2.835937,-1.03125 v 2.66015621 c 0,0.45703125 -0.117187,0.45703125 -0.785156,0.45703125 v 0.3046875025 c 0.351563,-0.0117187525 0.855469,-0.0351562525 1.125,-0.0351562525 0.257813,0 0.785156,0.0234375 1.113281,0.0351562525 V -0.30546094 c -0.65625,0 -0.773437,0 -0.773437,-0.45703125 V -2.5906172 c 0,-1.03125 0.714844,-1.59375 1.347656,-1.59375 0.621094,0 0.738281,0.5390625 0.738281,1.1015625 v 2.32031251 c 0,0.45703125 -0.117187,0.45703125 -0.773437,0.45703125 v 0.3046875025 c 0.339844,-0.0117187525 0.855469,-0.0351562525 1.125,-0.0351562525 0.257812,0 0.773437,0.0234375 1.113281,0.0351562525 V -0.30546094 c -0.667969,0 -0.785156,0 -0.785156,-0.45703125 V -2.5906172 c 0,-1.03125 0.714844,-1.59375 1.347656,-1.59375 0.632813,0 0.738281,0.5390625 0.738281,1.1015625 v 2.32031251 c 0,0.45703125 -0.105468,0.45703125 -0.773437,0.45703125 v 0.3046875025 c 0.351562,-0.0117187525 0.855469,-0.0351562525 1.125,-0.0351562525 0.257812,0 0.773437,0.0234375 1.113281,0.0351562525 V -0.30546094 c -0.515625,0 -0.761719,0 -0.773437,-0.3046875 V -2.5085859 c 0,-0.8554688 0,-1.171875 -0.316407,-1.5234375 -0.128906,-0.1757813 -0.46875,-0.375 -1.042968,-0.375 -0.832032,0 -1.277344,0.5976562 -1.441407,0.984375 -0.140625,-0.8671875 -0.878906,-0.984375 -1.324218,-0.984375 -0.726563,0 -1.195313,0.4335937 -1.476563,1.0546875 v -1.0546875 l -1.40625,0.1171875 v 0.3046875 c 0.703125,0 0.785156,0.070312 0.785156,0.5625 z m 8.314453,0.9140625 c 0.05859,-1.4882813 0.902344,-1.734375 1.242188,-1.734375 1.019531,0 1.125,1.3476562 1.125,1.734375 z m -0.01172,0.2109375 h 2.789062 c 0.210938,0 0.246094,0 0.246094,-0.2109375 0,-0.984375 -0.539063,-1.9570313 -1.78125,-1.9570313 -1.160156,0 -2.074219,1.03125 -2.074219,2.2734375 0,1.33593751 1.042969,2.29687501 2.191406,2.29687501 1.21875,0 1.664063,-1.1015625 1.664063,-1.28906251 0,-0.1054687 -0.08203,-0.1171875 -0.128906,-0.1171875 -0.09375,0 -0.117188,0.058594 -0.128907,0.140625 -0.351562,1.01953126 -1.253906,1.01953126 -1.347656,1.01953126 -0.503906,0 -0.902344,-0.29296875 -1.125,-0.66796875 C 21.85768,-1.2898359 21.85768,-1.9460859 21.85768,-2.2976484 Z m 0,0"
           style="fill:#000000;fill-opacity:1;fill-rule:nonzero;stroke:none"
           aria-label="Name"
           transform="matrix(1.3333333,0,0,1.3333333,63.985333,34.544)"
           clip-path="url(#clipPath2)"
           id="path27" />
        <path
           d="m 3.0123464,-1.4773359 c 0,0.91406246 -0.5039063,1.4765624625 -1.03125,1.4765624625 -0.058594,0 -0.7382813,0 -1.08984376,-0.5742187525 0.51562496,0 0.63281246,-0.3046875 0.63281246,-0.56250001 0,-0.3632812 -0.28125,-0.5625 -0.56249996,-0.5625 -0.2109375,0 -0.55078125,0.140625 -0.55078125,0.5859375 0,0.73828126 0.70312501,1.33593751 1.59375001,1.33593751 1.0195312,0 1.7460937,-0.703125 1.8515625,-1.45312501 0.011719,-0.070312 0.011719,-0.09375 0.011719,-0.4335937 v -4.4179688 c 0,-0.4101562 0.140625,-0.4101562 0.7617188,-0.4101562 v -0.3164063 c -0.4335938,0.023437 -0.8085938,0.035156 -1.2773438,0.035156 -0.421875,0 -1.3007812,0 -1.6757812,-0.035156 v 0.3164063 h 0.3515625 c 0.984375,0 0.984375,0.1289062 0.984375,0.4804687 z m 6.7939453,-0.65625 c 0,-1.2773438 -0.9960937,-2.3320313 -2.1914062,-2.3320313 -1.2539063,0 -2.2148438,1.0898438 -2.2148438,2.3320313 0,1.28906246 1.03125,2.23828121 2.203125,2.23828121 1.2070313,0 2.203125,-0.97265625 2.203125,-2.23828121 z m -2.1914062,1.99218746 c -0.4335938,0 -0.8671875,-0.2109375 -1.1367188,-0.66796875 C 6.2203542,-1.2429609 6.2203542,-1.8523359 6.2203542,-2.2156172 c 0,-0.3867187 0,-0.9257812 0.2460938,-1.359375 0.2695312,-0.4570312 0.7382812,-0.6679687 1.1367187,-0.6679687 0.4335938,0 0.8671875,0.2226562 1.125,0.6445312 0.2578125,0.4335938 0.2578125,1.0078125 0.2578125,1.3828125 0,0.3632813 0,0.9023438 -0.2226562,1.33593751 -0.2226563,0.4453125 -0.65625,0.73828125 -1.1484375,0.73828125 z M 11.813128,-3.7507734 v -3.1640625 l -1.429688,0.1054687 v 0.3164063 c 0.691406,0 0.773438,0.070312 0.773438,0.5507812 v 5.9414062625 h 0.246093 c 0.01172,-0.0117187525 0.09375,-0.1523437525 0.363282,-0.6210937525 0.152343,0.234375 0.5625,0.7265625 1.300781,0.7265625 1.183594,0 2.226562,-0.97265625 2.226562,-2.26171871 0,-1.265625 -0.972656,-2.25 -2.109375,-2.25 -0.785156,0 -1.207031,0.46875 -1.371093,0.65625 z m 0.03516,2.6132812 v -2.0507812 c 0,-0.1875 0,-0.1992188 0.105469,-0.3632813 0.386718,-0.5507812 0.9375,-0.6328125 1.171875,-0.6328125 0.457031,0 0.808593,0.2578125 1.054687,0.6328125 0.257813,0.4101563 0.28125,0.984375 0.28125,1.3945313 0,0.3632812 -0.01172,0.9609375 -0.304687,1.40624996 -0.210938,0.31640625 -0.585938,0.64453125 -1.125,0.64453125 -0.445313,0 -0.808594,-0.24609375 -1.042969,-0.609375 -0.140625,-0.2109375 -0.140625,-0.24609375 -0.140625,-0.42187501 z M -80.36949,9.8810625 c 0.07031,-0.1054688 0.07031,-0.1171875 0.07031,-0.1875 0,-0.1640625 -0.05859,-0.1640625 -0.257813,-0.1640625 h -4.464843 l -0.105469,2.25 h 0.246094 c 0.07031,-1.125 0.363281,-1.9335938 2.003906,-1.9335938 h 1.558594 l -3.867188,6.1289058 c -0.07031,0.105469 -0.07031,0.117188 -0.07031,0.199219 0,0.164063 0.04687,0.164063 0.257812,0.164063 h 4.59375 l 0.164063,-2.660157 h -0.246094 c -0.08203,1.382813 -0.269531,2.320313 -2.109375,2.320313 h -1.640625 z m 3.955079,5.6953125 c 0.03516,0.398437 0.304687,0.820312 0.773437,0.820312 0.210938,0 0.820313,-0.140625 0.820313,-0.949218 v -0.550782 h -0.246094 v 0.550782 c 0,0.585937 -0.246094,0.644531 -0.363281,0.644531 -0.328125,0 -0.363282,-0.457031 -0.363282,-0.503906 v -1.992188 c 0,-0.410156 0,-0.808594 -0.363281,-1.171875 -0.386719,-0.386719 -0.878906,-0.550781 -1.359375,-0.550781 -0.820312,0 -1.511719,0.46875 -1.511719,1.125 0,0.304687 0.199219,0.46875 0.457032,0.46875 0.28125,0 0.46875,-0.199219 0.46875,-0.457031 0,-0.117188 -0.05859,-0.445313 -0.515625,-0.457032 0.269531,-0.351562 0.761718,-0.457031 1.078125,-0.457031 0.492187,0 1.054687,0.386719 1.054687,1.277344 v 0.363281 c -0.503906,0.03516 -1.207031,0.05859 -1.828125,0.363281 -0.75,0.339844 -0.996094,0.855469 -0.996094,1.289063 0,0.808594 0.960938,1.054687 1.59375,1.054687 0.65625,0 1.113282,-0.398437 1.300782,-0.867187 z m -0.07031,-1.628906 v 0.996093 c 0,0.949219 -0.714844,1.289063 -1.160156,1.289063 -0.492188,0 -0.902344,-0.351563 -0.902344,-0.855469 0,-0.539062 0.421875,-1.371094 2.0625,-1.429687 z m 3.492188,-2.015625 -1.394532,0.117187 v 0.304688 c 0.65625,0 0.738282,0.05859 0.738282,0.550781 v 2.671875 c 0,0.457031 -0.105469,0.457031 -0.773438,0.457031 v 0.304688 c 0.316406,-0.01172 0.855469,-0.03516 1.101563,-0.03516 0.339843,0 0.691406,0.02344 1.03125,0.03516 v -0.304688 c -0.65625,0 -0.703125,-0.05859 -0.703125,-0.445312 z m 0.04687,-1.734375 c 0,-0.3164065 -0.246094,-0.527344 -0.527344,-0.527344 -0.316406,0 -0.527344,0.2695312 -0.527344,0.527344 0,0.269531 0.210938,0.527343 0.527344,0.527343 0.28125,0 0.527344,-0.199218 0.527344,-0.527343 z m 4.749023,5.589843 v 0.65625 l 1.464844,-0.105468 v -0.304688 c -0.703125,0 -0.773438,-0.07031 -0.773438,-0.5625 V 9.4240312 L -68.946638,9.5295 v 0.3164062 c 0.703125,0 0.785156,0.070312 0.785156,0.5507808 v 2.15625 c -0.292968,-0.363281 -0.726562,-0.621093 -1.265625,-0.621093 -1.171875,0 -2.214843,0.984375 -2.214843,2.261718 0,1.265625 0.972656,2.25 2.109375,2.25 0.644531,0 1.089843,-0.339843 1.335937,-0.65625 z m 0,-2.671875 v 2.050782 c 0,0.175781 0,0.199218 -0.105469,0.363281 -0.304687,0.480469 -0.75,0.703125 -1.183593,0.703125 -0.445313,0 -0.796875,-0.257813 -1.042969,-0.644531 -0.257813,-0.410157 -0.292969,-0.972657 -0.292969,-1.382813 0,-0.363281 0.02344,-0.960937 0.316406,-1.417969 0.210938,-0.304687 0.585938,-0.632812 1.125,-0.632812 0.351563,0 0.761719,0.152344 1.078125,0.597656 0.105469,0.164063 0.105469,0.1875 0.105469,0.363281 z m 9.052734,-0.949218 1.792969,-1.722657 c 0.08203,-0.08203 0.609375,-0.585937 1.417969,-0.5976558 V 9.5295 c -0.257813,0.035156 -0.585938,0.035156 -0.855469,0.035156 -0.351562,0 -0.925781,0 -1.253906,-0.035156 v 0.3164062 c 0.398437,0.011719 0.457031,0.2343748 0.457031,0.3281248 0,0.152344 -0.105469,0.257813 -0.1875,0.328125 l -3.117187,2.976563 v -3.164063 c 0,-0.363281 0.02344,-0.4687498 0.785156,-0.4687498 h 0.246094 V 9.5295 c -0.351563,0.035156 -1.089844,0.035156 -1.464844,0.035156 -0.375,0 -1.125,0 -1.476563,-0.035156 v 0.3164062 h 0.234375 c 0.773438,0 0.796875,0.1054688 0.796875,0.4687498 v 5.25 c 0,0.351563 -0.02344,0.46875 -0.796875,0.46875 h -0.234375 v 0.304688 c 0.351563,-0.03516 1.089844,-0.03516 1.464844,-0.03516 0.375,0 1.125,0 1.476563,0.03516 v -0.304688 h -0.246094 c -0.761719,0 -0.785156,-0.117187 -0.785156,-0.46875 v -1.746094 l 1.160156,-1.101562 1.804687,2.671875 c 0.05859,0.09375 0.140625,0.222656 0.140625,0.339844 0,0.304687 -0.386718,0.304687 -0.585937,0.304687 v 0.304688 c 0.351562,-0.03516 1.054687,-0.03516 1.429687,-0.03516 0.351563,0 0.726563,0.01172 1.148438,0.03516 v -0.304688 c -0.539063,0 -0.75,-0.04687 -1.054688,-0.480469 z m 4.866211,0.75 v 2.660156 c 0,0.457031 -0.117187,0.457031 -0.785156,0.457031 v 0.304688 c 0.351563,-0.01172 0.855469,-0.03516 1.125,-0.03516 0.257813,0 0.785156,0.02344 1.113281,0.03516 v -0.304688 c -0.65625,0 -0.773437,0 -0.773437,-0.457031 V 13.74825 c 0,-1.03125 0.714844,-1.59375 1.347656,-1.59375 0.621094,0 0.738281,0.539062 0.738281,1.101562 v 2.320313 c 0,0.457031 -0.117187,0.457031 -0.773437,0.457031 v 0.304688 c 0.339844,-0.01172 0.855469,-0.03516 1.125,-0.03516 0.257812,0 0.773437,0.02344 1.113281,0.03516 v -0.304688 c -0.515625,0 -0.773437,0 -0.785156,-0.304687 v -1.898438 c 0,-0.855469 0,-1.171875 -0.304688,-1.523437 -0.140625,-0.175782 -0.46875,-0.375 -1.042968,-0.375 -0.726563,0 -1.195313,0.433593 -1.476563,1.054687 v -1.054687 l -1.40625,0.117187 v 0.304688 c 0.703125,0 0.785156,0.07031 0.785156,0.5625 z m 9.120118,1.289062 c 0,-1.277344 -0.996094,-2.332031 -2.191407,-2.332031 -1.253906,0 -2.214843,1.089844 -2.214843,2.332031 0,1.289063 1.03125,2.238281 2.203125,2.238281 1.207031,0 2.203125,-0.972656 2.203125,-2.238281 z m -2.191407,1.992188 c -0.433593,0 -0.867187,-0.210938 -1.136718,-0.667969 -0.257813,-0.433594 -0.257813,-1.042969 -0.257813,-1.40625 0,-0.386719 0,-0.925781 0.246094,-1.359375 0.269531,-0.457031 0.738281,-0.667969 1.136719,-0.667969 0.433593,0 0.867187,0.222656 1.125,0.644531 0.257812,0.433594 0.257812,1.007813 0.257812,1.382813 0,0.363281 0,0.902344 -0.222656,1.335937 -0.222656,0.445313 -0.65625,0.738282 -1.148438,0.738282 z m 8.370117,-3.210938 c 0.175782,-0.492187 0.492188,-0.621094 0.84375,-0.632812 v -0.304688 c -0.222656,0.01172 -0.515625,0.02344 -0.726562,0.02344 -0.292969,0 -0.738281,-0.02344 -0.9375,-0.02344 v 0.304688 c 0.363281,0.01172 0.585937,0.1875 0.585937,0.480468 0,0.05859 0,0.08203 -0.04687,0.210938 l -0.914062,2.542969 -0.984375,-2.777344 c -0.03516,-0.117188 -0.04687,-0.140625 -0.04687,-0.1875 0,-0.269531 0.386719,-0.269531 0.585937,-0.269531 v -0.304688 c -0.292968,0 -0.796875,0.02344 -1.03125,0.02344 -0.304687,0 -0.597656,-0.01172 -0.890625,-0.02344 v 0.304688 c 0.363282,0 0.527344,0.02344 0.621094,0.152343 0.05859,0.05859 0.164063,0.351563 0.234375,0.539063 l -0.855469,2.414062 -0.949218,-2.660156 c -0.04687,-0.117187 -0.04687,-0.140625 -0.04687,-0.175781 0,-0.269531 0.386718,-0.269531 0.585937,-0.269531 v -0.304688 c -0.292969,0 -0.855469,0.02344 -1.089844,0.02344 -0.03516,0 -0.5625,-0.01172 -0.925781,-0.02344 v 0.304688 c 0.503906,0 0.621094,0.03516 0.738281,0.351562 l 1.253907,3.527344 c 0.05859,0.140625 0.08203,0.210937 0.210937,0.210937 0.128906,0 0.152344,-0.05859 0.199219,-0.199218 l 1.007812,-2.8125 1.019532,2.824218 c 0.03516,0.117188 0.07031,0.1875 0.199218,0.1875 0.128907,0 0.152344,-0.08203 0.199219,-0.1875 z M -36.189802,9.4240312 -37.61949,9.5295 v 0.3164062 c 0.703125,0 0.773438,0.070312 0.773438,0.5507808 v 5.179688 c 0,0.457031 -0.105469,0.457031 -0.773438,0.457031 v 0.304688 c 0.328125,-0.01172 0.855469,-0.03516 1.101563,-0.03516 0.257812,0 0.738281,0.02344 1.113281,0.03516 v -0.304688 c -0.667969,0 -0.785156,0 -0.785156,-0.457031 z m 2.124023,4.4062498 c 0.05859,-1.488281 0.902344,-1.734375 1.242188,-1.734375 1.019531,0 1.125,1.347656 1.125,1.734375 z m -0.01172,0.210938 h 2.789062 c 0.210938,0 0.246094,0 0.246094,-0.210938 0,-0.984375 -0.539063,-1.957031 -1.78125,-1.957031 -1.160156,0 -2.074219,1.03125 -2.074219,2.273437 0,1.335938 1.042969,2.296875 2.191406,2.296875 1.21875,0 1.664063,-1.101562 1.664063,-1.289062 0,-0.105469 -0.08203,-0.117188 -0.128906,-0.117188 -0.09375,0 -0.117188,0.05859 -0.128907,0.140625 -0.351562,1.019532 -1.253906,1.019532 -1.347656,1.019532 -0.503906,0 -0.902344,-0.292969 -1.125,-0.667969 -0.304687,-0.480469 -0.304687,-1.136719 -0.304687,-1.488281 z m 5.399414,0.363281 c 0.222656,0.03516 1.03125,0.199219 1.03125,0.914062 0,0.515625 -0.351563,0.914063 -1.125,0.914063 -0.832032,0 -1.195313,-0.574219 -1.382813,-1.417969 -0.03516,-0.128906 -0.03516,-0.175781 -0.140625,-0.175781 -0.128906,0 -0.128906,0.07031 -0.128906,0.257812 v 1.3125 c 0,0.164063 0,0.234375 0.105469,0.234375 0.05859,0 0.07031,0 0.257812,-0.199218 0.01172,-0.01172 0.01172,-0.03516 0.199219,-0.222657 0.433594,0.421875 0.878906,0.421875 1.089844,0.421875 1.148437,0 1.605468,-0.667968 1.605468,-1.382812 0,-0.527344 -0.292968,-0.820313 -0.421875,-0.949219 -0.328125,-0.316406 -0.714843,-0.398437 -1.136718,-0.46875 -0.550782,-0.117187 -1.21875,-0.246094 -1.21875,-0.820312 0,-0.351563 0.257812,-0.761719 1.113281,-0.761719 1.101562,0 1.148437,0.902344 1.171875,1.207031 0,0.09375 0.09375,0.09375 0.117187,0.09375 0.128907,0 0.128907,-0.04687 0.128907,-0.246094 v -0.996093 c 0,-0.175782 0,-0.246094 -0.117188,-0.246094 -0.04687,0 -0.07031,0 -0.199219,0.117187 -0.02344,0.04687 -0.128906,0.128907 -0.164062,0.164063 -0.375,-0.28125 -0.785156,-0.28125 -0.9375,-0.28125 -1.21875,0 -1.59375,0.667969 -1.59375,1.230469 0,0.339843 0.164062,0.621093 0.433594,0.84375 0.316406,0.257812 0.597656,0.316406 1.3125,0.457031 z M -2.4485911,9.5998125 h -6.0820313 l -0.1875,2.2382815 h 0.2460938 c 0.140625,-1.605469 0.2929687,-1.933594 1.7929687,-1.933594 0.1757813,0 0.4335938,0 0.5390625,0.023437 0.2109375,0.035156 0.2109375,0.140625 0.2109375,0.375 v 5.25 c 0,0.339843 0,0.480468 -1.0546875,0.480468 h -0.3984375 v 0.304688 c 0.4101563,-0.03516 1.4296875,-0.03516 1.8867188,-0.03516 0.4570312,0 1.4882812,0 1.8984375,0.03516 v -0.304688 h -0.3984375 c -1.0546875,0 -1.0546875,-0.140624 -1.0546875,-0.480468 v -5.25 c 0,-0.199218 0,-0.3398438 0.1875,-0.375 0.1054687,-0.023437 0.375,-0.023437 0.5625,-0.023437 1.5,0 1.6523437,0.328125 1.7929687,1.933594 h 0.2460938 z m 0.8496094,4.2304685 c 0.058594,-1.488281 0.90234372,-1.734375 1.24218747,-1.734375 1.01953125,0 1.125,1.347656 1.125,1.734375 z m -0.011719,0.210938 H 1.178362 c 0.2109375,0 0.2460938,0 0.2460938,-0.210938 0,-0.984375 -0.53906253,-1.957031 -1.78125003,-1.957031 -1.16015627,0 -2.07421877,1.03125 -2.07421877,2.273437 0,1.335938 1.0429688,2.296875 2.19140627,2.296875 1.21875,0 1.66406253,-1.101562 1.66406253,-1.289062 0,-0.105469 -0.082031,-0.117188 -0.1289063,-0.117188 -0.09375,0 -0.1171875,0.05859 -0.1289062,0.140625 -0.35156253,1.019532 -1.25390628,1.019532 -1.34765628,1.019532 -0.50390625,0 -0.90234372,-0.292969 -1.12500002,-0.667969 -0.3046875,-0.480469 -0.3046875,-1.136719 -0.3046877,-1.488281 z m 6.6416016,1.535156 c 0.035156,0.398437 0.3046875,0.820312 0.7734375,0.820312 0.2109375,0 0.8203125,-0.140625 0.8203125,-0.949218 V 14.896687 H 6.3785573 v 0.550782 c 0,0.585937 -0.2460937,0.644531 -0.3632812,0.644531 -0.328125,0 -0.3632813,-0.457031 -0.3632813,-0.503906 v -1.992188 c 0,-0.410156 0,-0.808594 -0.3632812,-1.171875 -0.3867188,-0.386719 -0.8789063,-0.550781 -1.359375,-0.550781 -0.8203125,0 -1.5117188,0.46875 -1.5117188,1.125 0,0.304687 0.1992188,0.46875 0.4570313,0.46875 0.28125,0 0.46875,-0.199219 0.46875,-0.457031 0,-0.117188 -0.058594,-0.445313 -0.515625,-0.457032 0.2695312,-0.351562 0.7617187,-0.457031 1.078125,-0.457031 0.4921875,0 1.0546875,0.386719 1.0546875,1.277344 v 0.363281 c -0.5039063,0.03516 -1.2070313,0.05859 -1.828125,0.363281 -0.75,0.339844 -0.9960938,0.855469 -0.9960938,1.289063 0,0.808594 0.9609375,1.054687 1.59375,1.054687 0.65625,0 1.1132813,-0.398437 1.3007811,-0.867187 z m -0.070312,-1.628906 v 0.996093 c 0,0.949219 -0.7148438,1.289063 -1.1601563,1.289063 -0.4921875,0 -0.9023437,-0.351563 -0.9023437,-0.855469 0,-0.539062 0.421875,-1.371094 2.0625,-1.429687 z m 2.8974609,0.222656 c 0,-1.628906 0.8203125,-2.050781 1.3476563,-2.050781 0.09375,0 0.7148437,0.01172 1.0664059,0.375 -0.4101559,0.02344 -0.4687497,0.328125 -0.4687497,0.457031 0,0.257812 0.1875,0.457031 0.4570307,0.457031 0.257813,0 0.457032,-0.164062 0.457032,-0.46875 0,-0.679687 -0.7500002,-1.066406 -1.5234377,-1.066406 -1.2421875,0 -2.15625,1.078125 -2.15625,2.308594 0,1.277343 0.984375,2.261718 2.1445313,2.261718 1.3359374,0 1.6523434,-1.195312 1.6523434,-1.289062 0,-0.105469 -0.105469,-0.105469 -0.128906,-0.105469 -0.09375,0 -0.117188,0.04687 -0.128906,0.105469 -0.292969,0.925781 -0.9375002,1.042969 -1.3125002,1.042969 -0.5273437,0 -1.40625,-0.421875 -1.40625,-2.027344 z m 4.0898432,1.40625 c 0,0.457031 -0.117187,0.457031 -0.785156,0.457031 v 0.304688 c 0.351563,-0.01172 0.855469,-0.03516 1.125,-0.03516 0.257813,0 0.785156,0.02344 1.113281,0.03516 v -0.304688 c -0.65625,0 -0.773437,0 -0.773437,-0.457031 V 13.74825 c 0,-1.03125 0.714844,-1.59375 1.347656,-1.59375 0.621094,0 0.738281,0.539062 0.738281,1.101562 v 2.320313 c 0,0.457031 -0.117187,0.457031 -0.773437,0.457031 v 0.304688 c 0.339844,-0.01172 0.855469,-0.03516 1.125,-0.03516 0.257812,0 0.773437,0.02344 1.113281,0.03516 v -0.304688 c -0.515625,0 -0.773437,0 -0.785156,-0.304687 v -1.898438 c 0,-0.855469 0,-1.171875 -0.304688,-1.523437 -0.140625,-0.175782 -0.46875,-0.375 -1.042968,-0.375 -0.84375,0 -1.277344,0.597656 -1.441407,0.984375 V 9.4240312 L 11.162737,9.5295 v 0.3164062 c 0.703125,0 0.785156,0.070312 0.785156,0.5507808 z m 5.545899,-1.746094 c 0.05859,-1.488281 0.902343,-1.734375 1.242187,-1.734375 1.019531,0 1.125,1.347656 1.125,1.734375 z m -0.01172,0.210938 h 2.789062 c 0.210938,0 0.246094,0 0.246094,-0.210938 0,-0.984375 -0.539062,-1.957031 -1.78125,-1.957031 -1.160156,0 -2.074219,1.03125 -2.074219,2.273437 0,1.335938 1.042969,2.296875 2.191407,2.296875 1.21875,0 1.664062,-1.101562 1.664062,-1.289062 0,-0.105469 -0.08203,-0.117188 -0.128906,-0.117188 -0.09375,0 -0.117188,0.05859 -0.128906,0.140625 -0.351563,1.019532 -1.253907,1.019532 -1.347657,1.019532 -0.503906,0 -0.902343,-0.292969 -1.125,-0.667969 -0.304687,-0.480469 -0.304687,-1.136719 -0.304687,-1.488281 z m 4.989258,-1.007813 v -1.101562 l -1.382813,0.117187 v 0.304688 c 0.691407,0 0.773438,0.07031 0.773438,0.5625 v 2.660156 c 0,0.457031 -0.105469,0.457031 -0.773438,0.457031 v 0.304688 c 0.386719,-0.01172 0.855469,-0.03516 1.136719,-0.03516 0.398438,0 0.867188,0 1.265625,0.03516 v -0.304688 h -0.210937 c -0.738282,0 -0.761719,-0.117187 -0.761719,-0.46875 V 14.0295 c 0,-0.984375 0.421875,-1.875 1.183594,-1.875 0.05859,0 0.08203,0 0.105468,0.01172 -0.03516,0.01172 -0.234375,0.128906 -0.234375,0.386718 0,0.28125 0.210938,0.433594 0.433594,0.433594 0.175781,0 0.421875,-0.128906 0.421875,-0.445312 0,-0.316407 -0.304687,-0.609375 -0.726562,-0.609375 -0.738282,0 -1.089844,0.667968 -1.230469,1.101561 z m -102.18457,13.22168 c 0,-0.363281 0.02344,-0.46875 0.785157,-0.46875 h 0.246093 V 25.46993 c -0.351562,0.03516 -1.089843,0.03516 -1.464843,0.03516 -0.386719,0 -1.125,0 -1.476563,-0.03516 v 0.316406 h 0.234375 c 0.773438,0 0.785156,0.105469 0.785156,0.46875 v 2.332031 h -2.976562 v -2.332031 c 0,-0.363281 0.02344,-0.46875 0.785156,-0.46875 h 0.246094 V 25.46993 c -0.351563,0.03516 -1.089844,0.03516 -1.464844,0.03516 -0.375,0 -1.125,0 -1.476562,-0.03516 v 0.316406 h 0.234375 c 0.773437,0 0.796875,0.105469 0.796875,0.46875 v 5.25 c 0,0.351562 -0.02344,0.46875 -0.796875,0.46875 h -0.234375 v 0.304687 c 0.351562,-0.03516 1.089843,-0.03516 1.464843,-0.03516 0.375,0 1.125,0 1.476563,0.03516 v -0.304687 h -0.246094 c -0.761719,0 -0.785156,-0.117188 -0.785156,-0.46875 v -2.613281 h 2.976562 v 2.613281 c 0,0.351562 -0.01172,0.46875 -0.785156,0.46875 h -0.234375 v 0.304687 c 0.351563,-0.03516 1.089844,-0.03516 1.464844,-0.03516 0.375,0 1.125,0 1.476562,0.03516 v -0.304687 h -0.246093 c -0.761719,0 -0.785157,-0.117188 -0.785157,-0.46875 z m 4.681641,5.261719 c 0.03516,0.398437 0.304688,0.820312 0.773438,0.820312 0.210937,0 0.820312,-0.140625 0.820312,-0.949219 v -0.550781 h -0.246094 v 0.550781 c 0,0.585938 -0.246093,0.644532 -0.363281,0.644532 -0.328125,0 -0.363281,-0.457032 -0.363281,-0.503907 v -1.992187 c 0,-0.410156 0,-0.808594 -0.363281,-1.171875 -0.386719,-0.386719 -0.878907,-0.550781 -1.359375,-0.550781 -0.820313,0 -1.511719,0.46875 -1.511719,1.125 0,0.304687 0.199219,0.46875 0.457031,0.46875 0.28125,0 0.46875,-0.199219 0.46875,-0.457032 0,-0.117187 -0.05859,-0.445312 -0.515625,-0.457031 0.269531,-0.351562 0.761719,-0.457031 1.078125,-0.457031 0.492188,0 1.054688,0.386719 1.054688,1.277344 v 0.363281 c -0.503907,0.03516 -1.207032,0.05859 -1.828125,0.363281 -0.75,0.339844 -0.996094,0.855469 -0.996094,1.289063 0,0.808593 0.960937,1.054687 1.59375,1.054687 0.65625,0 1.113281,-0.398437 1.300781,-0.867187 z m -0.07031,-1.628907 v 0.996094 c 0,0.949219 -0.714844,1.289063 -1.160157,1.289063 -0.492187,0 -0.902343,-0.351563 -0.902343,-0.855469 0,-0.539063 0.421875,-1.371094 2.0625,-1.429688 z m 5.592773,-0.960937 c 0.257813,-0.621094 0.761719,-0.632813 0.925781,-0.632813 v -0.304687 c -0.234375,0.01172 -0.515625,0.02344 -0.75,0.02344 -0.175781,0 -0.644531,-0.02344 -0.867187,-0.02344 v 0.304687 c 0.304687,0.01172 0.46875,0.175782 0.46875,0.433594 0,0.09375 -0.01172,0.117188 -0.05859,0.234375 l -1.007812,2.449219 -1.101563,-2.683594 c -0.04687,-0.09375 -0.05859,-0.140625 -0.05859,-0.175781 0,-0.257813 0.363282,-0.257813 0.550782,-0.257813 v -0.304687 c -0.257813,0 -0.914063,0.02344 -1.078125,0.02344 -0.269532,0 -0.667969,-0.01172 -0.972657,-0.02344 v 0.304687 c 0.480469,0 0.667969,0 0.808594,0.351563 l 1.5,3.632812 c -0.05859,0.128907 -0.199219,0.457032 -0.257812,0.585938 -0.210938,0.550781 -0.492188,1.242187 -1.136719,1.242187 -0.04687,0 -0.269531,0 -0.46875,-0.1875 0.316406,-0.03516 0.398437,-0.257812 0.398437,-0.410156 0,-0.269531 -0.199218,-0.421875 -0.421875,-0.421875 -0.199218,0 -0.421875,0.128906 -0.421875,0.421875 0,0.457031 0.421875,0.808594 0.914063,0.808594 0.632812,0 1.042969,-0.5625 1.277344,-1.136719 z m 2.879883,-3.5625 -1.429688,0.105469 v 0.316406 c 0.703125,0 0.773438,0.07031 0.773438,0.550781 v 5.179688 c 0,0.457031 -0.105469,0.457031 -0.773438,0.457031 v 0.304687 c 0.328125,-0.01172 0.855469,-0.03516 1.101563,-0.03516 0.257812,0 0.738281,0.02344 1.113281,0.03516 v -0.304687 c -0.667969,0 -0.785156,0 -0.785156,-0.457031 z m 2.124023,4.40625 c 0.05859,-1.488281 0.902344,-1.734375 1.242188,-1.734375 1.019531,0 1.125,1.347656 1.125,1.734375 z m -0.01172,0.210937 h 2.789062 c 0.210938,0 0.246094,0 0.246094,-0.210937 0,-0.984375 -0.539063,-1.957031 -1.78125,-1.957031 -1.160156,0 -2.074219,1.03125 -2.074219,2.273437 0,1.335938 1.042969,2.296875 2.191406,2.296875 1.21875,0 1.664063,-1.101562 1.664063,-1.289062 0,-0.105469 -0.08203,-0.117188 -0.128906,-0.117188 -0.09375,0 -0.117188,0.05859 -0.128907,0.140625 -0.351562,1.019531 -1.253906,1.019531 -1.347656,1.019531 -0.503906,0 -0.902344,-0.292968 -1.125,-0.667968 -0.304687,-0.480469 -0.304687,-1.136719 -0.304687,-1.488282 z m 7.461914,-1.054687 c 0.257812,-0.621094 0.761718,-0.632813 0.925781,-0.632813 v -0.304687 c -0.234375,0.01172 -0.515625,0.02344 -0.75,0.02344 -0.175781,0 -0.644531,-0.02344 -0.867188,-0.02344 v 0.304687 c 0.304688,0.01172 0.46875,0.175782 0.46875,0.433594 0,0.09375 -0.01172,0.117188 -0.05859,0.234375 l -1.007813,2.449219 -1.101562,-2.683594 c -0.04687,-0.09375 -0.05859,-0.140625 -0.05859,-0.175781 0,-0.257813 0.363281,-0.257813 0.550781,-0.257813 v -0.304687 c -0.257812,0 -0.914062,0.02344 -1.078125,0.02344 -0.269531,0 -0.667969,-0.01172 -0.972656,-0.02344 v 0.304687 c 0.480469,0 0.667969,0 0.808594,0.351563 l 1.5,3.632812 c -0.05859,0.128907 -0.199219,0.457032 -0.257813,0.585938 -0.210937,0.550781 -0.492187,1.242187 -1.136719,1.242187 -0.04687,0 -0.269531,0 -0.46875,-0.1875 0.316407,-0.03516 0.398438,-0.257812 0.398438,-0.410156 0,-0.269531 -0.199219,-0.421875 -0.421875,-0.421875 -0.199219,0 -0.421875,0.128906 -0.421875,0.421875 0,0.457031 0.421875,0.808594 0.914062,0.808594 0.632813,0 1.042969,-0.5625 1.277344,-1.136719 z m 5.012695,-0.05859 c 0,2.0625 1.605469,3.632813 3.457031,3.632813 1.628906,0 2.601563,-1.382813 2.601563,-2.542969 0,-0.105469 0,-0.175781 -0.128907,-0.175781 -0.105468,0 -0.105468,0.07031 -0.117187,0.164062 -0.08203,1.429688 -1.148438,2.238281 -2.226563,2.238281 -0.609375,0 -2.566406,-0.339843 -2.566406,-3.304687 0,-2.976563 1.945313,-3.316406 2.554688,-3.316406 1.078125,0 1.96875,0.902343 2.167968,2.367187 0.02344,0.128906 0.02344,0.164063 0.164063,0.164063 0.152344,0 0.152344,-0.03516 0.152344,-0.234375 v -2.367188 c 0,-0.164062 0,-0.234375 -0.105469,-0.234375 -0.03516,0 -0.08203,0 -0.164063,0.117188 l -0.492187,0.738281 c -0.375,-0.363281 -0.878906,-0.855469 -1.839844,-0.855469 -1.863281,0 -3.457031,1.582031 -3.457031,3.609375 z m 11.320312,1.277344 c 0,-1.277344 -0.996093,-2.332031 -2.191406,-2.332031 -1.253906,0 -2.214844,1.089843 -2.214844,2.332031 0,1.289062 1.03125,2.238281 2.203125,2.238281 1.207032,0 2.203125,-0.972656 2.203125,-2.238281 z m -2.191406,1.992187 c -0.433594,0 -0.867187,-0.210937 -1.136719,-0.667968 -0.257812,-0.433594 -0.257812,-1.042969 -0.257812,-1.40625 0,-0.386719 0,-0.925782 0.246094,-1.359375 0.269531,-0.457032 0.738281,-0.667969 1.136718,-0.667969 0.433594,0 0.867188,0.222656 1.125,0.644531 0.257813,0.433594 0.257813,1.007813 0.257813,1.382813 0,0.363281 0,0.902343 -0.222656,1.335937 -0.222657,0.445313 -0.65625,0.738281 -1.148438,0.738281 z m 3.585938,-3.28125 v 2.660157 c 0,0.457031 -0.117188,0.457031 -0.785157,0.457031 v 0.304687 c 0.351563,-0.01172 0.855469,-0.03516 1.125,-0.03516 0.257813,0 0.785157,0.02344 1.113282,0.03516 V 31.97384 c -0.65625,0 -0.773438,0 -0.773438,-0.457031 V 29.68868 c 0,-1.03125 0.714844,-1.59375 1.347656,-1.59375 0.621094,0 0.738282,0.539062 0.738282,1.101562 v 2.320313 c 0,0.457031 -0.117188,0.457031 -0.773438,0.457031 v 0.304687 c 0.339844,-0.01172 0.855469,-0.03516 1.125,-0.03516 0.257813,0 0.773438,0.02344 1.113281,0.03516 v -0.304687 c -0.515625,0 -0.773437,0 -0.785156,-0.304688 v -1.898437 c 0,-0.855469 0,-1.171875 -0.304687,-1.523438 -0.140625,-0.175781 -0.46875,-0.375 -1.042969,-0.375 -0.726563,0 -1.195313,0.433594 -1.476563,1.054688 v -1.054688 l -1.40625,0.117188 v 0.304687 c 0.703125,0 0.785157,0.07031 0.785157,0.5625 z m 5.52539,0 v 2.660157 c 0,0.457031 -0.117187,0.457031 -0.785156,0.457031 v 0.304687 c 0.351563,-0.01172 0.855469,-0.03516 1.125,-0.03516 0.257813,0 0.785156,0.02344 1.113281,0.03516 V 31.97384 c -0.65625,0 -0.773437,0 -0.773437,-0.457031 V 29.68868 c 0,-1.03125 0.714844,-1.59375 1.347656,-1.59375 0.621094,0 0.738281,0.539062 0.738281,1.101562 v 2.320313 c 0,0.457031 -0.117187,0.457031 -0.773437,0.457031 v 0.304687 c 0.339844,-0.01172 0.855469,-0.03516 1.125,-0.03516 0.257812,0 0.773437,0.02344 1.113281,0.03516 v -0.304687 c -0.515625,0 -0.773437,0 -0.785156,-0.304688 v -1.898437 c 0,-0.855469 0,-1.171875 -0.304688,-1.523438 -0.140625,-0.175781 -0.46875,-0.375 -1.042968,-0.375 -0.726563,0 -1.195313,0.433594 -1.476563,1.054688 v -1.054688 l -1.40625,0.117188 v 0.304687 c 0.703125,0 0.785156,0.07031 0.785156,0.5625 z m 5.545899,0.914063 c 0.05859,-1.488281 0.902343,-1.734375 1.242187,-1.734375 1.019531,0 1.125,1.347656 1.125,1.734375 z m -0.01172,0.210937 h 2.789062 c 0.210938,0 0.246094,0 0.246094,-0.210937 0,-0.984375 -0.539062,-1.957031 -1.78125,-1.957031 -1.160156,0 -2.074219,1.03125 -2.074219,2.273437 0,1.335938 1.042969,2.296875 2.191407,2.296875 1.21875,0 1.664062,-1.101562 1.664062,-1.289062 0,-0.105469 -0.08203,-0.117188 -0.128906,-0.117188 -0.09375,0 -0.117188,0.05859 -0.128906,0.140625 -0.351563,1.019531 -1.253907,1.019531 -1.347657,1.019531 -0.503906,0 -0.902343,-0.292968 -1.125,-0.667968 -0.304687,-0.480469 -0.304687,-1.136719 -0.304687,-1.488282 z m 5.000977,-1.007812 v -1.101563 l -1.382813,0.117188 v 0.304687 c 0.691406,0 0.773438,0.07031 0.773438,0.5625 v 2.660157 c 0,0.457031 -0.105469,0.457031 -0.773438,0.457031 v 0.304687 c 0.386719,-0.01172 0.855469,-0.03516 1.136719,-0.03516 0.398437,0 0.867187,0 1.265625,0.03516 V 31.97384 h -0.210938 c -0.738281,0 -0.761718,-0.117188 -0.761718,-0.46875 v -1.53516 c 0,-0.984375 0.421875,-1.875 1.183593,-1.875 0.05859,0 0.08203,0 0.105469,0.01172 -0.03516,0.01172 -0.234375,0.128907 -0.234375,0.386719 0,0.28125 0.210938,0.433594 0.433594,0.433594 0.175781,0 0.421875,-0.128906 0.421875,-0.445313 0,-0.316406 -0.304688,-0.609375 -0.726563,-0.609375 -0.738281,0 -1.089843,0.667969 -1.230468,1.101563 z m 14.5341802,-3.50391 v 0.316406 h 0.234375 c 0.7734375,0 0.7851563,0.105469 0.7851563,0.46875 v 5.25 c 0,0.351562 -0.011719,0.46875 -0.7851563,0.46875 h -0.234375 v 0.304687 h 3.6445313 c 1.6757812,0 3.046875,-1.476562 3.046875,-3.351562 0,-1.886719 -1.3476563,-3.457031 -3.046875,-3.457031 z m 2.3671875,6.503906 c -0.46875,0 -0.4921875,-0.07031 -0.4921875,-0.398438 v -5.390625 c 0,-0.328125 0.023437,-0.398437 0.4921875,-0.398437 h 0.9960938 c 0.6210937,0 1.3007812,0.210937 1.8164062,0.925781 0.421875,0.585938 0.515625,1.441406 0.515625,2.214844 0,1.113281 -0.1875,1.710937 -0.5507812,2.191406 -0.1992188,0.269531 -0.7617188,0.855469 -1.7695313,0.855469 z m 9.5800781,-1.828125 c 0,-1.277344 -0.9960937,-2.332031 -2.1914062,-2.332031 -1.25390627,0 -2.2148438,1.089843 -2.2148438,2.332031 0,1.289062 1.03125003,2.238281 2.203125,2.238281 1.2070313,0 2.203125,-0.972656 2.203125,-2.238281 z m -2.1914062,1.992187 c -0.43359377,0 -0.86718752,-0.210937 -1.13671877,-0.667968 -0.2578125,-0.433594 -0.2578125,-1.042969 -0.2578125,-1.40625 0,-0.386719 0,-0.925782 0.24609375,-1.359375 0.26953125,-0.457032 0.73828125,-0.667969 1.13671872,-0.667969 0.4335938,0 0.8671875,0.222656 1.125,0.644531 0.2578125,0.433594 0.2578125,1.007813 0.2578125,1.382813 0,0.363281 0,0.902343 -0.2226562,1.335937 -0.2226563,0.445313 -0.65625,0.738281 -1.1484375,0.738281 z m 3.9228515,-2.027343 c 0,-1.628907 0.8203125,-2.050782 1.3476563,-2.050782 0.09375,0 0.7148437,0.01172 1.0664062,0.375 -0.4101562,0.02344 -0.46875,0.328125 -0.46875,0.457032 0,0.257812 0.1875,0.457031 0.4570313,0.457031 0.2578125,0 0.4570312,-0.164063 0.4570312,-0.46875 0,-0.679688 -0.75,-1.066406 -1.5234375,-1.066406 -1.2421875,0 -2.15625,1.078125 -2.15625,2.308593 0,1.277344 0.984375,2.261719 2.1445313,2.261719 1.3359375,0 1.6523437,-1.195312 1.6523437,-1.289062 0,-0.105469 -0.1054687,-0.105469 -0.1289062,-0.105469 -0.09375,0 -0.1171875,0.04687 -0.1289063,0.105469 -0.2929687,0.925781 -0.9375,1.042968 -1.3125,1.042968 -0.5273437,0 -1.40625,-0.421875 -1.40625,-2.027343 z M 9.935198,28.294148 h 1.429687 V 27.989461 H 9.935198 V 26.149617 H 9.6891042 C 9.6773855,26.96993 9.372698,28.036336 8.4000417,28.071492 v 0.222656 h 0.84375 v 2.753907 c 0,1.21875 0.9257813,1.335937 1.2890623,1.335937 0.703125,0 0.984375,-0.703125 0.984375,-1.335937 v -0.574219 h -0.246094 v 0.550781 c 0,0.738281 -0.304687,1.113281 -0.667968,1.113281 -0.667969,0 -0.667969,-0.902343 -0.667969,-1.078125 z m 6.84082,1.851563 c 0,-1.277344 -0.996093,-2.332031 -2.191406,-2.332031 -1.253906,0 -2.214844,1.089843 -2.214844,2.332031 0,1.289062 1.03125,2.238281 2.203125,2.238281 1.207032,0 2.203125,-0.972656 2.203125,-2.238281 z m -2.191406,1.992187 c -0.433594,0 -0.867187,-0.210937 -1.136719,-0.667968 -0.257812,-0.433594 -0.257812,-1.042969 -0.257812,-1.40625 0,-0.386719 0,-0.925782 0.246094,-1.359375 0.269531,-0.457032 0.738281,-0.667969 1.136718,-0.667969 0.433594,0 0.867188,0.222656 1.125,0.644531 0.257813,0.433594 0.257813,1.007813 0.257813,1.382813 0,0.363281 0,0.902343 -0.222656,1.335937 -0.222657,0.445313 -0.65625,0.738281 -1.148438,0.738281 z m 4.148438,-3.164062 v -1.101563 l -1.382813,0.117188 v 0.304687 c 0.691406,0 0.773438,0.07031 0.773438,0.5625 v 2.660157 c 0,0.457031 -0.105469,0.457031 -0.773438,0.457031 v 0.304687 c 0.386719,-0.01172 0.855469,-0.03516 1.136719,-0.03516 0.398437,0 0.867187,0 1.265625,0.03516 v -0.304687 h -0.210938 c -0.738281,0 -0.761718,-0.117188 -0.761718,-0.46875 V 29.96993 c 0,-0.984375 0.421875,-1.875 1.183593,-1.875 0.05859,0 0.08203,0 0.105469,0.01172 -0.03516,0.01172 -0.234375,0.128907 -0.234375,0.386719 0,0.28125 0.210938,0.433594 0.433594,0.433594 0.175781,0 0.421875,-0.128906 0.421875,-0.445313 0,-0.316406 -0.304688,-0.609375 -0.726563,-0.609375 -0.738281,0 -1.089843,0.667969 -1.230468,1.101563 z m -101.07129,15.37793 -1.277343,-0.304688 c -0.621094,-0.152344 -1.007813,-0.691406 -1.007813,-1.265625 0,-0.703125 0.539063,-1.300781 1.3125,-1.300781 1.664063,0 1.886719,1.628906 1.945313,2.074219 0.01172,0.05859 0.01172,0.117187 0.117187,0.117187 0.128906,0 0.128906,-0.04687 0.128906,-0.234375 v -2.003906 c 0,-0.164063 0,-0.234375 -0.105468,-0.234375 -0.07031,0 -0.08203,0.01172 -0.152344,0.128906 l -0.351563,0.5625 c -0.292968,-0.28125 -0.703125,-0.691406 -1.59375,-0.691406 -1.101562,0 -1.933593,0.878906 -1.933593,1.933594 0,0.820312 0.527343,1.546875 1.300781,1.816406 0.105469,0.04687 0.621094,0.164062 1.3125,0.328125 0.269531,0.07031 0.574219,0.140625 0.84375,0.515625 0.210937,0.257812 0.316406,0.585937 0.316406,0.914062 0,0.703125 -0.503906,1.417969 -1.335937,1.417969 -0.292969,0 -1.042969,-0.04687 -1.570313,-0.539062 -0.585937,-0.527344 -0.609375,-1.171875 -0.621094,-1.523438 -0.01172,-0.105469 -0.09375,-0.105469 -0.117187,-0.105469 -0.128906,0 -0.128906,0.07031 -0.128906,0.246094 v 1.992188 c 0,0.175781 0,0.246093 0.105468,0.246093 0.07031,0 0.08203,-0.02344 0.152344,-0.128906 0,-0.01172 0.02344,-0.04687 0.351563,-0.574219 0.316406,0.339844 0.949218,0.703125 1.839843,0.703125 1.160157,0 1.957032,-0.984375 1.957032,-2.074218 0,-0.996094 -0.65625,-1.816407 -1.488282,-2.015625 z m 5.944336,3.082031 v 0.890625 l 1.441407,-0.105469 v -0.304687 c -0.703125,0 -0.785157,-0.07031 -0.785157,-0.5625 v -3.539063 l -1.453125,0.117188 v 0.304687 c 0.691407,0 0.773438,0.07031 0.773438,0.5625 v 1.769531 c 0,0.867188 -0.480469,1.546875 -1.207031,1.546875 -0.832032,0 -0.878907,-0.46875 -0.878907,-0.996093 v -3.304688 l -1.464843,0.117188 v 0.304687 c 0.785156,0 0.785156,0.03516 0.785156,0.914063 v 1.5 c 0,0.773437 0,1.675781 1.511719,1.675781 0.550781,0 0.996093,-0.269531 1.277343,-0.890625 z m 3.720704,-1.148438 c 0.222656,0.03516 1.03125,0.199219 1.03125,0.914063 0,0.515625 -0.351563,0.914062 -1.125,0.914062 -0.832032,0 -1.195313,-0.574218 -1.382813,-1.417968 -0.03516,-0.128907 -0.03516,-0.175782 -0.140625,-0.175782 -0.128906,0 -0.128906,0.07031 -0.128906,0.257813 v 1.3125 c 0,0.164062 0,0.234375 0.105469,0.234375 0.05859,0 0.07031,0 0.257812,-0.199219 0.01172,-0.01172 0.01172,-0.03516 0.199219,-0.222656 0.433594,0.421875 0.878906,0.421875 1.089844,0.421875 1.148437,0 1.605468,-0.667969 1.605468,-1.382813 0,-0.527343 -0.292968,-0.820312 -0.421875,-0.949218 -0.328125,-0.316407 -0.714843,-0.398438 -1.136718,-0.46875 -0.550782,-0.117188 -1.21875,-0.246094 -1.21875,-0.820313 0,-0.351562 0.257812,-0.761719 1.113281,-0.761719 1.101562,0 1.148437,0.902344 1.171875,1.207032 0,0.09375 0.09375,0.09375 0.117187,0.09375 0.128907,0 0.128907,-0.04687 0.128907,-0.246094 v -0.996094 c 0,-0.175781 0,-0.246094 -0.117188,-0.246094 -0.04687,0 -0.07031,0 -0.199219,0.117188 -0.02344,0.04687 -0.128906,0.128906 -0.164062,0.164062 -0.375,-0.28125 -0.785156,-0.28125 -0.9375,-0.28125 -1.21875,0 -1.59375,0.667969 -1.59375,1.230469 0,0.339844 0.164062,0.621094 0.433594,0.84375 0.316406,0.257813 0.597656,0.316406 1.3125,0.457031 z m 5.170898,1.171875 c 0.03516,0.398438 0.304687,0.820313 0.773437,0.820313 0.210938,0 0.820313,-0.140625 0.820313,-0.949219 v -0.550781 h -0.246094 v 0.550781 c 0,0.585938 -0.246094,0.644531 -0.363281,0.644531 -0.328125,0 -0.363281,-0.457031 -0.363281,-0.503906 v -1.992187 c 0,-0.410157 0,-0.808594 -0.363282,-1.171875 -0.386718,-0.386719 -0.878906,-0.550782 -1.359375,-0.550782 -0.820312,0 -1.511718,0.46875 -1.511718,1.125 0,0.304688 0.199218,0.46875 0.457031,0.46875 0.28125,0 0.46875,-0.199218 0.46875,-0.457031 0,-0.117187 -0.05859,-0.445312 -0.515625,-0.457031 0.269531,-0.351563 0.761719,-0.457031 1.078125,-0.457031 0.492187,0 1.054687,0.386718 1.054687,1.277343 v 0.363282 c -0.503906,0.03516 -1.207031,0.05859 -1.828125,0.363281 -0.75,0.339844 -0.996093,0.855469 -0.996093,1.289062 0,0.808594 0.960937,1.054688 1.59375,1.054688 0.65625,0 1.113281,-0.398438 1.300781,-0.867188 z m -0.07031,-1.628906 v 0.996094 c 0,0.949219 -0.714843,1.289062 -1.160156,1.289062 -0.492187,0 -0.902344,-0.351562 -0.902344,-0.855468 0,-0.539063 0.421875,-1.371094 2.0625,-1.429688 z m 2.835938,-1.03125 v 2.660156 c 0,0.457032 -0.117188,0.457032 -0.785156,0.457032 v 0.304687 c 0.351562,-0.01172 0.855468,-0.03516 1.125,-0.03516 0.257812,0 0.785156,0.02344 1.113281,0.03516 v -0.304687 c -0.65625,0 -0.773438,0 -0.773438,-0.457032 v -1.828125 c 0,-1.03125 0.714844,-1.59375 1.347657,-1.59375 0.621093,0 0.738281,0.539063 0.738281,1.101563 v 2.320312 c 0,0.457032 -0.117188,0.457032 -0.773438,0.457032 v 0.304687 c 0.339844,-0.01172 0.855469,-0.03516 1.125,-0.03516 0.257813,0 0.773438,0.02344 1.113282,0.03516 v -0.304687 c -0.515625,0 -0.773438,0 -0.785157,-0.304688 v -1.898437 c 0,-0.855469 0,-1.171875 -0.304687,-1.523438 -0.140625,-0.175781 -0.46875,-0.375 -1.042969,-0.375 -0.726562,0 -1.195312,0.433594 -1.476562,1.054688 v -1.054688 l -1.40625,0.117188 v 0.304687 c 0.703125,0 0.785156,0.07031 0.785156,0.5625 z m 16.810547,-2.402344 c 0.175781,-0.574218 0.609375,-0.667968 0.996094,-0.667968 v -0.316407 c -0.304688,0.02344 -0.609375,0.03516 -0.914063,0.03516 -0.28125,0 -0.925781,-0.02344 -1.183594,-0.03516 v 0.316407 c 0.667969,0.01172 0.867188,0.339843 0.867188,0.527343 0,0.05859 -0.02344,0.140625 -0.04687,0.199219 l -1.5,4.605469 -1.59375,-4.886719 c 0,-0.03516 -0.02344,-0.09375 -0.02344,-0.152344 0,-0.292968 0.574219,-0.292968 0.832032,-0.292968 v -0.316407 c -0.351563,0.03516 -1.03125,0.03516 -1.40625,0.03516 -0.386719,0 -0.808594,-0.02344 -1.21875,-0.03516 v 0.316407 c 0.5625,0 0.773437,0 0.890625,0.351562 l 0.222656,0.703125 -1.382813,4.277344 -1.605468,-4.910156 c -0.01172,-0.02344 -0.02344,-0.09375 -0.02344,-0.128907 0,-0.292968 0.585938,-0.292968 0.84375,-0.292968 v -0.316407 c -0.363281,0.03516 -1.042969,0.03516 -1.417969,0.03516 -0.375,0 -0.808593,-0.02344 -1.21875,-0.03516 v 0.316407 c 0.75,0 0.785157,0.04687 0.914063,0.410156 l 1.992187,6.117187 c 0.02344,0.08203 0.05859,0.1875 0.1875,0.1875 0.140625,0 0.152344,-0.07031 0.199219,-0.199218 l 1.640625,-5.0625 1.652344,5.074218 c 0.03516,0.08203 0.05859,0.1875 0.1875,0.1875 0.140625,0 0.164062,-0.07031 0.199219,-0.199218 z m 5.041992,3.691407 c 0,-1.277344 -0.996094,-2.332032 -2.191406,-2.332032 -1.253906,0 -2.214844,1.089844 -2.214844,2.332032 0,1.289062 1.03125,2.238281 2.203125,2.238281 1.207031,0 2.203125,-0.972656 2.203125,-2.238281 z m -2.191406,1.992187 c -0.433594,0 -0.867188,-0.210937 -1.136719,-0.667969 -0.257812,-0.433593 -0.257812,-1.042968 -0.257812,-1.40625 0,-0.386718 0,-0.925781 0.246093,-1.359375 0.269532,-0.457031 0.738282,-0.667968 1.136719,-0.667968 0.433594,0 0.867188,0.222656 1.125,0.644531 0.257813,0.433594 0.257813,1.007812 0.257813,1.382812 0,0.363282 0,0.902344 -0.222657,1.335938 -0.222656,0.445312 -0.65625,0.738281 -1.148437,0.738281 z m 7.450195,-1.992187 c 0,-1.277344 -0.996094,-2.332032 -2.191406,-2.332032 -1.253906,0 -2.214844,1.089844 -2.214844,2.332032 0,1.289062 1.03125,2.238281 2.203125,2.238281 1.207031,0 2.203125,-0.972656 2.203125,-2.238281 z m -2.191406,1.992187 c -0.433594,0 -0.867188,-0.210937 -1.136719,-0.667969 -0.257812,-0.433593 -0.257812,-1.042968 -0.257812,-1.40625 0,-0.386718 0,-0.925781 0.246093,-1.359375 0.269532,-0.457031 0.738282,-0.667968 1.136719,-0.667968 0.433594,0 0.867188,0.222656 1.125,0.644531 0.257813,0.433594 0.257813,1.007812 0.257813,1.382812 0,0.363282 0,0.902344 -0.222657,1.335938 -0.222656,0.445312 -0.65625,0.738281 -1.148437,0.738281 z m 6.539062,-0.410156 v 0.65625 l 1.464844,-0.105469 v -0.304687 c -0.703125,0 -0.773437,-0.07031 -0.773437,-0.5625 v -6.046875 l -1.441407,0.105468 v 0.316407 c 0.703125,0 0.785157,0.07031 0.785157,0.550781 v 2.15625 c -0.292969,-0.363281 -0.726563,-0.621094 -1.265625,-0.621094 -1.171875,0 -2.214844,0.984375 -2.214844,2.261719 0,1.265625 0.972656,2.25 2.109375,2.25 0.644531,0 1.089844,-0.339844 1.335937,-0.65625 z m 0,-2.671875 v 2.050781 c 0,0.175781 0,0.199219 -0.105468,0.363281 -0.304688,0.480469 -0.75,0.703125 -1.183594,0.703125 -0.445313,0 -0.796875,-0.257812 -1.042969,-0.644531 -0.257812,-0.410156 -0.292969,-0.972656 -0.292969,-1.382812 0,-0.363282 0.02344,-0.960938 0.316407,-1.417969 0.210937,-0.304688 0.585937,-0.632813 1.125,-0.632813 0.351562,0 0.761718,0.152344 1.078125,0.597657 0.105468,0.164062 0.105468,0.1875 0.105468,0.363281 z m 24.5478519,-3.585938 v 0.316407 h 0.234375 c 0.7734375,0 0.7851562,0.105468 0.7851562,0.46875 v 5.25 c 0,0.351562 -0.011719,0.46875 -0.7851562,0.46875 h -0.234375 v 0.304687 h 3.6445312 c 1.6757813,0 3.046875,-1.476562 3.046875,-3.351562 0,-1.886719 -1.3476562,-3.457032 -3.046875,-3.457032 z m 2.3671875,6.503907 c -0.46875,0 -0.4921875,-0.07031 -0.4921875,-0.398438 v -5.390625 c 0,-0.328125 0.023437,-0.398437 0.4921875,-0.398437 h 0.9960937 c 0.6210938,0 1.3007813,0.210937 1.8164063,0.925781 0.421875,0.585937 0.515625,1.441406 0.515625,2.214844 0,1.113281 -0.1875,1.710937 -0.5507813,2.191406 -0.1992187,0.269531 -0.7617187,0.855469 -1.7695312,0.855469 z m 6.55664062,-3 v -1.101563 l -1.38281252,0.117188 v 0.304687 c 0.69140627,0 0.77343752,0.07031 0.77343752,0.5625 v 2.660156 c 0,0.457032 -0.10546875,0.457032 -0.77343752,0.457032 v 0.304687 c 0.38671877,-0.01172 0.85546877,-0.03516 1.13671877,-0.03516 0.3984375,0 0.8671875,0 1.26562503,0.03516 V 47.914266 H 1.0025808 c -0.73828128,0 -0.76171878,-0.117188 -0.76171878,-0.46875 v -1.535157 c 0,-0.984375 0.421875,-1.875 1.18359378,-1.875 0.058594,0 0.082031,0 0.1054687,0.01172 -0.035156,0.01172 -0.234375,0.128906 -0.234375,0.386719 0,0.28125 0.2109375,0.433594 0.4335938,0.433594 0.1757812,0 0.421875,-0.128907 0.421875,-0.445313 0,-0.316406 -0.3046875,-0.609375 -0.7265625,-0.609375 -0.73828128,0 -1.08984378,0.667969 -1.23046878,1.101563 z M 4.1900808,43.812703 2.7955495,43.929891 v 0.304687 c 0.65625,0 0.7382813,0.05859 0.7382813,0.550781 v 2.671875 c 0,0.457032 -0.1054688,0.457032 -0.7734375,0.457032 v 0.304687 c 0.3164062,-0.01172 0.8554687,-0.03516 1.1015625,-0.03516 0.3398437,0 0.6914062,0.02344 1.03125,0.03516 v -0.304687 c -0.65625,0 -0.703125,-0.05859 -0.703125,-0.445313 z m 0.046875,-1.734375 c 0,-0.316406 -0.2460938,-0.527344 -0.5273438,-0.527344 -0.3164062,0 -0.5273437,0.269532 -0.5273437,0.527344 0,0.269531 0.2109375,0.527344 0.5273437,0.527344 0.28125,0 0.5273438,-0.199219 0.5273438,-0.527344 z m 5.109375,2.824219 c 0.082031,-0.234375 0.2578125,-0.65625 0.9140622,-0.667969 v -0.304687 c -0.234375,0.01172 -0.5156247,0.02344 -0.7499997,0.02344 -0.234375,0 -0.6914063,-0.02344 -0.8671875,-0.02344 v 0.304687 c 0.375,0.01172 0.4804687,0.234375 0.4804687,0.433594 0,0.08203 -0.023437,0.128906 -0.058594,0.234375 l -1.019531,2.542969 -1.1132812,-2.777344 c -0.058594,-0.140625 -0.058594,-0.152344 -0.058594,-0.175781 0,-0.257813 0.3867188,-0.257813 0.5625,-0.257813 v -0.304687 c -0.2929687,0 -0.8554687,0.02344 -1.078125,0.02344 -0.2695312,0 -0.6679687,-0.01172 -0.9726562,-0.02344 v 0.304687 c 0.6328125,0 0.6679687,0.05859 0.796875,0.363281 l 1.4414062,3.539063 c 0.058594,0.140625 0.070312,0.1875 0.1992188,0.1875 0.1289062,0 0.1757812,-0.08203 0.2109375,-0.1875 z m 1.9453122,0.808594 c 0.05859,-1.488282 0.902344,-1.734375 1.242188,-1.734375 1.019531,0 1.125,1.347656 1.125,1.734375 z m -0.01172,0.210937 h 2.789062 c 0.210938,0 0.246094,0 0.246094,-0.210937 0,-0.984375 -0.539063,-1.957032 -1.78125,-1.957032 -1.160156,0 -2.074219,1.03125 -2.074219,2.273438 0,1.335937 1.042969,2.296875 2.191406,2.296875 1.21875,0 1.664063,-1.101563 1.664063,-1.289063 0,-0.105468 -0.08203,-0.117187 -0.128906,-0.117187 -0.09375,0 -0.117188,0.05859 -0.128907,0.140625 -0.351562,1.019531 -1.253906,1.019531 -1.347656,1.019531 -0.503906,0 -0.902344,-0.292969 -1.125,-0.667969 -0.304687,-0.480468 -0.304687,-1.136718 -0.304687,-1.488281 z m 4.989257,-1.007812 v -1.101563 l -1.382812,0.117188 v 0.304687 c 0.691406,0 0.773437,0.07031 0.773437,0.5625 v 2.660156 c 0,0.457032 -0.105468,0.457032 -0.773437,0.457032 v 0.304687 c 0.386719,-0.01172 0.855469,-0.03516 1.136719,-0.03516 0.398437,0 0.867187,0 1.265625,0.03516 v -0.304687 h -0.210938 c -0.738281,0 -0.761719,-0.117188 -0.761719,-0.46875 v -1.535157 c 0,-0.984375 0.421875,-1.875 1.183594,-1.875 0.05859,0 0.08203,0 0.105469,0.01172 -0.03516,0.01172 -0.234375,0.128906 -0.234375,0.386719 0,0.28125 0.210937,0.433594 0.433594,0.433594 0.175781,0 0.421875,-0.128907 0.421875,-0.445313 0,-0.316406 -0.304688,-0.609375 -0.726563,-0.609375 -0.738281,0 -1.089844,0.667969 -1.230469,1.101562 z m 0,0"
           style="fill:#000000;fill-opacity:1;fill-rule:nonzero;stroke:none"
           aria-label="Job&#10;ZaidKnowlesTeacher&#10;HayleyConnerDoctor&#10;SusanWoodDriver"
           transform="matrix(1.3333333,0,0,1.3333333,152.01088,34.544)"
           clip-path="url(#clipPath3)"
           id="path28" />
        <path
           d="M 0,0 H 76.74"
           style="fill:none;stroke:#000000;stroke-width:0.797;stroke-linecap:butt;stroke-linejoin:miter;stroke-miterlimit:10;stroke-dasharray:none;stroke-opacity:1"
           transform="matrix(1.3333333,0,0,-1.3333333,29.614667,20.197333)"
           clip-path="url(#clipPath4)"
           id="path29" />
        <path
           d="M 0,0 H 45.745"
           style="fill:none;stroke:#000000;stroke-width:0.797;stroke-linecap:butt;stroke-linejoin:miter;stroke-miterlimit:10;stroke-dasharray:none;stroke-opacity:1"
           transform="matrix(1.3333333,0,0,-1.3333333,131.93467,20.197333)"
           clip-path="url(#clipPath5)"
           id="path30" />
        <path
           d="M 0,0 H 76.74"
           style="fill:none;stroke:#000000;stroke-width:0.398;stroke-linecap:butt;stroke-linejoin:miter;stroke-miterlimit:10;stroke-dasharray:none;stroke-opacity:1"
           transform="matrix(1.3333333,0,0,-1.3333333,29.614667,42.248)"
           clip-path="url(#clipPath6)"
           id="path31" />
        <path
           d="M 0,0 H 45.745"
           style="fill:none;stroke:#000000;stroke-width:0.398;stroke-linecap:butt;stroke-linejoin:miter;stroke-miterlimit:10;stroke-dasharray:none;stroke-opacity:1"
           transform="matrix(1.3333333,0,0,-1.3333333,131.93467,42.248)"
           clip-path="url(#clipPath7)"
           id="path32" />
        <path
           d="M 0,0 H 76.74"
           style="fill:none;stroke:#000000;stroke-width:0.797;stroke-linecap:butt;stroke-linejoin:miter;stroke-miterlimit:10;stroke-dasharray:none;stroke-opacity:1"
           transform="matrix(1.3333333,0,0,-1.3333333,29.614667,106.80533)"
           clip-path="url(#clipPath8)"
           id="path33" />
        <path
           d="M 0,0 H 45.745"
           style="fill:none;stroke:#000000;stroke-width:0.797;stroke-linecap:butt;stroke-linejoin:miter;stroke-miterlimit:10;stroke-dasharray:none;stroke-opacity:1"
           transform="matrix(1.3333333,0,0,-1.3333333,131.93467,106.80533)"
           clip-path="url(#clipPath9)"
           id="path34" />
        <path
           d="M 0.35210938,-6.8091563 V -6.49275 h 0.234375 c 0.77343752,0 0.78515622,0.1054687 0.78515622,0.46875 v 5.25 c 0,0.3515625 -0.011719,0.46875 -0.78515622,0.46875 h -0.234375 V -5.625e-4 H 3.9966406 c 1.6757813,0 3.046875,-1.4765625 3.046875,-3.3515625 0,-1.8867188 -1.3476562,-3.4570313 -3.046875,-3.4570313 z M 2.7192969,-0.30525 c -0.46875,0 -0.4921875,-0.0703125 -0.4921875,-0.3984375 v -5.390625 c 0,-0.328125 0.023437,-0.3984375 0.4921875,-0.3984375 h 0.9960937 c 0.6210938,0 1.3007813,0.2109375 1.8164063,0.9257812 0.421875,0.5859375 0.515625,1.4414063 0.515625,2.2148438 0,1.1132812 -0.1875,1.7109375 -0.5507813,2.1914062 C 5.2974219,-0.8911875 4.7349219,-0.30525 3.7271094,-0.30525 Z m 6.5566406,-3 V -4.4068125 L 7.893125,-4.289625 v 0.3046875 c 0.6914063,0 0.7734375,0.070312 0.7734375,0.5625 v 2.66015625 C 8.6665625,-0.30525 8.5610938,-0.30525 7.893125,-0.30525 v 0.3046875 c 0.3867188,-0.01171875 0.8554688,-0.03515625 1.1367188,-0.03515625 0.3984375,0 0.8671875,0 1.2656252,0.03515625 V -0.30525 h -0.210938 c -0.738281,0 -0.7617185,-0.1171875 -0.7617185,-0.46875 v -1.5351563 c 0,-0.984375 0.421875,-1.875 1.1835935,-1.875 0.05859,0 0.08203,0 0.105469,0.011719 -0.03516,0.011719 -0.234375,0.1289062 -0.234375,0.3867187 0,0.28125 0.210938,0.4335938 0.433594,0.4335938 0.175781,0 0.421875,-0.1289063 0.421875,-0.4453125 0,-0.3164063 -0.304688,-0.609375 -0.726563,-0.609375 -0.738281,0 -1.0898435,0.6679687 -1.2304685,1.1015623 z M 13.272031,-4.4068125 11.8775,-4.289625 v 0.3046875 c 0.65625,0 0.738281,0.058594 0.738281,0.5507812 v 2.67187505 c 0,0.45703125 -0.105468,0.45703125 -0.773437,0.45703125 v 0.3046875 c 0.316406,-0.01171875 0.855469,-0.03515625 1.101562,-0.03515625 0.339844,0 0.691407,0.0234375 1.03125,0.03515625 V -0.30525 c -0.65625,0 -0.703125,-0.0585938 -0.703125,-0.4453125 z m 0.04687,-1.734375 c 0,-0.3164063 -0.246093,-0.5273438 -0.527343,-0.5273438 -0.316407,0 -0.527344,0.2695313 -0.527344,0.5273438 0,0.2695312 0.210937,0.5273437 0.527344,0.5273437 0.28125,0 0.527343,-0.1992187 0.527343,-0.5273437 z m 5.109375,2.8242187 c 0.08203,-0.234375 0.257813,-0.65625 0.914063,-0.6679687 V -4.289625 c -0.234375,0.011719 -0.515625,0.023437 -0.75,0.023437 -0.234375,0 -0.691406,-0.023437 -0.867188,-0.023437 v 0.3046875 c 0.375,0.011719 0.480469,0.234375 0.480469,0.4335937 0,0.082031 -0.02344,0.1289063 -0.05859,0.234375 L 17.1275,-0.774 16.014219,-3.5513438 c -0.05859,-0.140625 -0.05859,-0.1523437 -0.05859,-0.1757812 0,-0.2578125 0.386719,-0.2578125 0.5625,-0.2578125 V -4.289625 c -0.292969,0 -0.855469,0.023437 -1.078125,0.023437 -0.269531,0 -0.667969,-0.011719 -0.972656,-0.023437 v 0.3046875 c 0.632812,0 0.667969,0.058594 0.796875,0.3632812 l 1.441406,3.53906255 c 0.05859,0.140625 0.07031,0.1875 0.199219,0.1875 0.128906,0 0.175781,-0.08203125 0.210937,-0.1875 z m 1.945313,0.8085938 c 0.05859,-1.4882813 0.902344,-1.734375 1.242187,-1.734375 1.019532,0 1.125,1.3476562 1.125,1.734375 z m -0.01172,0.2109375 h 2.789063 c 0.210937,0 0.246093,0 0.246093,-0.2109375 0,-0.984375 -0.539062,-1.9570313 -1.78125,-1.9570313 -1.160156,0 -2.074218,1.03125 -2.074218,2.2734375 0,1.33593755 1.042968,2.29687505 2.191406,2.29687505 1.21875,0 1.664062,-1.1015625 1.664062,-1.28906255 0,-0.1054687 -0.08203,-0.1171875 -0.128906,-0.1171875 -0.09375,0 -0.117187,0.058594 -0.128906,0.140625 -0.351563,1.0195313 -1.253906,1.0195313 -1.347656,1.0195313 -0.503907,0 -0.902344,-0.29296875 -1.125,-0.66796875 C 20.361875,-1.289625 20.361875,-1.945875 20.361875,-2.2974375 Z M 25.351133,-3.30525 V -4.4068125 L 23.96832,-4.289625 v 0.3046875 c 0.691407,0 0.773438,0.070312 0.773438,0.5625 v 2.66015625 c 0,0.45703125 -0.105469,0.45703125 -0.773438,0.45703125 v 0.3046875 c 0.386719,-0.01171875 0.855469,-0.03515625 1.136719,-0.03515625 0.398438,0 0.867188,0 1.265625,0.03515625 V -0.30525 h -0.210937 c -0.738282,0 -0.761719,-0.1171875 -0.761719,-0.46875 v -1.5351563 c 0,-0.984375 0.421875,-1.875 1.183594,-1.875 0.05859,0 0.08203,0 0.105468,0.011719 -0.03516,0.011719 -0.234375,0.1289062 -0.234375,0.3867187 0,0.28125 0.210938,0.4335938 0.433594,0.4335938 0.175781,0 0.421875,-0.1289063 0.421875,-0.4453125 0,-0.3164063 -0.304687,-0.609375 -0.726562,-0.609375 -0.738282,0 -1.089844,0.6679687 -1.230469,1.1015623 z m 4.3125,1.3710937 c 0.222656,0.035156 1.03125,0.1992188 1.03125,0.9140625 0,0.51562505 -0.351563,0.91406255 -1.125,0.91406255 -0.832031,0 -1.195313,-0.57421875 -1.382813,-1.41796875 -0.03516,-0.1289063 -0.03516,-0.1757813 -0.140625,-0.1757813 -0.128906,0 -0.128906,0.070312 -0.128906,0.2578125 v 1.31250005 c 0,0.1640625 0,0.234375 0.105469,0.234375 0.05859,0 0.07031,0 0.257812,-0.19921875 0.01172,-0.01171875 0.01172,-0.03515625 0.199219,-0.22265625 0.433594,0.421875 0.878906,0.421875 1.089844,0.421875 1.148437,0 1.605469,-0.66796875 1.605469,-1.38281255 0,-0.5273437 -0.292969,-0.8203125 -0.421875,-0.9492187 -0.328125,-0.3164063 -0.714844,-0.3984375 -1.136719,-0.46875 -0.550781,-0.1171875 -1.21875,-0.2460938 -1.21875,-0.8203125 0,-0.3515625 0.257812,-0.7617188 1.113281,-0.7617188 1.101563,0 1.148438,0.9023438 1.171875,1.2070313 0,0.09375 0.09375,0.09375 0.117188,0.09375 0.128906,0 0.128906,-0.046875 0.128906,-0.2460938 v -0.9960937 c 0,-0.1757813 0,-0.2460938 -0.117188,-0.2460938 -0.04687,0 -0.07031,0 -0.199218,0.1171875 -0.02344,0.046875 -0.128907,0.1289063 -0.164063,0.1640625 -0.375,-0.28125 -0.785156,-0.28125 -0.9375,-0.28125 -1.21875,0 -1.59375,0.6679688 -1.59375,1.2304688 0,0.3398437 0.164063,0.6210937 0.433594,0.84375 0.316406,0.2578125 0.597656,0.3164062 1.3125,0.4570312 z M 36.510313,-3.30525 V -4.4068125 L 35.1275,-4.289625 v 0.3046875 c 0.691406,0 0.773438,0.070312 0.773438,0.5625 v 2.66015625 c 0,0.45703125 -0.105469,0.45703125 -0.773438,0.45703125 v 0.3046875 c 0.386719,-0.01171875 0.855469,-0.03515625 1.136719,-0.03515625 0.398437,0 0.867187,0 1.265625,0.03515625 V -0.30525 h -0.210938 c -0.738281,0 -0.761718,-0.1171875 -0.761718,-0.46875 v -1.5351563 c 0,-0.984375 0.421875,-1.875 1.183593,-1.875 0.05859,0 0.08203,0 0.105469,0.011719 -0.03516,0.011719 -0.234375,0.1289062 -0.234375,0.3867187 0,0.28125 0.210938,0.4335938 0.433594,0.4335938 0.175781,0 0.421875,-0.1289063 0.421875,-0.4453125 0,-0.3164063 -0.304688,-0.609375 -0.726563,-0.609375 -0.738281,0 -1.089843,0.6679687 -1.230468,1.1015623 z m 3.987304,-1.1015625 -1.394531,0.1171875 v 0.3046875 c 0.65625,0 0.738281,0.058594 0.738281,0.5507812 v 2.67187505 c 0,0.45703125 -0.105469,0.45703125 -0.773437,0.45703125 v 0.3046875 c 0.316406,-0.01171875 0.855468,-0.03515625 1.101562,-0.03515625 0.339844,0 0.691406,0.0234375 1.03125,0.03515625 V -0.30525 c -0.65625,0 -0.703125,-0.0585938 -0.703125,-0.4453125 z m 0.04687,-1.734375 c 0,-0.3164063 -0.246094,-0.5273438 -0.527344,-0.5273438 -0.316406,0 -0.527343,0.2695313 -0.527343,0.5273438 0,0.2695312 0.210937,0.5273437 0.527343,0.5273437 0.28125,0 0.527344,-0.1992187 0.527344,-0.5273437 z m 4.746094,5.58984375 v 0.65625 L 46.75543,-5.625e-4 V -0.30525 c -0.703125,0 -0.773438,-0.0703125 -0.773438,-0.5625 v -6.046875 l -1.441406,0.1054687 V -6.49275 c 0.703125,0 0.785156,0.070312 0.785156,0.5507812 v 2.15625 C 45.032773,-4.149 44.59918,-4.4068125 44.060117,-4.4068125 c -1.171875,0 -2.214844,0.984375 -2.214844,2.2617187 0,1.26562505 0.972657,2.25000005 2.109375,2.25000005 0.644532,0 1.089844,-0.33984375 1.335938,-0.65625 z m 0,-2.67187505 v 2.0507813 c 0,0.17578125 0,0.19921875 -0.105469,0.36328125 -0.304687,0.48046875 -0.75,0.703125 -1.183594,0.703125 -0.445312,0 -0.796875,-0.2578125 -1.042968,-0.64453125 -0.257813,-0.4101563 -0.292969,-0.9726563 -0.292969,-1.3828125 0,-0.3632813 0.02344,-0.9609375 0.316406,-1.4179688 0.210938,-0.3046875 0.585938,-0.6328125 1.125,-0.6328125 0.351563,0 0.761719,0.1523438 1.078125,0.5976563 0.105469,0.1640625 0.105469,0.1875 0.105469,0.3632812 z m 2.865234,0.7148438 c 0.05859,-1.4882813 0.902344,-1.734375 1.242188,-1.734375 1.019531,0 1.125,1.3476562 1.125,1.734375 z m -0.01172,0.2109375 h 2.789062 c 0.210938,0 0.246094,0 0.246094,-0.2109375 0,-0.984375 -0.539063,-1.9570313 -1.78125,-1.9570313 -1.160156,0 -2.074219,1.03125 -2.074219,2.2734375 0,1.33593755 1.042969,2.29687505 2.191406,2.29687505 1.21875,0 1.664063,-1.1015625 1.664063,-1.28906255 0,-0.1054687 -0.08203,-0.1171875 -0.128906,-0.1171875 -0.09375,0 -0.117188,0.058594 -0.128907,0.140625 -0.351562,1.0195313 -1.253906,1.0195313 -1.347656,1.0195313 -0.503906,0 -0.902344,-0.29296875 -1.125,-0.66796875 -0.30468,-0.48046875 -0.30468,-1.13671875 -0.30468,-1.48828125 z m 8.364257,-1.453125 V -6.914625 l -1.429687,0.1054687 V -6.49275 c 0.691406,0 0.773437,0.070312 0.773437,0.5507812 v 5.9414063 h 0.246094 c 0.01172,-0.01171875 0.09375,-0.15234375 0.363281,-0.62109375 0.152344,0.234375 0.5625,0.7265625 1.300782,0.7265625 1.183593,0 2.226562,-0.97265625 2.226562,-2.26171875 0,-1.265625 -0.972656,-2.25 -2.109375,-2.25 -0.785156,0 -1.207031,0.46875 -1.371094,0.65625 z m 0.03516,2.6132812 v -2.0507812 c 0,-0.1875 0,-0.1992188 0.105468,-0.3632813 0.386719,-0.5507812 0.9375,-0.6328125 1.171875,-0.6328125 0.457032,0 0.808594,0.2578125 1.054688,0.6328125 0.257812,0.4101563 0.28125,0.984375 0.28125,1.3945313 0,0.3632812 -0.01172,0.9609375 -0.304688,1.40625 -0.210937,0.31640625 -0.585937,0.64453125 -1.125,0.64453125 -0.445312,0 -0.808593,-0.24609375 -1.042968,-0.609375 C 56.543516,-0.92634375 56.543516,-0.9615 56.543516,-1.1372813 Z m 7.678711,0.35156255 v 0.890625 L 65.663633,-5.625e-4 V -0.30525 c -0.703125,0 -0.785156,-0.0703125 -0.785156,-0.5625 v -3.5390625 l -1.453125,0.1171875 v 0.3046875 c 0.691406,0 0.773437,0.070312 0.773437,0.5625 v 1.7695312 c 0,0.86718755 -0.480469,1.54687505 -1.207031,1.54687505 -0.832031,0 -0.878906,-0.46875 -0.878906,-0.99609375 v -3.3046875 l -1.464844,0.1171875 v 0.3046875 c 0.785156,0 0.785156,0.035156 0.785156,0.9140625 v 1.5 c 0,0.7734375 0,1.67578125 1.511719,1.67578125 0.550781,0 0.996094,-0.26953125 1.277344,-0.890625 z M 67.94,-1.9341563 c 0.222656,0.035156 1.03125,0.1992188 1.03125,0.9140625 0,0.51562505 -0.351562,0.91406255 -1.125,0.91406255 -0.832031,0 -1.195312,-0.57421875 -1.382812,-1.41796875 -0.03516,-0.1289063 -0.03516,-0.1757813 -0.140625,-0.1757813 -0.128907,0 -0.128907,0.070312 -0.128907,0.2578125 v 1.31250005 c 0,0.1640625 0,0.234375 0.105469,0.234375 0.05859,0 0.07031,0 0.257813,-0.19921875 0.01172,-0.01171875 0.01172,-0.03515625 0.199218,-0.22265625 0.433594,0.421875 0.878907,0.421875 1.089844,0.421875 1.148438,0 1.605469,-0.66796875 1.605469,-1.38281255 0,-0.5273437 -0.292969,-0.8203125 -0.421875,-0.9492187 -0.328125,-0.3164063 -0.714844,-0.3984375 -1.136719,-0.46875 -0.550781,-0.1171875 -1.21875,-0.2460938 -1.21875,-0.8203125 0,-0.3515625 0.257813,-0.7617188 1.113281,-0.7617188 1.101563,0 1.148438,0.9023438 1.171875,1.2070313 0,0.09375 0.09375,0.09375 0.117188,0.09375 0.128906,0 0.128906,-0.046875 0.128906,-0.2460938 v -0.9960937 c 0,-0.1757813 0,-0.2460938 -0.117187,-0.2460938 -0.04687,0 -0.07031,0 -0.199219,0.1171875 -0.02344,0.046875 -0.128906,0.1289063 -0.164063,0.1640625 -0.375,-0.28125 -0.785156,-0.28125 -0.9375,-0.28125 -1.21875,0 -1.59375,0.6679688 -1.59375,1.2304688 0,0.3398437 0.164063,0.6210937 0.433594,0.84375 0.316406,0.2578125 0.597656,0.3164062 1.3125,0.4570312 z m 3.931641,0 c 0.222656,0.035156 1.03125,0.1992188 1.03125,0.9140625 0,0.51562505 -0.351563,0.91406255 -1.125,0.91406255 -0.832032,0 -1.195313,-0.57421875 -1.382813,-1.41796875 -0.03516,-0.1289063 -0.03516,-0.1757813 -0.140625,-0.1757813 -0.128906,0 -0.128906,0.070312 -0.128906,0.2578125 v 1.31250005 c 0,0.1640625 0,0.234375 0.105469,0.234375 0.05859,0 0.07031,0 0.257812,-0.19921875 0.01172,-0.01171875 0.01172,-0.03515625 0.199219,-0.22265625 0.433594,0.421875 0.878906,0.421875 1.089844,0.421875 1.148437,0 1.605468,-0.66796875 1.605468,-1.38281255 0,-0.5273437 -0.292968,-0.8203125 -0.421875,-0.9492187 -0.328125,-0.3164063 -0.714843,-0.3984375 -1.136718,-0.46875 -0.550782,-0.1171875 -1.21875,-0.2460938 -1.21875,-0.8203125 0,-0.3515625 0.257812,-0.7617188 1.113281,-0.7617188 1.101562,0 1.148437,0.9023438 1.171875,1.2070313 0,0.09375 0.09375,0.09375 0.117187,0.09375 0.128907,0 0.128907,-0.046875 0.128907,-0.2460938 v -0.9960937 c 0,-0.1757813 0,-0.2460938 -0.117188,-0.2460938 -0.04687,0 -0.07031,0 -0.199219,0.1171875 -0.02344,0.046875 -0.128906,0.1289063 -0.164062,0.1640625 -0.375,-0.28125 -0.785156,-0.28125 -0.9375,-0.28125 -1.21875,0 -1.59375,0.6679688 -1.59375,1.2304688 0,0.3398437 0.164062,0.6210937 0.433594,0.84375 0.316406,0.2578125 0.597656,0.3164062 1.3125,0.4570312 z m 2.967773,-0.5742187 c 0.05859,-1.4882813 0.902344,-1.734375 1.242188,-1.734375 1.019531,0 1.125,1.3476562 1.125,1.734375 z m -0.01172,0.2109375 h 2.789063 c 0.210937,0 0.246094,0 0.246094,-0.2109375 0,-0.984375 -0.539063,-1.9570313 -1.78125,-1.9570313 -1.160157,0 -2.074219,1.03125 -2.074219,2.2734375 0,1.33593755 1.042969,2.29687505 2.191406,2.29687505 1.21875,0 1.664063,-1.1015625 1.664063,-1.28906255 0,-0.1054687 -0.08203,-0.1171875 -0.128907,-0.1171875 -0.09375,0 -0.117187,0.058594 -0.128906,0.140625 -0.351562,1.0195313 -1.253906,1.0195313 -1.347656,1.0195313 -0.503906,0 -0.902344,-0.29296875 -1.125,-0.66796875 C 74.827695,-1.289625 74.827695,-1.945875 74.827695,-2.2974375 Z m 5.399414,0.3632812 c 0.222657,0.035156 1.03125,0.1992188 1.03125,0.9140625 0,0.51562505 -0.351562,0.91406255 -1.125,0.91406255 -0.832031,0 -1.195312,-0.57421875 -1.382812,-1.41796875 -0.03516,-0.1289063 -0.03516,-0.1757813 -0.140625,-0.1757813 -0.128906,0 -0.128906,0.070312 -0.128906,0.2578125 v 1.31250005 c 0,0.1640625 0,0.234375 0.105468,0.234375 0.05859,0 0.07031,0 0.257813,-0.19921875 0.01172,-0.01171875 0.01172,-0.03515625 0.199219,-0.22265625 0.433593,0.421875 0.878906,0.421875 1.089843,0.421875 1.148438,0 1.605469,-0.66796875 1.605469,-1.38281255 0,-0.5273437 -0.292969,-0.8203125 -0.421875,-0.9492187 -0.328125,-0.3164063 -0.714844,-0.3984375 -1.136719,-0.46875 -0.550781,-0.1171875 -1.21875,-0.2460938 -1.21875,-0.8203125 0,-0.3515625 0.257813,-0.7617188 1.113282,-0.7617188 1.101562,0 1.148437,0.9023438 1.171875,1.2070313 0,0.09375 0.09375,0.09375 0.117187,0.09375 0.128906,0 0.128906,-0.046875 0.128906,-0.2460938 v -0.9960937 c 0,-0.1757813 0,-0.2460938 -0.117187,-0.2460938 -0.04687,0 -0.07031,0 -0.199219,0.1171875 -0.02344,0.046875 -0.128906,0.1289063 -0.164062,0.1640625 -0.375,-0.28125 -0.785157,-0.28125 -0.9375,-0.28125 -1.21875,0 -1.59375,0.6679688 -1.59375,1.2304688 0,0.3398437 0.164062,0.6210937 0.433593,0.84375 0.316407,0.2578125 0.597657,0.3164062 1.3125,0.4570312 z m 3.764649,1.40625005 c 0,-0.29296875 -0.234375,-0.52734375 -0.527344,-0.52734375 -0.28125,0 -0.527344,0.234375 -0.527344,0.52734375 0,0.29296875 0.246094,0.52734375 0.527344,0.52734375 0.292969,0 0.527344,-0.234375 0.527344,-0.52734375 z m 0,0"
           style="fill:#000000;fill-opacity:1;fill-rule:nonzero;stroke:none"
           aria-label="Driversridebusses."
           transform="matrix(1.3333333,0,0,1.3333333,38.913333,124.532)"
           clip-path="url(#clipPath10)"
           id="path35" />
      </g>
      <text
         xml:space="preserve"
         transform="matrix(1.3333333,0,0,1.3333333,222.35867,10.852)"
         clip-path="url(#clipPath12)"
         id="text35"><tspan
           style="font-variant:normal;font-weight:normal;font-size:9.96264px;font-family:Arial;writing-mode:lr-tb;fill:#000000;fill-opacity:1;fill-rule:nonzero;stroke:none"
           x="0"
           dx="0 -1.0958904 0 0 0 2.4806974 0 0 0 0 4.9813199 0 0 0 0 0 2.7596512"
           y="0"
           id="tspan35">Table4.3b:Inlinetable</tspan></text>
      <text
         xml:space="preserve"
         transform="matrix(1.3333333,0,0,1.3333333,240.8,33.869333)"
         clip-path="url(#clipPath13)"
         id="text36"><tspan
           style="font-variant:normal;font-weight:normal;font-size:9.96264px;font-family:Arial;writing-mode:lr-tb;fill:#000000;fill-opacity:1;fill-rule:nonzero;stroke:none"
           x="0"
           dx="0 0 0 0 41.305107"
           y="0"
           id="tspan36">NameJob</tspan></text>
      <text
         xml:space="preserve"
         transform="matrix(1.3333333,0,0,1.3333333,214.58667,55.653333)"
         clip-path="url(#clipPath14)"
         id="text37"><tspan
           style="font-variant:normal;font-weight:normal;font-size:9.96264px;font-family:Arial;writing-mode:lr-tb;fill:#000000;fill-opacity:1;fill-rule:nonzero;stroke:none"
           x="0"
           dx="0 0 0 0 2.7596512 0 0 0 0 0 0 18.042341 -1.0859277 -0.0099626398"
           y="0"
           id="tspan37">ZaidKnowlesTeacher</tspan></text>
      <text
         xml:space="preserve"
         transform="matrix(1.3333333,0,0,1.3333333,214.58667,76.908)"
         clip-path="url(#clipPath15)"
         id="text38"><tspan
           style="font-variant:normal;font-weight:normal;font-size:9.96264px;font-family:Arial;writing-mode:lr-tb;fill:#000000;fill-opacity:1;fill-rule:nonzero;stroke:none"
           x="0"
           dx="0 0 0 0 0 0 2.7596512 0 0 0 0 0 11.955168"
           y="0"
           id="tspan38">HayleyConnerDoctor</tspan></text>
      <text
         xml:space="preserve"
         transform="matrix(1.3333333,0,0,1.3333333,214.58667,98.161333)"
         clip-path="url(#clipPath16)"
         id="text39"><tspan
           style="font-variant:normal;font-weight:normal;font-size:9.96264px;font-family:Arial;writing-mode:lr-tb;fill:#000000;fill-opacity:1;fill-rule:nonzero;stroke:none"
           x="0"
           dx="0 0 0 0 0 2.7596512 -0.16936488 0 0 20.981319"
           y="0"
           id="tspan39">SusanWoodDriver</tspan></text>
      <path
         d="M 0,0 H 77.851"
         style="fill:none;stroke:#000000;stroke-width:0.797;stroke-linecap:butt;stroke-linejoin:miter;stroke-miterlimit:10;stroke-dasharray:none;stroke-opacity:1"
         transform="matrix(1.3333333,0,0,-1.3333333,206.61733,19.522667)"
         clip-path="url(#clipPath17)"
         id="path39" />
      <path
         d="M 0,0 H 47.398"
         style="fill:none;stroke:#000000;stroke-width:0.797;stroke-linecap:butt;stroke-linejoin:miter;stroke-miterlimit:10;stroke-dasharray:none;stroke-opacity:1"
         transform="matrix(1.3333333,0,0,-1.3333333,310.41733,19.522667)"
         clip-path="url(#clipPath18)"
         id="path40" />
      <path
         d="M 0,0 H 77.851"
         style="fill:none;stroke:#000000;stroke-width:0.398;stroke-linecap:butt;stroke-linejoin:miter;stroke-miterlimit:10;stroke-dasharray:none;stroke-opacity:1"
         transform="matrix(1.3333333,0,0,-1.3333333,206.61733,41.573333)"
         clip-path="url(#clipPath19)"
         id="path41" />
      <path
         d="M 0,0 H 47.398"
         style="fill:none;stroke:#000000;stroke-width:0.398;stroke-linecap:butt;stroke-linejoin:miter;stroke-miterlimit:10;stroke-dasharray:none;stroke-opacity:1"
         transform="matrix(1.3333333,0,0,-1.3333333,310.41733,41.573333)"
         clip-path="url(#clipPath20)"
         id="path42" />
      <path
         d="M 0,0 H 77.851"
         style="fill:none;stroke:#000000;stroke-width:0.797;stroke-linecap:butt;stroke-linejoin:miter;stroke-miterlimit:10;stroke-dasharray:none;stroke-opacity:1"
         transform="matrix(1.3333333,0,0,-1.3333333,206.61733,106.13067)"
         clip-path="url(#clipPath21)"
         id="path43" />
      <path
         d="M 0,0 H 47.398"
         style="fill:none;stroke:#000000;stroke-width:0.797;stroke-linecap:butt;stroke-linejoin:miter;stroke-miterlimit:10;stroke-dasharray:none;stroke-opacity:1"
         transform="matrix(1.3333333,0,0,-1.3333333,310.41733,106.13067)"
         clip-path="url(#clipPath22)"
         id="path44" />
      <text
         xml:space="preserve"
         transform="matrix(1.3333333,0,0,1.3333333,215.91467,124.14133)"
         clip-path="url(#clipPath23)"
         id="text44"><tspan
           style="font-variant:normal;font-weight:normal;font-size:9.96264px;font-family:Arial;writing-mode:lr-tb;fill:#000000;fill-opacity:1;fill-rule:nonzero;stroke:none"
           x="0"
           dx="0 0 0 0 0 0 0 2.7596512 0 0 0 2.769614"
           y="0"
           id="tspan44">Driversridebusses.</tspan></text>
      <text
         xml:space="preserve"
         transform="matrix(1.3333333,0,0,1.3333333,-0.30933333,163.896)"
         clip-path="url(#clipPath24)"
         id="text45"><tspan
           style="font-variant:normal;font-weight:700;font-size:14.3462px;font-family:Arial;writing-mode:lr-tb;fill:#000000;fill-opacity:1;fill-rule:nonzero;stroke:none"
           x="0"
           dx="0 0 0 0 3.9738975 0 3.9882436 -1.0472726"
           y="0"
           id="tspan45">ListofTables</tspan></text>
      <text
         xml:space="preserve"
         transform="matrix(1.3333333,0,0,1.3333333,19.616,195.67867)"
         clip-path="url(#clipPath25)"
         id="text46"><tspan
           style="font-variant:normal;font-weight:normal;font-size:9.96264px;font-family:Arial;writing-mode:lr-tb;fill:#000000;fill-opacity:1;fill-rule:nonzero;stroke:none"
           x="0"
           dx="0 0 0 0 3.5168118 0 0 0 0 0 0 0 0 0 0 0 2.769614 0 0 0 0 5.5491905 4.9813199 4.9813199 4.9813199 4.9813199 4.9813199 4.9813199 4.9813199 4.9813199 4.9813199 4.9813199 4.9912825 4.9813199 4.9813199 4.9813199 4.9813199 4.9813199 4.9813199 4.9813199 4.9813199 4.9813199 4.9813199 4.9813199 4.9813199 4.9813199 4.9813199 15.193026"
           y="0"
           id="tspan46">4.3aPre-compiledtable..........................1</tspan></text>
      <text
         xml:space="preserve"
         transform="matrix(1.3333333,0,0,1.3333333,19.616,211.61867)"
         clip-path="url(#clipPath26)"
         id="text47"><tspan
           style="font-variant:normal;font-weight:normal;font-size:9.96264px;font-family:Arial;writing-mode:lr-tb;fill:#000000;fill-opacity:1;fill-rule:nonzero;stroke:none"
           x="0"
           dx="0 0 0 0 3.5168118 0 0 0 0 0 2.769614 0 0 0 0 9.4346199 4.9813199 4.9813199 4.9813199 4.9813199 4.9813199 4.9813199 4.9813199 4.9813199 4.9813199 4.9813199 4.9813199 4.9813199 4.9813199 4.9813199 4.9813199 4.9813199 4.9813199 4.9813199 4.9813199 4.9813199 4.9813199 4.9813199 4.9813199 4.9813199 4.9813199 4.9813199 4.9813199 4.9813199 4.9813199 15.202989"
           y="0"
           id="tspan47">4.3bInlinetable..............................1</tspan></text>
    </g>
  </g>
</svg>
