<?xml version="1.0" encoding="utf-8" standalone="no"?>
<!DOCTYPE svg PUBLIC "-//W3C//DTD SVG 1.1//EN"
  "http://www.w3.org/Graphics/SVG/1.1/DTD/svg11.dtd">
<svg xmlns:xlink="http://www.w3.org/1999/xlink" width="432pt" height="158.4pt" viewBox="0 0 432 158.4" xmlns="http://www.w3.org/2000/svg" version="1.1">
 <metadata>
  <rdf:RDF xmlns:dc="http://purl.org/dc/elements/1.1/" xmlns:cc="http://creativecommons.org/ns#" xmlns:rdf="http://www.w3.org/1999/02/22-rdf-syntax-ns#">
   <cc:Work>
    <dc:type rdf:resource="http://purl.org/dc/dcmitype/StillImage"/>
    <dc:date>2025-01-09T21:54:14.076079</dc:date>
    <dc:format>image/svg+xml</dc:format>
    <dc:creator>
     <cc:Agent>
      <dc:title>Matplotlib v3.10.0, https://matplotlib.org/</dc:title>
     </cc:Agent>
    </dc:creator>
   </cc:Work>
  </rdf:RDF>
 </metadata>
 <defs>
  <style type="text/css">*{stroke-linejoin: round; stroke-linecap: butt}</style>
 </defs>
 <g id="figure_1">
  <g id="patch_1">
   <path d="M 0 158.4 
L 432 158.4 
L 432 0 
L 0 0 
L 0 158.4 
z
" style="fill: none"/>
  </g>
  <g id="axes_1">
   <g id="patch_2">
    <path d="M 25.903365 125.04351 
L 142.766251 125.04351 
L 142.766251 27.79649 
L 25.903365 27.79649 
L 25.903365 125.04351 
z
" style="fill: none"/>
   </g>
   <g id="matplotlib.axis_1">
    <g id="xtick_1">
     <g id="line2d_1">
      <path d="M 31.215314 125.04351 
L 31.215314 27.79649 
" clip-path="url(#p367161d11d)" style="fill: none; stroke-dasharray: 0.8,1.32; stroke-dashoffset: 0; stroke: #b0b0b0; stroke-width: 0.8"/>
     </g>
     <g id="line2d_2">
      <defs>
       <path id="m26b9a06a8e" d="M 0 0 
L 0 3.5 
" style="stroke: #000000; stroke-width: 0.8"/>
      </defs>
      <g>
       <use xlink:href="#m26b9a06a8e" x="31.215314" y="125.04351" style="stroke: #000000; stroke-width: 0.8"/>
      </g>
     </g>
     <g id="text_1">
      <text style="font-size: 10px; font-family: 'DejaVu Sans', 'Bitstream Vera Sans', 'Computer Modern Sans Serif', 'Lucida Grande', 'Verdana', 'Geneva', 'Lucid', 'Arial', 'Helvetica', 'Avant Garde', sans-serif; text-anchor: middle" x="31.215314" y="139.641948" transform="rotate(-0 31.215314 139.641948)">0</text>
     </g>
    </g>
    <g id="xtick_2">
     <g id="line2d_3">
      <path d="M 73.710909 125.04351 
L 73.710909 27.79649 
" clip-path="url(#p367161d11d)" style="fill: none; stroke-dasharray: 0.8,1.32; stroke-dashoffset: 0; stroke: #b0b0b0; stroke-width: 0.8"/>
     </g>
     <g id="line2d_4">
      <g>
       <use xlink:href="#m26b9a06a8e" x="73.710909" y="125.04351" style="stroke: #000000; stroke-width: 0.8"/>
      </g>
     </g>
     <g id="text_2">
      <text style="font-size: 10px; font-family: 'DejaVu Sans', 'Bitstream Vera Sans', 'Computer Modern Sans Serif', 'Lucida Grande', 'Verdana', 'Geneva', 'Lucid', 'Arial', 'Helvetica', 'Avant Garde', sans-serif; text-anchor: middle" x="73.710909" y="139.641948" transform="rotate(-0 73.710909 139.641948)">1</text>
     </g>
    </g>
    <g id="xtick_3">
     <g id="line2d_5">
      <path d="M 116.206504 125.04351 
L 116.206504 27.79649 
" clip-path="url(#p367161d11d)" style="fill: none; stroke-dasharray: 0.8,1.32; stroke-dashoffset: 0; stroke: #b0b0b0; stroke-width: 0.8"/>
     </g>
     <g id="line2d_6">
      <g>
       <use xlink:href="#m26b9a06a8e" x="116.206504" y="125.04351" style="stroke: #000000; stroke-width: 0.8"/>
      </g>
     </g>
     <g id="text_3">
      <text style="font-size: 10px; font-family: 'DejaVu Sans', 'Bitstream Vera Sans', 'Computer Modern Sans Serif', 'Lucida Grande', 'Verdana', 'Geneva', 'Lucid', 'Arial', 'Helvetica', 'Avant Garde', sans-serif; text-anchor: middle" x="116.206504" y="139.641948" transform="rotate(-0 116.206504 139.641948)">2</text>
     </g>
    </g>
    <g id="text_4">
     <text style="font-size: 10px; font-family: 'DejaVu Sans', 'Bitstream Vera Sans', 'Computer Modern Sans Serif', 'Lucida Grande', 'Verdana', 'Geneva', 'Lucid', 'Arial', 'Helvetica', 'Avant Garde', sans-serif; text-anchor: middle" x="84.334808" y="153.320073" transform="rotate(-0 84.334808 153.320073)">x</text>
    </g>
   </g>
   <g id="matplotlib.axis_2">
    <g id="ytick_1">
     <g id="line2d_7">
      <path d="M 25.903365 95.975836 
L 142.766251 95.975836 
" clip-path="url(#p367161d11d)" style="fill: none; stroke-dasharray: 0.8,1.32; stroke-dashoffset: 0; stroke: #b0b0b0; stroke-width: 0.8"/>
     </g>
     <g id="line2d_8">
      <defs>
       <path id="mccb15ffa16" d="M 0 0 
L -3.5 0 
" style="stroke: #000000; stroke-width: 0.8"/>
      </defs>
      <g>
       <use xlink:href="#mccb15ffa16" x="25.903365" y="95.975836" style="stroke: #000000; stroke-width: 0.8"/>
      </g>
     </g>
     <g id="text_5">
      <text style="font-size: 10px; font-family: 'DejaVu Sans', 'Bitstream Vera Sans', 'Computer Modern Sans Serif', 'Lucida Grande', 'Verdana', 'Geneva', 'Lucid', 'Arial', 'Helvetica', 'Avant Garde', sans-serif; text-anchor: end" x="18.903365" y="99.775055" transform="rotate(-0 18.903365 99.775055)">0.0</text>
     </g>
    </g>
    <g id="ytick_2">
     <g id="line2d_9">
      <path d="M 25.903365 64.096323 
L 142.766251 64.096323 
" clip-path="url(#p367161d11d)" style="fill: none; stroke-dasharray: 0.8,1.32; stroke-dashoffset: 0; stroke: #b0b0b0; stroke-width: 0.8"/>
     </g>
     <g id="line2d_10">
      <g>
       <use xlink:href="#mccb15ffa16" x="25.903365" y="64.096323" style="stroke: #000000; stroke-width: 0.8"/>
      </g>
     </g>
     <g id="text_6">
      <text style="font-size: 10px; font-family: 'DejaVu Sans', 'Bitstream Vera Sans', 'Computer Modern Sans Serif', 'Lucida Grande', 'Verdana', 'Geneva', 'Lucid', 'Arial', 'Helvetica', 'Avant Garde', sans-serif; text-anchor: end" x="18.903365" y="67.895541" transform="rotate(-0 18.903365 67.895541)">0.5</text>
     </g>
    </g>
    <g id="ytick_3">
     <g id="line2d_11">
      <path d="M 25.903365 32.216809 
L 142.766251 32.216809 
" clip-path="url(#p367161d11d)" style="fill: none; stroke-dasharray: 0.8,1.32; stroke-dashoffset: 0; stroke: #b0b0b0; stroke-width: 0.8"/>
     </g>
     <g id="line2d_12">
      <g>
       <use xlink:href="#mccb15ffa16" x="25.903365" y="32.216809" style="stroke: #000000; stroke-width: 0.8"/>
      </g>
     </g>
     <g id="text_7">
      <text style="font-size: 10px; font-family: 'DejaVu Sans', 'Bitstream Vera Sans', 'Computer Modern Sans Serif', 'Lucida Grande', 'Verdana', 'Geneva', 'Lucid', 'Arial', 'Helvetica', 'Avant Garde', sans-serif; text-anchor: end" x="18.903365" y="36.016028" transform="rotate(-0 18.903365 36.016028)">1.0</text>
     </g>
    </g>
   </g>
   <g id="line2d_13">
    <path d="M 31.215314 32.216809 
L 32.288435 34.002262 
L 33.361556 36.118437 
L 34.434678 38.534749 
L 35.507799 41.220094 
L 36.58092 44.143081 
L 37.654041 47.27226 
L 38.727162 50.576336 
L 39.800283 54.024376 
L 40.873404 57.585996 
L 41.946525 61.231543 
L 43.019646 64.932255 
L 44.092767 68.660415 
L 45.165888 72.389488 
L 46.239009 76.094235 
L 47.312131 79.750829 
L 48.385252 83.33694 
L 49.458373 86.831811 
L 50.531494 90.21633 
L 51.604615 93.473065 
L 52.677736 96.586311 
L 53.750857 99.542102 
L 54.823978 102.328227 
L 55.897099 104.934219 
L 56.97022 107.351347 
L 58.043341 109.572583 
L 59.116462 111.592569 
L 60.189583 113.407572 
L 61.262705 115.015426 
L 62.335826 116.415472 
L 63.408947 117.608485 
L 64.482068 118.596605 
L 65.555189 119.383246 
L 66.62831 119.973018 
L 67.701431 120.371633 
L 68.774552 120.585811 
L 69.847673 120.623191 
L 70.920794 120.492227 
L 71.993915 120.202094 
L 73.067036 119.762593 
L 74.140158 119.184048 
L 75.213279 118.477216 
L 76.2864 117.65319 
L 77.359521 116.723309 
L 78.432642 115.699068 
L 79.505763 114.592033 
L 80.578884 113.41376 
L 81.652005 112.175718 
L 82.725126 110.889214 
L 83.798247 109.565325 
L 84.871368 108.214836 
L 85.944489 106.848181 
L 87.01761 105.475388 
L 88.090732 104.106032 
L 89.163853 102.749196 
L 90.236974 101.413428 
L 91.310095 100.106715 
L 92.383216 98.836452 
L 93.456337 97.609427 
L 94.529458 96.431798 
L 95.602579 95.309088 
L 96.6757 94.246177 
L 97.748821 93.2473 
L 98.821942 92.31605 
L 99.895063 91.455389 
L 100.968184 90.667654 
L 102.041306 89.954574 
L 103.114427 89.31729 
L 104.187548 88.756374 
L 105.260669 88.271854 
L 106.33379 87.863241 
L 107.406911 87.529556 
L 108.480032 87.269363 
L 109.553153 87.080801 
L 110.626274 86.961616 
L 111.699395 86.909195 
L 112.772516 86.920605 
L 113.845637 86.992624 
L 114.918759 87.121782 
L 115.99188 87.304392 
L 117.065001 87.536587 
L 118.138122 87.814356 
L 119.211243 88.13358 
L 120.284364 88.490059 
L 121.357485 88.87955 
L 122.430606 89.297798 
L 123.503727 89.740559 
L 124.576848 90.203635 
L 125.649969 90.682898 
L 126.72309 91.174313 
L 127.796211 91.673962 
L 128.869333 92.178063 
L 129.942454 92.682993 
L 131.015575 93.185299 
L 132.088696 93.681717 
L 133.161817 94.169183 
L 134.234938 94.644846 
L 135.308059 95.106074 
L 136.38118 95.550462 
L 137.454301 95.975836 
" clip-path="url(#p367161d11d)" style="fill: none; stroke: #1f77b4; stroke-width: 1.5; stroke-linecap: square"/>
   </g>
   <g id="patch_3">
    <path d="M 25.903365 125.04351 
L 25.903365 27.79649 
" style="fill: none; stroke: #000000; stroke-width: 0.8; stroke-linejoin: miter; stroke-linecap: square"/>
   </g>
   <g id="patch_4">
    <path d="M 142.766251 125.04351 
L 142.766251 27.79649 
" style="fill: none; stroke: #000000; stroke-width: 0.8; stroke-linejoin: miter; stroke-linecap: square"/>
   </g>
   <g id="patch_5">
    <path d="M 25.903365 125.04351 
L 142.766251 125.04351 
" style="fill: none; stroke: #000000; stroke-width: 0.8; stroke-linejoin: miter; stroke-linecap: square"/>
   </g>
   <g id="patch_6">
    <path d="M 25.903365 27.79649 
L 142.766251 27.79649 
" style="fill: none; stroke: #000000; stroke-width: 0.8; stroke-linejoin: miter; stroke-linecap: square"/>
   </g>
   <g id="text_8">
    <text style="font-size: 10px; font-family: 'DejaVu Sans', 'Bitstream Vera Sans', 'Computer Modern Sans Serif', 'Lucida Grande', 'Verdana', 'Geneva', 'Lucid', 'Arial', 'Helvetica', 'Avant Garde', sans-serif; text-anchor: middle" x="84.334808" y="21.79649" transform="rotate(-0 84.334808 21.79649)">Figure 1.1: Default spines</text>
   </g>
   <g id="legend_1">
    <g id="patch_7">
     <path d="M 47.366251 55.79649 
L 135.766251 55.79649 
Q 137.766251 55.79649 137.766251 53.79649 
L 137.766251 34.79649 
Q 137.766251 32.79649 135.766251 32.79649 
L 47.366251 32.79649 
Q 45.366251 32.79649 45.366251 34.79649 
L 45.366251 53.79649 
Q 45.366251 55.79649 47.366251 55.79649 
z
" style="fill: #ffffff; opacity: 0.8; stroke: #cccccc; stroke-linejoin: miter"/>
    </g>
    <g id="line2d_14">
     <path d="M 49.366251 43.99649 
L 59.366251 43.99649 
L 69.366251 43.99649 
" style="fill: none; stroke: #1f77b4; stroke-width: 1.5; stroke-linecap: square"/>
    </g>
    <g id="text_9">
     <!-- $f(x) = \frac{\cos(\pi x)}{e^x}$ -->
     <g transform="translate(77.366251 47.49649)">
      <text>
       <tspan x="0" y="-0.382812" style="font-style: oblique; font-size: 10px; font-family: 'DejaVu Sans'">f</tspan>
       <tspan x="7.421875" y="-0.382812" style="font-style: oblique; font-size: 10px; font-family: 'DejaVu Sans'">x</tspan>
       <tspan x="3.520508" y="-0.382812" style="font-size: 10px; font-family: 'DejaVu Sans'">(</tspan>
       <tspan x="13.339844" y="-0.382812" style="font-size: 10px; font-family: 'DejaVu Sans'">)</tspan>
       <tspan x="19.189453" y="-0.382812" style="font-size: 10px; font-family: 'DejaVu Sans'">=</tspan>
       <tspan x="29.516602" y="-5.684375" style="font-size: 7px; font-family: 'DejaVu Sans'">c</tspan>
       <tspan x="33.365234" y="-5.684375" style="font-size: 7px; font-family: 'DejaVu Sans'">o</tspan>
       <tspan x="37.647949" y="-5.684375" style="font-size: 7px; font-family: 'DejaVu Sans'">s</tspan>
       <tspan x="41.294922" y="-5.684375" style="font-size: 7px; font-family: 'DejaVu Sans'">(</tspan>
       <tspan x="52.382812" y="-5.684375" style="font-size: 7px; font-family: 'DejaVu Sans'">)</tspan>
       <tspan x="38.516602" y="3.71875" style="font-style: oblique; font-size: 7px; font-family: 'DejaVu Sans'">e</tspan>
       <tspan x="44.025879" y="-5.684375" style="font-style: oblique; font-size: 7px; font-family: 'DejaVu Sans'">π</tspan>
       <tspan x="48.240234" y="-5.684375" style="font-style: oblique; font-size: 7px; font-family: 'DejaVu Sans'">x</tspan>
       <tspan x="43.148122" y="1.039062" style="font-style: oblique; font-size: 4.9px; font-family: 'DejaVu Sans'">x</tspan>
      </text>
      <rect x="29.516602" y="-3.265625" width="25.597168" height="0.625"/>
     </g>
    </g>
   </g>
  </g>
  <g id="axes_2">
   <g id="patch_8">
    <path d="M 166.370384 125.04351 
L 283.233269 125.04351 
L 283.233269 27.79649 
L 166.370384 27.79649 
L 166.370384 125.04351 
z
" style="fill: none"/>
   </g>
   <g id="matplotlib.axis_3">
    <g id="xtick_4">
     <g id="line2d_15">
      <path d="M 171.682333 125.04351 
L 171.682333 27.79649 
" clip-path="url(#p9f0578a34f)" style="fill: none; stroke-dasharray: 0.8,1.32; stroke-dashoffset: 0; stroke: #b0b0b0; stroke-width: 0.8"/>
     </g>
     <g id="line2d_16">
      <g>
       <use xlink:href="#m26b9a06a8e" x="171.682333" y="95.975836" style="stroke: #000000; stroke-width: 0.8"/>
      </g>
     </g>
     <g id="text_10">
      <text style="font-size: 10px; font-family: 'DejaVu Sans', 'Bitstream Vera Sans', 'Computer Modern Sans Serif', 'Lucida Grande', 'Verdana', 'Geneva', 'Lucid', 'Arial', 'Helvetica', 'Avant Garde', sans-serif; text-anchor: middle" x="171.682333" y="110.574274" transform="rotate(-0 171.682333 110.574274)">0</text>
     </g>
    </g>
    <g id="xtick_5">
     <g id="line2d_17">
      <path d="M 214.177928 125.04351 
L 214.177928 27.79649 
" clip-path="url(#p9f0578a34f)" style="fill: none; stroke-dasharray: 0.8,1.32; stroke-dashoffset: 0; stroke: #b0b0b0; stroke-width: 0.8"/>
     </g>
     <g id="line2d_18">
      <g>
       <use xlink:href="#m26b9a06a8e" x="214.177928" y="95.975836" style="stroke: #000000; stroke-width: 0.8"/>
      </g>
     </g>
     <g id="text_11">
      <text style="font-size: 10px; font-family: 'DejaVu Sans', 'Bitstream Vera Sans', 'Computer Modern Sans Serif', 'Lucida Grande', 'Verdana', 'Geneva', 'Lucid', 'Arial', 'Helvetica', 'Avant Garde', sans-serif; text-anchor: middle" x="214.177928" y="110.574274" transform="rotate(-0 214.177928 110.574274)">1</text>
     </g>
    </g>
    <g id="xtick_6">
     <g id="line2d_19">
      <path d="M 256.673523 125.04351 
L 256.673523 27.79649 
" clip-path="url(#p9f0578a34f)" style="fill: none; stroke-dasharray: 0.8,1.32; stroke-dashoffset: 0; stroke: #b0b0b0; stroke-width: 0.8"/>
     </g>
     <g id="line2d_20">
      <g>
       <use xlink:href="#m26b9a06a8e" x="256.673523" y="95.975836" style="stroke: #000000; stroke-width: 0.8"/>
      </g>
     </g>
     <g id="text_12">
      <text style="font-size: 10px; font-family: 'DejaVu Sans', 'Bitstream Vera Sans', 'Computer Modern Sans Serif', 'Lucida Grande', 'Verdana', 'Geneva', 'Lucid', 'Arial', 'Helvetica', 'Avant Garde', sans-serif; text-anchor: middle" x="256.673523" y="110.574274" transform="rotate(-0 256.673523 110.574274)">2</text>
     </g>
    </g>
    <g id="text_13">
     <text style="font-size: 10px; font-family: 'DejaVu Sans', 'Bitstream Vera Sans', 'Computer Modern Sans Serif', 'Lucida Grande', 'Verdana', 'Geneva', 'Lucid', 'Arial', 'Helvetica', 'Avant Garde', sans-serif; text-anchor: middle" x="224.801827" y="124.252399" transform="rotate(-0 224.801827 124.252399)">x</text>
    </g>
   </g>
   <g id="matplotlib.axis_4">
    <g id="ytick_4">
     <g id="line2d_21">
      <path d="M 166.370384 95.975836 
L 283.233269 95.975836 
" clip-path="url(#p9f0578a34f)" style="fill: none; stroke-dasharray: 0.8,1.32; stroke-dashoffset: 0; stroke: #b0b0b0; stroke-width: 0.8"/>
     </g>
     <g id="line2d_22">
      <g>
       <use xlink:href="#mccb15ffa16" x="171.682333" y="95.975836" style="stroke: #000000; stroke-width: 0.8"/>
      </g>
     </g>
     <g id="text_14">
      <text style="font-size: 10px; font-family: 'DejaVu Sans', 'Bitstream Vera Sans', 'Computer Modern Sans Serif', 'Lucida Grande', 'Verdana', 'Geneva', 'Lucid', 'Arial', 'Helvetica', 'Avant Garde', sans-serif; text-anchor: end" x="164.682333" y="99.775055" transform="rotate(-0 164.682333 99.775055)">0.0</text>
     </g>
    </g>
    <g id="ytick_5">
     <g id="line2d_23">
      <path d="M 166.370384 64.096323 
L 283.233269 64.096323 
" clip-path="url(#p9f0578a34f)" style="fill: none; stroke-dasharray: 0.8,1.32; stroke-dashoffset: 0; stroke: #b0b0b0; stroke-width: 0.8"/>
     </g>
     <g id="line2d_24">
      <g>
       <use xlink:href="#mccb15ffa16" x="171.682333" y="64.096323" style="stroke: #000000; stroke-width: 0.8"/>
      </g>
     </g>
     <g id="text_15">
      <text style="font-size: 10px; font-family: 'DejaVu Sans', 'Bitstream Vera Sans', 'Computer Modern Sans Serif', 'Lucida Grande', 'Verdana', 'Geneva', 'Lucid', 'Arial', 'Helvetica', 'Avant Garde', sans-serif; text-anchor: end" x="164.682333" y="67.895541" transform="rotate(-0 164.682333 67.895541)">0.5</text>
     </g>
    </g>
    <g id="ytick_6">
     <g id="line2d_25">
      <path d="M 166.370384 32.216809 
L 283.233269 32.216809 
" clip-path="url(#p9f0578a34f)" style="fill: none; stroke-dasharray: 0.8,1.32; stroke-dashoffset: 0; stroke: #b0b0b0; stroke-width: 0.8"/>
     </g>
     <g id="line2d_26">
      <g>
       <use xlink:href="#mccb15ffa16" x="171.682333" y="32.216809" style="stroke: #000000; stroke-width: 0.8"/>
      </g>
     </g>
     <g id="text_16">
      <text style="font-size: 10px; font-family: 'DejaVu Sans', 'Bitstream Vera Sans', 'Computer Modern Sans Serif', 'Lucida Grande', 'Verdana', 'Geneva', 'Lucid', 'Arial', 'Helvetica', 'Avant Garde', sans-serif; text-anchor: end" x="164.682333" y="36.016028" transform="rotate(-0 164.682333 36.016028)">1.0</text>
     </g>
    </g>
   </g>
   <g id="line2d_27">
    <path d="M 171.682333 32.216809 
L 172.755454 34.002262 
L 173.828575 36.118437 
L 174.901697 38.534749 
L 175.974818 41.220094 
L 177.047939 44.143081 
L 178.12106 47.27226 
L 179.194181 50.576336 
L 180.267302 54.024376 
L 181.340423 57.585996 
L 182.413544 61.231543 
L 183.486665 64.932255 
L 184.559786 68.660415 
L 185.632907 72.389488 
L 186.706028 76.094235 
L 187.77915 79.750829 
L 188.852271 83.33694 
L 189.925392 86.831811 
L 190.998513 90.21633 
L 192.071634 93.473065 
L 193.144755 96.586311 
L 194.217876 99.542102 
L 195.290997 102.328227 
L 196.364118 104.934219 
L 197.437239 107.351347 
L 198.51036 109.572583 
L 199.583481 111.592569 
L 200.656602 113.407572 
L 201.729724 115.015426 
L 202.802845 116.415472 
L 203.875966 117.608485 
L 204.949087 118.596605 
L 206.022208 119.383246 
L 207.095329 119.973018 
L 208.16845 120.371633 
L 209.241571 120.585811 
L 210.314692 120.623191 
L 211.387813 120.492227 
L 212.460934 120.202094 
L 213.534055 119.762593 
L 214.607176 119.184048 
L 215.680298 118.477216 
L 216.753419 117.65319 
L 217.82654 116.723309 
L 218.899661 115.699068 
L 219.972782 114.592033 
L 221.045903 113.41376 
L 222.119024 112.175718 
L 223.192145 110.889214 
L 224.265266 109.565325 
L 225.338387 108.214836 
L 226.411508 106.848181 
L 227.484629 105.475388 
L 228.557751 104.106032 
L 229.630872 102.749196 
L 230.703993 101.413428 
L 231.777114 100.106715 
L 232.850235 98.836452 
L 233.923356 97.609427 
L 234.996477 96.431798 
L 236.069598 95.309088 
L 237.142719 94.246177 
L 238.21584 93.2473 
L 239.288961 92.31605 
L 240.362082 91.455389 
L 241.435203 90.667654 
L 242.508325 89.954574 
L 243.581446 89.31729 
L 244.654567 88.756374 
L 245.727688 88.271854 
L 246.800809 87.863241 
L 247.87393 87.529556 
L 248.947051 87.269363 
L 250.020172 87.080801 
L 251.093293 86.961616 
L 252.166414 86.909195 
L 253.239535 86.920605 
L 254.312656 86.992624 
L 255.385777 87.121782 
L 256.458899 87.304392 
L 257.53202 87.536587 
L 258.605141 87.814356 
L 259.678262 88.13358 
L 260.751383 88.490059 
L 261.824504 88.87955 
L 262.897625 89.297798 
L 263.970746 89.740559 
L 265.043867 90.203635 
L 266.116988 90.682898 
L 267.190109 91.174313 
L 268.26323 91.673962 
L 269.336352 92.178063 
L 270.409473 92.682993 
L 271.482594 93.185299 
L 272.555715 93.681717 
L 273.628836 94.169183 
L 274.701957 94.644846 
L 275.775078 95.106074 
L 276.848199 95.550462 
L 277.92132 95.975836 
" clip-path="url(#p9f0578a34f)" style="fill: none; stroke: #1f77b4; stroke-width: 1.5; stroke-linecap: square"/>
   </g>
   <g id="patch_9">
    <path d="M 171.682333 125.04351 
L 171.682333 27.79649 
" style="fill: none; stroke: #000000; stroke-width: 0.8; stroke-linejoin: miter; stroke-linecap: square"/>
   </g>
   <g id="patch_10">
    <path d="M 166.370384 95.975836 
L 283.233269 95.975836 
" style="fill: none; stroke: #000000; stroke-width: 0.8; stroke-linejoin: miter; stroke-linecap: square"/>
   </g>
   <g id="text_17">
    <text style="font-size: 10px; font-family: 'DejaVu Sans', 'Bitstream Vera Sans', 'Computer Modern Sans Serif', 'Lucida Grande', 'Verdana', 'Geneva', 'Lucid', 'Arial', 'Helvetica', 'Avant Garde', sans-serif" transform="translate(180.13542 10.598677)">Figure 1.2: Spines</text>
    <text style="font-size: 10px; font-family: 'DejaVu Sans', 'Bitstream Vera Sans', 'Computer Modern Sans Serif', 'Lucida Grande', 'Verdana', 'Geneva', 'Lucid', 'Arial', 'Helvetica', 'Avant Garde', sans-serif" transform="translate(187.744795 21.79649)"> through origin</text>
   </g>
   <g id="legend_2">
    <g id="patch_11">
     <path d="M 187.833269 55.79649 
L 276.233269 55.79649 
Q 278.233269 55.79649 278.233269 53.79649 
L 278.233269 34.79649 
Q 278.233269 32.79649 276.233269 32.79649 
L 187.833269 32.79649 
Q 185.833269 32.79649 185.833269 34.79649 
L 185.833269 53.79649 
Q 185.833269 55.79649 187.833269 55.79649 
z
" style="fill: #ffffff; opacity: 0.8; stroke: #cccccc; stroke-linejoin: miter"/>
    </g>
    <g id="line2d_28">
     <path d="M 189.833269 43.99649 
L 199.833269 43.99649 
L 209.833269 43.99649 
" style="fill: none; stroke: #1f77b4; stroke-width: 1.5; stroke-linecap: square"/>
    </g>
    <g id="text_18">
     <!-- $f(x) = \frac{\cos(\pi x)}{e^x}$ -->
     <g transform="translate(217.833269 47.49649)">
      <text>
       <tspan x="0" y="-0.382812" style="font-style: oblique; font-size: 10px; font-family: 'DejaVu Sans'">f</tspan>
       <tspan x="7.421875" y="-0.382812" style="font-style: oblique; font-size: 10px; font-family: 'DejaVu Sans'">x</tspan>
       <tspan x="3.520508" y="-0.382812" style="font-size: 10px; font-family: 'DejaVu Sans'">(</tspan>
       <tspan x="13.339844" y="-0.382812" style="font-size: 10px; font-family: 'DejaVu Sans'">)</tspan>
       <tspan x="19.189453" y="-0.382812" style="font-size: 10px; font-family: 'DejaVu Sans'">=</tspan>
       <tspan x="29.516602" y="-5.684375" style="font-size: 7px; font-family: 'DejaVu Sans'">c</tspan>
       <tspan x="33.365234" y="-5.684375" style="font-size: 7px; font-family: 'DejaVu Sans'">o</tspan>
       <tspan x="37.647949" y="-5.684375" style="font-size: 7px; font-family: 'DejaVu Sans'">s</tspan>
       <tspan x="41.294922" y="-5.684375" style="font-size: 7px; font-family: 'DejaVu Sans'">(</tspan>
       <tspan x="52.382812" y="-5.684375" style="font-size: 7px; font-family: 'DejaVu Sans'">)</tspan>
       <tspan x="38.516602" y="3.71875" style="font-style: oblique; font-size: 7px; font-family: 'DejaVu Sans'">e</tspan>
       <tspan x="44.025879" y="-5.684375" style="font-style: oblique; font-size: 7px; font-family: 'DejaVu Sans'">π</tspan>
       <tspan x="48.240234" y="-5.684375" style="font-style: oblique; font-size: 7px; font-family: 'DejaVu Sans'">x</tspan>
       <tspan x="43.148122" y="1.039062" style="font-style: oblique; font-size: 4.9px; font-family: 'DejaVu Sans'">x</tspan>
      </text>
      <rect x="29.516602" y="-3.265625" width="25.597168" height="0.625"/>
     </g>
    </g>
   </g>
  </g>
  <g id="axes_3">
   <g id="patch_12">
    <path d="M 312.136874 125.04351 
L 428.99976 125.04351 
L 428.99976 27.79649 
L 312.136874 27.79649 
L 312.136874 125.04351 
z
" style="fill: none"/>
   </g>
   <g id="matplotlib.axis_5">
    <g id="xtick_7">
     <g id="line2d_29">
      <path d="M 317.448824 125.04351 
L 317.448824 27.79649 
" clip-path="url(#p9b4f82d1cd)" style="fill: none; stroke-dasharray: 0.8,1.32; stroke-dashoffset: 0; stroke: #b0b0b0; stroke-width: 0.8"/>
     </g>
     <g id="line2d_30">
      <g>
       <use xlink:href="#m26b9a06a8e" x="317.448824" y="125.04351" style="stroke: #000000; stroke-width: 0.8"/>
      </g>
     </g>
     <g id="text_19">
      <text style="font-size: 10px; font-family: 'DejaVu Sans', 'Bitstream Vera Sans', 'Computer Modern Sans Serif', 'Lucida Grande', 'Verdana', 'Geneva', 'Lucid', 'Arial', 'Helvetica', 'Avant Garde', sans-serif; text-anchor: middle" x="317.448824" y="139.641948" transform="rotate(-0 317.448824 139.641948)">0</text>
     </g>
    </g>
    <g id="xtick_8">
     <g id="line2d_31">
      <path d="M 359.944419 125.04351 
L 359.944419 27.79649 
" clip-path="url(#p9b4f82d1cd)" style="fill: none; stroke-dasharray: 0.8,1.32; stroke-dashoffset: 0; stroke: #b0b0b0; stroke-width: 0.8"/>
     </g>
     <g id="line2d_32">
      <g>
       <use xlink:href="#m26b9a06a8e" x="359.944419" y="125.04351" style="stroke: #000000; stroke-width: 0.8"/>
      </g>
     </g>
     <g id="text_20">
      <text style="font-size: 10px; font-family: 'DejaVu Sans', 'Bitstream Vera Sans', 'Computer Modern Sans Serif', 'Lucida Grande', 'Verdana', 'Geneva', 'Lucid', 'Arial', 'Helvetica', 'Avant Garde', sans-serif; text-anchor: middle" x="359.944419" y="139.641948" transform="rotate(-0 359.944419 139.641948)">1</text>
     </g>
    </g>
    <g id="xtick_9">
     <g id="line2d_33">
      <path d="M 402.440013 125.04351 
L 402.440013 27.79649 
" clip-path="url(#p9b4f82d1cd)" style="fill: none; stroke-dasharray: 0.8,1.32; stroke-dashoffset: 0; stroke: #b0b0b0; stroke-width: 0.8"/>
     </g>
     <g id="line2d_34">
      <g>
       <use xlink:href="#m26b9a06a8e" x="402.440013" y="125.04351" style="stroke: #000000; stroke-width: 0.8"/>
      </g>
     </g>
     <g id="text_21">
      <text style="font-size: 10px; font-family: 'DejaVu Sans', 'Bitstream Vera Sans', 'Computer Modern Sans Serif', 'Lucida Grande', 'Verdana', 'Geneva', 'Lucid', 'Arial', 'Helvetica', 'Avant Garde', sans-serif; text-anchor: middle" x="402.440013" y="139.641948" transform="rotate(-0 402.440013 139.641948)">2</text>
     </g>
    </g>
    <g id="text_22">
     <text style="font-size: 10px; font-family: 'DejaVu Sans', 'Bitstream Vera Sans', 'Computer Modern Sans Serif', 'Lucida Grande', 'Verdana', 'Geneva', 'Lucid', 'Arial', 'Helvetica', 'Avant Garde', sans-serif; text-anchor: middle" x="370.568317" y="153.320073" transform="rotate(-0 370.568317 153.320073)">x</text>
    </g>
   </g>
   <g id="matplotlib.axis_6">
    <g id="ytick_7">
     <g id="line2d_35">
      <path d="M 312.136874 95.975836 
L 428.99976 95.975836 
" clip-path="url(#p9b4f82d1cd)" style="fill: none; stroke-dasharray: 0.8,1.32; stroke-dashoffset: 0; stroke: #b0b0b0; stroke-width: 0.8"/>
     </g>
     <g id="line2d_36">
      <g>
       <use xlink:href="#mccb15ffa16" x="312.136874" y="95.975836" style="stroke: #000000; stroke-width: 0.8"/>
      </g>
     </g>
     <g id="text_23">
      <text style="font-size: 10px; font-family: 'DejaVu Sans', 'Bitstream Vera Sans', 'Computer Modern Sans Serif', 'Lucida Grande', 'Verdana', 'Geneva', 'Lucid', 'Arial', 'Helvetica', 'Avant Garde', sans-serif; text-anchor: end" x="305.136874" y="99.775055" transform="rotate(-0 305.136874 99.775055)">0.0</text>
     </g>
    </g>
    <g id="ytick_8">
     <g id="line2d_37">
      <path d="M 312.136874 64.096323 
L 428.99976 64.096323 
" clip-path="url(#p9b4f82d1cd)" style="fill: none; stroke-dasharray: 0.8,1.32; stroke-dashoffset: 0; stroke: #b0b0b0; stroke-width: 0.8"/>
     </g>
     <g id="line2d_38">
      <g>
       <use xlink:href="#mccb15ffa16" x="312.136874" y="64.096323" style="stroke: #000000; stroke-width: 0.8"/>
      </g>
     </g>
     <g id="text_24">
      <text style="font-size: 10px; font-family: 'DejaVu Sans', 'Bitstream Vera Sans', 'Computer Modern Sans Serif', 'Lucida Grande', 'Verdana', 'Geneva', 'Lucid', 'Arial', 'Helvetica', 'Avant Garde', sans-serif; text-anchor: end" x="305.136874" y="67.895541" transform="rotate(-0 305.136874 67.895541)">0.5</text>
     </g>
    </g>
    <g id="ytick_9">
     <g id="line2d_39">
      <path d="M 312.136874 32.216809 
L 428.99976 32.216809 
" clip-path="url(#p9b4f82d1cd)" style="fill: none; stroke-dasharray: 0.8,1.32; stroke-dashoffset: 0; stroke: #b0b0b0; stroke-width: 0.8"/>
     </g>
     <g id="line2d_40">
      <g>
       <use xlink:href="#mccb15ffa16" x="312.136874" y="32.216809" style="stroke: #000000; stroke-width: 0.8"/>
      </g>
     </g>
     <g id="text_25">
      <text style="font-size: 10px; font-family: 'DejaVu Sans', 'Bitstream Vera Sans', 'Computer Modern Sans Serif', 'Lucida Grande', 'Verdana', 'Geneva', 'Lucid', 'Arial', 'Helvetica', 'Avant Garde', sans-serif; text-anchor: end" x="305.136874" y="36.016028" transform="rotate(-0 305.136874 36.016028)">1.0</text>
     </g>
    </g>
   </g>
   <g id="line2d_41">
    <path d="M 317.448824 32.216809 
L 318.521945 34.002262 
L 319.595066 36.118437 
L 320.668187 38.534749 
L 321.741308 41.220094 
L 322.814429 44.143081 
L 323.88755 47.27226 
L 324.960671 50.576336 
L 326.033792 54.024376 
L 327.106914 57.585996 
L 328.180035 61.231543 
L 329.253156 64.932255 
L 330.326277 68.660415 
L 331.399398 72.389488 
L 332.472519 76.094235 
L 333.54564 79.750829 
L 334.618761 83.33694 
L 335.691882 86.831811 
L 336.765003 90.21633 
L 337.838124 93.473065 
L 338.911245 96.586311 
L 339.984366 99.542102 
L 341.057488 102.328227 
L 342.130609 104.934219 
L 343.20373 107.351347 
L 344.276851 109.572583 
L 345.349972 111.592569 
L 346.423093 113.407572 
L 347.496214 115.015426 
L 348.569335 116.415472 
L 349.642456 117.608485 
L 350.715577 118.596605 
L 351.788698 119.383246 
L 352.861819 119.973018 
L 353.934941 120.371633 
L 355.008062 120.585811 
L 356.081183 120.623191 
L 357.154304 120.492227 
L 358.227425 120.202094 
L 359.300546 119.762593 
L 360.373667 119.184048 
L 361.446788 118.477216 
L 362.519909 117.65319 
L 363.59303 116.723309 
L 364.666151 115.699068 
L 365.739272 114.592033 
L 366.812393 113.41376 
L 367.885515 112.175718 
L 368.958636 110.889214 
L 370.031757 109.565325 
L 371.104878 108.214836 
L 372.177999 106.848181 
L 373.25112 105.475388 
L 374.324241 104.106032 
L 375.397362 102.749196 
L 376.470483 101.413428 
L 377.543604 100.106715 
L 378.616725 98.836452 
L 379.689846 97.609427 
L 380.762967 96.431798 
L 381.836089 95.309088 
L 382.90921 94.246177 
L 383.982331 93.2473 
L 385.055452 92.31605 
L 386.128573 91.455389 
L 387.201694 90.667654 
L 388.274815 89.954574 
L 389.347936 89.31729 
L 390.421057 88.756374 
L 391.494178 88.271854 
L 392.567299 87.863241 
L 393.64042 87.529556 
L 394.713542 87.269363 
L 395.786663 87.080801 
L 396.859784 86.961616 
L 397.932905 86.909195 
L 399.006026 86.920605 
L 400.079147 86.992624 
L 401.152268 87.121782 
L 402.225389 87.304392 
L 403.29851 87.536587 
L 404.371631 87.814356 
L 405.444752 88.13358 
L 406.517873 88.490059 
L 407.590994 88.87955 
L 408.664116 89.297798 
L 409.737237 89.740559 
L 410.810358 90.203635 
L 411.883479 90.682898 
L 412.9566 91.174313 
L 414.029721 91.673962 
L 415.102842 92.178063 
L 416.175963 92.682993 
L 417.249084 93.185299 
L 418.322205 93.681717 
L 419.395326 94.169183 
L 420.468447 94.644846 
L 421.541569 95.106074 
L 422.61469 95.550462 
L 423.687811 95.975836 
" clip-path="url(#p9b4f82d1cd)" style="fill: none; stroke: #1f77b4; stroke-width: 1.5; stroke-linecap: square"/>
   </g>
   <g id="text_26">
    <text style="font-size: 10px; font-family: 'DejaVu Sans', 'Bitstream Vera Sans', 'Computer Modern Sans Serif', 'Lucida Grande', 'Verdana', 'Geneva', 'Lucid', 'Arial', 'Helvetica', 'Avant Garde', sans-serif; text-anchor: middle" x="370.568317" y="21.79649" transform="rotate(-0 370.568317 21.79649)">Figure 1.4: Hide spines</text>
   </g>
   <g id="legend_3">
    <g id="patch_13">
     <path d="M 333.59976 55.79649 
L 421.99976 55.79649 
Q 423.99976 55.79649 423.99976 53.79649 
L 423.99976 34.79649 
Q 423.99976 32.79649 421.99976 32.79649 
L 333.59976 32.79649 
Q 331.59976 32.79649 331.59976 34.79649 
L 331.59976 53.79649 
Q 331.59976 55.79649 333.59976 55.79649 
z
" style="fill: #ffffff; opacity: 0.8; stroke: #cccccc; stroke-linejoin: miter"/>
    </g>
    <g id="line2d_42">
     <path d="M 335.59976 43.99649 
L 345.59976 43.99649 
L 355.59976 43.99649 
" style="fill: none; stroke: #1f77b4; stroke-width: 1.5; stroke-linecap: square"/>
    </g>
    <g id="text_27">
     <!-- $f(x) = \frac{\cos(\pi x)}{e^x}$ -->
     <g transform="translate(363.59976 47.49649)">
      <text>
       <tspan x="0" y="-0.382812" style="font-style: oblique; font-size: 10px; font-family: 'DejaVu Sans'">f</tspan>
       <tspan x="7.421875" y="-0.382812" style="font-style: oblique; font-size: 10px; font-family: 'DejaVu Sans'">x</tspan>
       <tspan x="3.520508" y="-0.382812" style="font-size: 10px; font-family: 'DejaVu Sans'">(</tspan>
       <tspan x="13.339844" y="-0.382812" style="font-size: 10px; font-family: 'DejaVu Sans'">)</tspan>
       <tspan x="19.189453" y="-0.382812" style="font-size: 10px; font-family: 'DejaVu Sans'">=</tspan>
       <tspan x="29.516602" y="-5.684375" style="font-size: 7px; font-family: 'DejaVu Sans'">c</tspan>
       <tspan x="33.365234" y="-5.684375" style="font-size: 7px; font-family: 'DejaVu Sans'">o</tspan>
       <tspan x="37.647949" y="-5.684375" style="font-size: 7px; font-family: 'DejaVu Sans'">s</tspan>
       <tspan x="41.294922" y="-5.684375" style="font-size: 7px; font-family: 'DejaVu Sans'">(</tspan>
       <tspan x="52.382812" y="-5.684375" style="font-size: 7px; font-family: 'DejaVu Sans'">)</tspan>
       <tspan x="38.516602" y="3.71875" style="font-style: oblique; font-size: 7px; font-family: 'DejaVu Sans'">e</tspan>
       <tspan x="44.025879" y="-5.684375" style="font-style: oblique; font-size: 7px; font-family: 'DejaVu Sans'">π</tspan>
       <tspan x="48.240234" y="-5.684375" style="font-style: oblique; font-size: 7px; font-family: 'DejaVu Sans'">x</tspan>
       <tspan x="43.148122" y="1.039062" style="font-style: oblique; font-size: 4.9px; font-family: 'DejaVu Sans'">x</tspan>
      </text>
      <rect x="29.516602" y="-3.265625" width="25.597168" height="0.625"/>
     </g>
    </g>
   </g>
  </g>
 </g>
 <defs>
  <clipPath id="p367161d11d">
   <rect x="25.903365" y="27.79649" width="116.862886" height="97.24702"/>
  </clipPath>
  <clipPath id="p9f0578a34f">
   <rect x="166.370384" y="27.79649" width="116.862886" height="97.24702"/>
  </clipPath>
  <clipPath id="p9b4f82d1cd">
   <rect x="312.136874" y="27.79649" width="116.862886" height="97.24702"/>
  </clipPath>
 </defs>
</svg>
