<?xml version="1.0" encoding="utf-8" standalone="no"?>
<!DOCTYPE svg PUBLIC "-//W3C//DTD SVG 1.1//EN"
  "http://www.w3.org/Graphics/SVG/1.1/DTD/svg11.dtd">
<svg xmlns:xlink="http://www.w3.org/1999/xlink" width="440.39952pt" height="181.19952pt" viewBox="0 0 440.39952 181.19952" xmlns="http://www.w3.org/2000/svg" version="1.1">
 <metadata>
  <rdf:RDF xmlns:dc="http://purl.org/dc/elements/1.1/" xmlns:cc="http://creativecommons.org/ns#" xmlns:rdf="http://www.w3.org/1999/02/22-rdf-syntax-ns#">
   <cc:Work>
    <dc:type rdf:resource="http://purl.org/dc/dcmitype/StillImage"/>
    <dc:date>2025-01-10T13:02:46.652855</dc:date>
    <dc:format>image/svg+xml</dc:format>
    <dc:creator>
     <cc:Agent>
      <dc:title>Matplotlib v3.10.0, https://matplotlib.org/</dc:title>
     </cc:Agent>
    </dc:creator>
   </cc:Work>
  </rdf:RDF>
 </metadata>
 <defs>
  <style type="text/css">*{stroke-linejoin: round; stroke-linecap: butt}</style>
 </defs>
 <g id="figure_1">
  <g id="patch_1">
   <path d="M 0 181.19952 
L 440.39952 181.19952 
L 440.39952 -0 
L 0 -0 
L 0 181.19952 
z
" style="fill: none"/>
  </g>
  <g id="axes_1">
   <g id="patch_2">
    <path d="M 26.925 157.321395 
L 432.69952 157.321395 
L 432.69952 20.798438 
L 26.925 20.798438 
L 26.925 157.321395 
z
" style="fill: none"/>
   </g>
   <g id="matplotlib.axis_1">
    <g id="xtick_1">
     <g id="line2d_1">
      <path d="M 45.369296 157.321395 
L 45.369296 20.798438 
" clip-path="url(#p72d7da95cc)" style="fill: none; stroke-dasharray: 0.8,1.32; stroke-dashoffset: 0; stroke: #b0b0b0; stroke-width: 0.8"/>
     </g>
     <g id="line2d_2">
      <defs>
       <path id="m5226a92bfa" d="M 0 0 
L 0 3.5 
" style="stroke: #000000; stroke-width: 0.8"/>
      </defs>
      <g>
       <use xlink:href="#m5226a92bfa" x="45.369296" y="157.321395" style="stroke: #000000; stroke-width: 0.8"/>
      </g>
     </g>
     <g id="text_1">
      <text style="font-size: 10px; font-family: 'DejaVu Sans', 'Bitstream Vera Sans', 'Computer Modern Sans Serif', 'Lucida Grande', 'Verdana', 'Geneva', 'Lucid', 'Arial', 'Helvetica', 'Avant Garde', sans-serif; text-anchor: middle" x="45.369296" y="171.919833" transform="rotate(-0 45.369296 171.919833)">0.0</text>
     </g>
    </g>
    <g id="xtick_2">
     <g id="line2d_3">
      <path d="M 91.480037 157.321395 
L 91.480037 20.798438 
" clip-path="url(#p72d7da95cc)" style="fill: none; stroke-dasharray: 0.8,1.32; stroke-dashoffset: 0; stroke: #b0b0b0; stroke-width: 0.8"/>
     </g>
     <g id="line2d_4">
      <g>
       <use xlink:href="#m5226a92bfa" x="91.480037" y="157.321395" style="stroke: #000000; stroke-width: 0.8"/>
      </g>
     </g>
     <g id="text_2">
      <text style="font-size: 10px; font-family: 'DejaVu Sans', 'Bitstream Vera Sans', 'Computer Modern Sans Serif', 'Lucida Grande', 'Verdana', 'Geneva', 'Lucid', 'Arial', 'Helvetica', 'Avant Garde', sans-serif; text-anchor: middle" x="91.480037" y="171.919833" transform="rotate(-0 91.480037 171.919833)">0.5</text>
     </g>
    </g>
    <g id="xtick_3">
     <g id="line2d_5">
      <path d="M 137.590778 157.321395 
L 137.590778 20.798438 
" clip-path="url(#p72d7da95cc)" style="fill: none; stroke-dasharray: 0.8,1.32; stroke-dashoffset: 0; stroke: #b0b0b0; stroke-width: 0.8"/>
     </g>
     <g id="line2d_6">
      <g>
       <use xlink:href="#m5226a92bfa" x="137.590778" y="157.321395" style="stroke: #000000; stroke-width: 0.8"/>
      </g>
     </g>
     <g id="text_3">
      <text style="font-size: 10px; font-family: 'DejaVu Sans', 'Bitstream Vera Sans', 'Computer Modern Sans Serif', 'Lucida Grande', 'Verdana', 'Geneva', 'Lucid', 'Arial', 'Helvetica', 'Avant Garde', sans-serif; text-anchor: middle" x="137.590778" y="171.919833" transform="rotate(-0 137.590778 171.919833)">1.0</text>
     </g>
    </g>
    <g id="xtick_4">
     <g id="line2d_7">
      <path d="M 183.701519 157.321395 
L 183.701519 20.798438 
" clip-path="url(#p72d7da95cc)" style="fill: none; stroke-dasharray: 0.8,1.32; stroke-dashoffset: 0; stroke: #b0b0b0; stroke-width: 0.8"/>
     </g>
     <g id="line2d_8">
      <g>
       <use xlink:href="#m5226a92bfa" x="183.701519" y="157.321395" style="stroke: #000000; stroke-width: 0.8"/>
      </g>
     </g>
     <g id="text_4">
      <text style="font-size: 10px; font-family: 'DejaVu Sans', 'Bitstream Vera Sans', 'Computer Modern Sans Serif', 'Lucida Grande', 'Verdana', 'Geneva', 'Lucid', 'Arial', 'Helvetica', 'Avant Garde', sans-serif; text-anchor: middle" x="183.701519" y="171.919833" transform="rotate(-0 183.701519 171.919833)">1.5</text>
     </g>
    </g>
    <g id="xtick_5">
     <g id="line2d_9">
      <path d="M 229.81226 157.321395 
L 229.81226 20.798438 
" clip-path="url(#p72d7da95cc)" style="fill: none; stroke-dasharray: 0.8,1.32; stroke-dashoffset: 0; stroke: #b0b0b0; stroke-width: 0.8"/>
     </g>
     <g id="line2d_10">
      <g>
       <use xlink:href="#m5226a92bfa" x="229.81226" y="157.321395" style="stroke: #000000; stroke-width: 0.8"/>
      </g>
     </g>
     <g id="text_5">
      <text style="font-size: 10px; font-family: 'DejaVu Sans', 'Bitstream Vera Sans', 'Computer Modern Sans Serif', 'Lucida Grande', 'Verdana', 'Geneva', 'Lucid', 'Arial', 'Helvetica', 'Avant Garde', sans-serif; text-anchor: middle" x="229.81226" y="171.919833" transform="rotate(-0 229.81226 171.919833)">2.0</text>
     </g>
    </g>
    <g id="xtick_6">
     <g id="line2d_11">
      <path d="M 275.923001 157.321395 
L 275.923001 20.798438 
" clip-path="url(#p72d7da95cc)" style="fill: none; stroke-dasharray: 0.8,1.32; stroke-dashoffset: 0; stroke: #b0b0b0; stroke-width: 0.8"/>
     </g>
     <g id="line2d_12">
      <g>
       <use xlink:href="#m5226a92bfa" x="275.923001" y="157.321395" style="stroke: #000000; stroke-width: 0.8"/>
      </g>
     </g>
     <g id="text_6">
      <text style="font-size: 10px; font-family: 'DejaVu Sans', 'Bitstream Vera Sans', 'Computer Modern Sans Serif', 'Lucida Grande', 'Verdana', 'Geneva', 'Lucid', 'Arial', 'Helvetica', 'Avant Garde', sans-serif; text-anchor: middle" x="275.923001" y="171.919833" transform="rotate(-0 275.923001 171.919833)">2.5</text>
     </g>
    </g>
    <g id="xtick_7">
     <g id="line2d_13">
      <path d="M 322.033742 157.321395 
L 322.033742 20.798438 
" clip-path="url(#p72d7da95cc)" style="fill: none; stroke-dasharray: 0.8,1.32; stroke-dashoffset: 0; stroke: #b0b0b0; stroke-width: 0.8"/>
     </g>
     <g id="line2d_14">
      <g>
       <use xlink:href="#m5226a92bfa" x="322.033742" y="157.321395" style="stroke: #000000; stroke-width: 0.8"/>
      </g>
     </g>
     <g id="text_7">
      <text style="font-size: 10px; font-family: 'DejaVu Sans', 'Bitstream Vera Sans', 'Computer Modern Sans Serif', 'Lucida Grande', 'Verdana', 'Geneva', 'Lucid', 'Arial', 'Helvetica', 'Avant Garde', sans-serif; text-anchor: middle" x="322.033742" y="171.919833" transform="rotate(-0 322.033742 171.919833)">3.0</text>
     </g>
    </g>
    <g id="xtick_8">
     <g id="line2d_15">
      <path d="M 368.144483 157.321395 
L 368.144483 20.798438 
" clip-path="url(#p72d7da95cc)" style="fill: none; stroke-dasharray: 0.8,1.32; stroke-dashoffset: 0; stroke: #b0b0b0; stroke-width: 0.8"/>
     </g>
     <g id="line2d_16">
      <g>
       <use xlink:href="#m5226a92bfa" x="368.144483" y="157.321395" style="stroke: #000000; stroke-width: 0.8"/>
      </g>
     </g>
     <g id="text_8">
      <text style="font-size: 10px; font-family: 'DejaVu Sans', 'Bitstream Vera Sans', 'Computer Modern Sans Serif', 'Lucida Grande', 'Verdana', 'Geneva', 'Lucid', 'Arial', 'Helvetica', 'Avant Garde', sans-serif; text-anchor: middle" x="368.144483" y="171.919833" transform="rotate(-0 368.144483 171.919833)">3.5</text>
     </g>
    </g>
    <g id="xtick_9">
     <g id="line2d_17">
      <path d="M 414.255224 157.321395 
L 414.255224 20.798438 
" clip-path="url(#p72d7da95cc)" style="fill: none; stroke-dasharray: 0.8,1.32; stroke-dashoffset: 0; stroke: #b0b0b0; stroke-width: 0.8"/>
     </g>
     <g id="line2d_18">
      <g>
       <use xlink:href="#m5226a92bfa" x="414.255224" y="157.321395" style="stroke: #000000; stroke-width: 0.8"/>
      </g>
     </g>
     <g id="text_9">
      <text style="font-size: 10px; font-family: 'DejaVu Sans', 'Bitstream Vera Sans', 'Computer Modern Sans Serif', 'Lucida Grande', 'Verdana', 'Geneva', 'Lucid', 'Arial', 'Helvetica', 'Avant Garde', sans-serif; text-anchor: middle" x="414.255224" y="171.919833" transform="rotate(-0 414.255224 171.919833)">4.0</text>
     </g>
    </g>
    <g id="text_10">
     <!-- $x$ -->
     <g transform="translate(429.69952 164.919833)">
      <text>
       <tspan x="0" y="-0.53125" style="font-style: oblique; font-size: 10px; font-family: 'DejaVu Sans'">x</tspan>
      </text>
     </g>
    </g>
   </g>
   <g id="matplotlib.axis_2">
    <g id="ytick_1">
     <g id="line2d_19">
      <path d="M 26.925 151.115806 
L 432.69952 151.115806 
" clip-path="url(#p72d7da95cc)" style="fill: none; stroke-dasharray: 0.8,1.32; stroke-dashoffset: 0; stroke: #b0b0b0; stroke-width: 0.8"/>
     </g>
     <g id="line2d_20">
      <defs>
       <path id="mbeefb9db8c" d="M 0 0 
L -3.5 0 
" style="stroke: #000000; stroke-width: 0.8"/>
      </defs>
      <g>
       <use xlink:href="#mbeefb9db8c" x="26.925" y="151.115806" style="stroke: #000000; stroke-width: 0.8"/>
      </g>
     </g>
     <g id="text_11">
      <text style="font-size: 10px; font-family: 'DejaVu Sans', 'Bitstream Vera Sans', 'Computer Modern Sans Serif', 'Lucida Grande', 'Verdana', 'Geneva', 'Lucid', 'Arial', 'Helvetica', 'Avant Garde', sans-serif; text-anchor: end" x="19.925" y="154.915025" transform="rotate(-0 19.925 154.915025)">0</text>
     </g>
    </g>
    <g id="ytick_2">
     <g id="line2d_21">
      <path d="M 26.925 105.652075 
L 432.69952 105.652075 
" clip-path="url(#p72d7da95cc)" style="fill: none; stroke-dasharray: 0.8,1.32; stroke-dashoffset: 0; stroke: #b0b0b0; stroke-width: 0.8"/>
     </g>
     <g id="line2d_22">
      <g>
       <use xlink:href="#mbeefb9db8c" x="26.925" y="105.652075" style="stroke: #000000; stroke-width: 0.8"/>
      </g>
     </g>
     <g id="text_12">
      <text style="font-size: 10px; font-family: 'DejaVu Sans', 'Bitstream Vera Sans', 'Computer Modern Sans Serif', 'Lucida Grande', 'Verdana', 'Geneva', 'Lucid', 'Arial', 'Helvetica', 'Avant Garde', sans-serif; text-anchor: end" x="19.925" y="109.451294" transform="rotate(-0 19.925 109.451294)">20</text>
     </g>
    </g>
    <g id="ytick_3">
     <g id="line2d_23">
      <path d="M 26.925 60.188345 
L 432.69952 60.188345 
" clip-path="url(#p72d7da95cc)" style="fill: none; stroke-dasharray: 0.8,1.32; stroke-dashoffset: 0; stroke: #b0b0b0; stroke-width: 0.8"/>
     </g>
     <g id="line2d_24">
      <g>
       <use xlink:href="#mbeefb9db8c" x="26.925" y="60.188345" style="stroke: #000000; stroke-width: 0.8"/>
      </g>
     </g>
     <g id="text_13">
      <text style="font-size: 10px; font-family: 'DejaVu Sans', 'Bitstream Vera Sans', 'Computer Modern Sans Serif', 'Lucida Grande', 'Verdana', 'Geneva', 'Lucid', 'Arial', 'Helvetica', 'Avant Garde', sans-serif; text-anchor: end" x="19.925" y="63.987563" transform="rotate(-0 19.925 63.987563)">40</text>
     </g>
    </g>
    <g id="text_14">
     <!-- $y$ -->
     <g transform="translate(13.780637 18.698438)">
      <text>
       <tspan x="0" y="-0.53125" style="font-style: oblique; font-size: 10px; font-family: 'DejaVu Sans'">y</tspan>
      </text>
     </g>
    </g>
   </g>
   <g id="line2d_25">
    <path d="M 45.369296 151.115806 
L 49.095417 151.112095 
L 52.821537 151.100962 
L 56.547658 151.082408 
L 60.273778 151.056431 
L 63.999899 151.023032 
L 67.726019 150.982212 
L 71.45214 150.93397 
L 75.17826 150.878305 
L 78.904381 150.815219 
L 82.630501 150.744711 
L 86.356622 150.666782 
L 90.082742 150.58143 
L 93.808863 150.488656 
L 97.534983 150.388461 
L 101.261104 150.280843 
L 104.987224 150.165804 
L 108.713344 150.043343 
L 112.439465 149.913459 
L 116.165585 149.776154 
L 119.891706 149.631428 
L 123.617826 149.479279 
L 127.343947 149.319708 
L 131.070067 149.152715 
L 134.796188 148.978301 
L 138.522308 148.796465 
L 142.248429 148.607206 
L 145.974549 148.410526 
L 149.70067 148.206424 
L 153.42679 147.9949 
L 157.152911 147.775954 
L 160.879031 147.549587 
L 164.605152 147.315797 
L 168.331272 147.074586 
L 172.057393 146.825952 
L 175.783513 146.569897 
L 179.509634 146.30642 
L 183.235754 146.035521 
L 186.961875 145.7572 
L 190.687995 145.471457 
L 194.414115 145.178292 
L 198.140236 144.877705 
L 201.866356 144.569697 
L 205.592477 144.254266 
L 209.318597 143.931414 
L 213.044718 143.60114 
L 216.770838 143.263444 
L 220.496959 142.918326 
L 224.223079 142.565786 
L 227.9492 142.205824 
L 231.67532 141.83844 
L 235.401441 141.463635 
L 239.127561 141.081407 
L 242.853682 140.691758 
L 246.579802 140.294687 
L 250.305923 139.890193 
L 254.032043 139.478278 
L 257.758164 139.058942 
L 261.484284 138.632183 
L 265.210405 138.198002 
L 268.936525 137.756399 
L 272.662645 137.307375 
L 276.388766 136.850928 
L 280.114886 136.38706 
L 283.841007 135.91577 
L 287.567127 135.437058 
L 291.293248 134.950924 
L 295.019368 134.457368 
L 298.745489 133.95639 
L 302.471609 133.447991 
L 306.19773 132.932169 
L 309.92385 132.408926 
L 313.649971 131.87826 
L 317.376091 131.340173 
L 321.102212 130.794664 
L 324.828332 130.241733 
L 328.554453 129.68138 
L 332.280573 129.113605 
L 336.006694 128.538409 
L 339.732814 127.95579 
L 343.458935 127.36575 
L 347.185055 126.768287 
L 350.911176 126.163403 
L 354.637296 125.551097 
L 358.363416 124.931369 
L 362.089537 124.304219 
L 365.815657 123.669647 
L 369.541778 123.027654 
L 373.267898 122.378238 
L 376.994019 121.7214 
L 380.720139 121.057141 
L 384.44626 120.38546 
L 388.17238 119.706357 
L 391.898501 119.019832 
L 395.624621 118.325885 
L 399.350742 117.624516 
L 403.076862 116.915725 
L 406.802983 116.199512 
L 410.529103 115.475878 
L 414.255224 114.744821 
" clip-path="url(#p72d7da95cc)" style="fill: none; stroke: #1f77b4; stroke-width: 1.5; stroke-linecap: square"/>
   </g>
   <g id="line2d_26">
    <path d="M 45.369296 148.842619 
L 49.095417 148.748893 
L 52.821537 148.651302 
L 56.547658 148.549687 
L 60.273778 148.443882 
L 63.999899 148.333715 
L 67.726019 148.219006 
L 71.45214 148.099566 
L 75.17826 147.975203 
L 78.904381 147.845711 
L 82.630501 147.710881 
L 86.356622 147.570491 
L 90.082742 147.424313 
L 93.808863 147.272107 
L 97.534983 147.113626 
L 101.261104 146.948611 
L 104.987224 146.776791 
L 108.713344 146.597888 
L 112.439465 146.411608 
L 116.165585 146.217647 
L 119.891706 146.015689 
L 123.617826 145.805404 
L 127.343947 145.586449 
L 131.070067 145.358466 
L 134.796188 145.121083 
L 138.522308 144.873912 
L 142.248429 144.61655 
L 145.974549 144.348577 
L 149.70067 144.069555 
L 153.42679 143.779028 
L 157.152911 143.476522 
L 160.879031 143.161544 
L 164.605152 142.833579 
L 168.331272 142.492091 
L 172.057393 142.136524 
L 175.783513 141.766295 
L 179.509634 141.380802 
L 183.235754 140.979414 
L 186.961875 140.561477 
L 190.687995 140.126307 
L 194.414115 139.673195 
L 198.140236 139.2014 
L 201.866356 138.710152 
L 205.592477 138.19865 
L 209.318597 137.666058 
L 213.044718 137.111506 
L 216.770838 136.534089 
L 220.496959 135.932865 
L 224.223079 135.306851 
L 227.9492 134.655026 
L 231.67532 133.976325 
L 235.401441 133.269641 
L 239.127561 132.533818 
L 242.853682 131.767657 
L 246.579802 130.969906 
L 250.305923 130.139263 
L 254.032043 129.274371 
L 257.758164 128.373818 
L 261.484284 127.436134 
L 265.210405 126.459788 
L 268.936525 125.443187 
L 272.662645 124.384669 
L 276.388766 123.282507 
L 280.114886 122.134901 
L 283.841007 120.939978 
L 287.567127 119.695787 
L 291.293248 118.400296 
L 295.019368 117.05139 
L 298.745489 115.646867 
L 302.471609 114.184433 
L 306.19773 112.661702 
L 309.92385 111.076186 
L 313.649971 109.425296 
L 317.376091 107.706339 
L 321.102212 105.916506 
L 324.828332 104.052876 
L 328.554453 102.112406 
L 332.280573 100.091928 
L 336.006694 97.988143 
L 339.732814 95.797615 
L 343.458935 93.51677 
L 347.185055 91.141881 
L 350.911176 88.669073 
L 354.637296 86.094308 
L 358.363416 83.413381 
L 362.089537 80.621916 
L 365.815657 77.715355 
L 369.541778 74.688952 
L 373.267898 71.537767 
L 376.994019 68.256654 
L 380.720139 64.840256 
L 384.44626 61.282995 
L 388.17238 57.579064 
L 391.898501 53.722414 
L 395.624621 49.706749 
L 399.350742 45.525513 
L 403.076862 41.171878 
L 406.802983 36.638738 
L 410.529103 31.918689 
L 414.255224 27.004026 
" clip-path="url(#p72d7da95cc)" style="fill: none; stroke: #ff7f0e; stroke-width: 1.5; stroke-linecap: square"/>
   </g>
   <g id="text_15">
    <!-- $f(x) = x^2$ -->
    <g style="fill: #1f77b4" transform="translate(373.555224 151.115806)">
     <text>
      <tspan x="0" y="-0.976562" style="font-style: oblique; font-size: 10px; font-family: 'DejaVu Sans'; fill: #1f77b4">f</tspan>
      <tspan x="7.421875" y="-0.976562" style="font-style: oblique; font-size: 10px; font-family: 'DejaVu Sans'; fill: #1f77b4">x</tspan>
      <tspan x="29.516602" y="-0.976562" style="font-style: oblique; font-size: 10px; font-family: 'DejaVu Sans'; fill: #1f77b4">x</tspan>
      <tspan x="3.520508" y="-0.976562" style="font-size: 10px; font-family: 'DejaVu Sans'; fill: #1f77b4">(</tspan>
      <tspan x="13.339844" y="-0.976562" style="font-size: 10px; font-family: 'DejaVu Sans'; fill: #1f77b4">)</tspan>
      <tspan x="19.189453" y="-0.976562" style="font-size: 10px; font-family: 'DejaVu Sans'; fill: #1f77b4">=</tspan>
      <tspan x="35.881185" y="-4.804688" style="font-size: 7px; font-family: 'DejaVu Sans'; fill: #1f77b4">2</tspan>
     </text>
    </g>
   </g>
   <g id="text_16">
    <!-- $g(x) = e^x$ -->
    <g style="fill: #ff7f0e" transform="translate(352.410927 48.822412)">
     <text>
      <tspan x="0" y="-0.34375" style="font-style: oblique; font-size: 10px; font-family: 'DejaVu Sans'; fill: #ff7f0e">g</tspan>
      <tspan x="10.249023" y="-0.34375" style="font-style: oblique; font-size: 10px; font-family: 'DejaVu Sans'; fill: #ff7f0e">x</tspan>
      <tspan x="32.34375" y="-0.34375" style="font-style: oblique; font-size: 10px; font-family: 'DejaVu Sans'; fill: #ff7f0e">e</tspan>
      <tspan x="6.347656" y="-0.34375" style="font-size: 10px; font-family: 'DejaVu Sans'; fill: #ff7f0e">(</tspan>
      <tspan x="16.166992" y="-0.34375" style="font-size: 10px; font-family: 'DejaVu Sans'; fill: #ff7f0e">)</tspan>
      <tspan x="22.016602" y="-0.34375" style="font-size: 10px; font-family: 'DejaVu Sans'; fill: #ff7f0e">=</tspan>
      <tspan x="38.960208" y="-4.171875" style="font-style: oblique; font-size: 7px; font-family: 'DejaVu Sans'; fill: #ff7f0e">x</tspan>
     </text>
    </g>
   </g>
   <g id="text_17">
    <text style="font-size: 10px; font-family: 'DejaVu Sans', 'Bitstream Vera Sans', 'Computer Modern Sans Serif', 'Lucida Grande', 'Verdana', 'Geneva', 'Lucid', 'Arial', 'Helvetica', 'Avant Garde', sans-serif; text-anchor: middle" x="229.81226" y="14.798438" transform="rotate(-0 229.81226 14.798438)">Figure 2.6: Label lines in data region</text>
   </g>
  </g>
 </g>
 <defs>
  <clipPath id="p72d7da95cc">
   <rect x="26.925" y="20.798438" width="405.77452" height="136.522957"/>
  </clipPath>
 </defs>
</svg>
